<?xml version="1.0" encoding="UTF-8" standalone="no"?>
<!-- Created with Inkscape (http://www.inkscape.org/) -->

<svg
   width="210.00406mm"
   height="206.18753mm"
   viewBox="0 0 210.00406 206.18753"
   version="1.1"
   id="svg2173"
   sodipodi:docname="atw-bg.svg"
   inkscape:version="1.1.1 (3bf5ae0d25, 2021-09-20)"
   xmlns:inkscape="http://www.inkscape.org/namespaces/inkscape"
   xmlns:sodipodi="http://sodipodi.sourceforge.net/DTD/sodipodi-0.dtd"
   xmlns="http://www.w3.org/2000/svg"
   xmlns:svg="http://www.w3.org/2000/svg">
  <sodipodi:namedview
     id="namedview14"
     pagecolor="#505050"
     bordercolor="#ffffff"
     borderopacity="1"
     inkscape:pageshadow="0"
     inkscape:pageopacity="0"
     inkscape:pagecheckerboard="1"
     inkscape:document-units="mm"
     showgrid="false"
     inkscape:zoom="2.2073151"
     inkscape:cx="635.16079"
     inkscape:cy="547.95077"
     inkscape:window-width="1920"
     inkscape:window-height="1058"
     inkscape:window-x="0"
     inkscape:window-y="22"
     inkscape:window-maximized="1"
     inkscape:current-layer="layer1" />
  <defs
     id="defs2170" />
  <g
     id="layer1"
     transform="translate(61.670625,-83.821544)">
    <path
       style="fill:#1a83ab;fill-opacity:1;stroke-width:0.264583;opacity:0.35"
       d="m -11.309093,256.01066 c -1.527969,-0.87514 -3.157135,-1.87845 -3.620368,-2.22959 -0.463232,-0.35113 -0.939482,-0.64048 -1.058333,-0.643 -0.118851,-0.003 -0.509048,-0.31323 -0.867106,-0.69048 -0.35806,-0.37724 -1.072435,-0.99885 -1.5875,-1.38133 -3.402496,-2.52667 -11.825292,-10.76633 -13.752025,-13.45302 -0.397211,-0.55388 -2.309101,-3.7276 -4.248647,-7.0527 -4.400119,-7.54345 -6.822414,-13.42199 -8.471186,-20.55833 -1.444665,-6.25287 -2.366248,-16.22285 -1.609947,-17.4169 0.370758,-0.58535 0.685501,-0.19756 2.39214,2.94732 0.887518,1.63546 2.401012,4.04288 3.36332,5.34984 1.768152,2.4014 2.736736,4.24308 2.736736,5.20367 0,0.28855 0.129638,0.76686 0.288084,1.06292 0.246739,0.46103 0.452358,0.51365 1.432697,0.36664 l 1.144614,-0.17164 0.867659,1.45062 c 0.47721,0.79785 1.062326,1.50154 1.300252,1.56376 0.237929,0.0622 1.057955,-0.015 1.822278,-0.17155 1.935065,-0.39639 2.995875,0.19774 4.080865,2.28558 0.84428,1.62465 0.977325,2.91444 0.579866,5.62149 -0.193654,1.31896 -0.183984,1.34372 1.024654,2.62326 1.246193,1.31929 2.540281,3.66552 2.540281,4.60561 0,0.28786 0.551248,2.17046 1.224999,4.18357 0.981287,2.93201 1.4228,3.87632 2.219219,4.74651 1.397667,1.52712 1.616224,2.02557 2.133939,4.86682 l 0.458002,2.51354 1.41369,1.18993 c 4.541779,3.8229 6.1960968,5.89787 6.8562693,8.59965 0.1777867,0.72761 0.4844547,1.64443 0.6814819,2.03739 0.5129663,1.02307 0.4569619,2.94841 -0.1047882,3.60248 -0.4604411,0.5361 -0.4785016,0.53024 -3.241146,-1.05206 z m 47.47714,-9.1917 c -2.72125,-0.33294 -4.345313,-2.25513 -5.783114,-6.84471 -0.74408,-2.37517 -1.914949,-5.488 -2.462324,-6.54626 -1.062019,-2.05325 -1.607775,-4.64537 -1.9212,-9.12493 -0.463281,-6.62136 -1.363621,-9.03559 -5.20912,-13.9681 -2.367999,-3.03737 -3.460056,-5.20984 -3.823247,-7.60576 -0.352941,-2.32829 -0.728218,-2.91884 -2.003195,-3.15225 -0.553977,-0.10141 -1.646793,-0.62195 -2.428481,-1.15674 -1.350229,-0.92377 -1.528715,-0.97236 -3.5718748,-0.97236 -1.7207097,0 -2.3754106,0.11901 -3.275105,0.59532 -3.420491,1.81085 -3.1598208,1.73417 -5.89545901,1.73417 -2.57737239,0 -2.62921749,-0.0128 -5.20002819,-1.27865 -2.2920854,-1.12865 -2.9262281,-1.60888 -5.405784,-4.0938 -1.544995,-1.54834 -3.132201,-3.30343 -3.527121,-3.90019 -1.016254,-1.53566 -1.902166,-5.10481 -1.733587,-6.98424 0.129302,-1.44153 -0.006,-4.10839 -0.410419,-8.08954 -0.313264,-3.0838 1.039231,-6.92343 2.896645,-8.22335 4.0020878,-2.8009 4.9218324,-3.79907 4.9223165,-5.34205 5.292e-4,-1.53584 1.4685619,-3.82902 4.1764162,-6.52365 3.50378175,-3.48667 4.48976476,-3.98675 10.6271746,-5.38996 2.6850604,-0.61389 5.3307797,-1.27453 5.8793777,-1.46809 0.548598,-0.19355 1.98329,-0.43191 3.188205,-0.52967 2.745838,-0.2228 3.808339,0.16039 4.941628,1.78221 1.613149,2.30851 2.558206,3.42363 3.333864,3.9338 0.436563,0.28713 1.199637,0.81977 1.695717,1.18363 0.496083,0.36387 1.348791,0.79545 1.894906,0.95907 0.870313,0.26075 1.151031,0.21975 2.273033,-0.33196 1.126601,-0.55397 1.629074,-0.6263 4.190511,-0.60319 2.921759,0.0264 4.18919,0.23658 11.874066,1.96935 4.832037,1.08952 5.961567,1.02049 6.702022,-0.40962 0.446384,-0.86214 0.647801,-2.9073 0.454547,-4.61543 -0.176247,-1.55781 -0.20356,-1.60247 -1.138939,-1.86229 -0.5271,-0.14641 -1.553676,-0.26777 -2.28128,-0.26968 -1.780246,-0.005 -4.427196,-0.4517 -5.70716,-0.96384 -1.250712,-0.50043 -2.102758,-1.60576 -2.28496,-2.96418 -0.119521,-0.89109 -0.03959,-1.06478 0.776404,-1.68717 1.75859,-1.34134 3.281579,-1.57062 9.924055,-1.49399 6.058312,0.0699 7.51786,-0.0858 8.664696,-0.92442 0.809731,-0.59208 0.262387,-1.34069 -2.520632,-3.44755 -1.661716,-1.25798 -2.66528,-2.2253 -2.987225,-2.87929 -0.557213,-1.13199 -0.709348,-1.18269 -1.367261,-0.4557 -0.577623,0.63826 -1.403506,0.67143 -2.720478,0.10926 -2.211795,-0.94415 -2.128641,-0.93864 -2.495486,-0.16523 -0.207502,0.43748 -0.871009,0.97553 -1.700382,1.37888 -1.795127,0.87303 -2.134423,1.18786 -2.892544,2.68394 -0.552823,1.09094 -0.872734,1.36993 -2.36061,2.0586 -1.292529,0.59825 -1.721125,0.93053 -1.721125,1.33434 0,0.74082 -0.921533,1.59604 -1.719792,1.59604 -0.928735,0 -0.880676,1.02399 0.132292,2.81887 0.450442,0.79814 0.79375,1.79545 0.79375,2.30584 0,0.87246 -0.05592,0.92013 -1.86722,1.59151 -1.998795,0.74088 -3.650464,0.88943 -4.16528,0.37461 -0.174625,-0.17462 -0.317664,-0.97829 -0.317862,-1.78593 -7.94e-4,-3.55924 -1.322221,-8.01012 -2.858286,-9.62798 -0.960469,-1.01162 -2.528189,-1.89363 -4.269097,-2.40181 -1.415296,-0.41314 -1.849549,-0.30692 -1.864037,0.45595 -0.0063,0.32991 1.551437,1.70297 3.277967,2.88939 3.163959,2.1742 4.317932,3.64873 3.193259,4.08031 -0.529857,0.20333 -1.712777,2.23493 -1.712777,2.94161 0,0.60611 -0.708599,1.45719 -1.103606,1.32553 -0.136639,-0.0455 -0.57698,-1.03313 -0.978533,-2.19463 -0.673356,-1.94768 -0.83159,-2.17737 -2.035961,-2.95537 -0.718222,-0.46396 -2.164455,-1.47599 -3.213851,-2.24896 -3.455011,-2.54491 -4.882973,-3.03953 -6.169072,-2.13688 -0.359802,0.25252 -1.309029,0.77803 -2.109394,1.16778 -1.783376,0.86846 -2.343211,1.35501 -4.7495404,4.12786 -2.1019161,2.42208 -4.1054866,3.91537 -6.6291803,4.94084 -2.37664887,0.96572 -4.4962788,0.9068 -4.4962788,-0.12498 0,-0.26689 -0.1032854,-0.54908 -0.2295208,-0.6271 -0.126238,-0.078 -0.444881,-1.74477 -0.7080964,-3.7039 -0.5881688,-4.37776 -0.409202,-5.30652 1.2548288,-6.51193 1.0448263,-0.75687 1.1918076,-0.78605 3.9601007,-0.78605 h 2.8749995 l 0.4317418,-0.90537 c 0.3724195,-0.78097 0.3865906,-1.09907 0.1031425,-2.3151 -0.463894,-1.99018 -0.6377728,-3.93951 -0.372274,-4.17348 0.1241372,-0.1094 1.1782028,-0.0844 2.3423694,0.0555 2.2570519,0.27124 2.6922703,0.17599 4.279098,-0.93649 0.461733,-0.32371 1.473764,-0.94575 2.248959,-1.38231 0.775194,-0.43656 2.064287,-1.46275 2.864651,-2.28042 1.578711,-1.61284 3.918776,-3.21777 5.120254,-3.51172 1.528373,-0.37393 8.038253,-0.99453 10.020376,-0.95527 2.618568,0.0519 2.938799,-0.0642 3.995905,-1.44866 0.822788,-1.07758 3.569578,-3.3753 4.857009,-4.06295 0.317854,-0.16978 0.966745,-0.30869 1.441979,-0.30869 1.593273,0 0.40218,-0.4512 -2.110409,-0.79945 -1.617303,-0.22417 -2.520723,-0.47018 -2.613393,-0.71167 -0.07789,-0.20299 0.0062,-1.04736 0.18687,-1.87637 0.180673,-0.82901 0.387048,-1.86448 0.45861,-2.30105 0.156255,-0.9532 0.726575,-1.45521 1.653246,-1.45521 0.980165,0 1.907561,-0.72509 1.809295,-1.41461 -0.129468,-0.90844 -1.293847,-0.86237 -3.145327,0.12446 -2.661811,1.41873 -3.447941,2.96337 -2.885948,5.67048 0.384786,1.8535 0.258358,2.01494 -2.768806,3.53567 -1.226585,0.61619 -2.385997,1.3087 -2.57647,1.5389 -0.55793,0.6743 -2.374323,1.38093 -3.565821,1.38721 -1.57947,0.008 -1.93987,-0.19571 -1.93987,-1.09822 0,-1.50888 -0.368361,-1.80639 -2.236629,-1.80639 -0.928862,0 -1.873935,-0.071 -2.100159,-0.15783 -0.757219,-0.29057 -0.80251,-1.79846 -0.100105,-3.33271 0.693346,-1.51446 1.116888,-1.8145 4.040018,-2.86188 4.424447,-1.58533 6.498302,-2.92528 10.476436,-6.76899 2.666995,-2.57687 3.593291,-3.310584 4.481473,-3.549746 2.730553,-0.735261 6.207218,-0.413795 8.803373,0.813986 0.884923,0.41851 2.247487,0.90382 3.027921,1.07847 2.260181,0.50581 2.425075,1.82078 0.413168,3.29488 -0.554742,0.40645 -1.104509,0.81765 -1.221706,0.91377 -0.117195,0.0961 -0.134054,0.48964 -0.03746,0.87449 0.238162,0.94892 1.374568,0.95551 2.254948,0.0131 2.577653,-2.7593 12.018039,-5.12258 20.485182,-5.1282 6.723247,-0.004 12.032853,2.0519 24.249406,9.39158 3.339518,2.00638 4.205314,2.68467 7.193804,5.63593 3.47557,3.43224 6.48375,6.94456 8.76528,10.2342 0.70646,1.01865 2.01673,2.62599 2.91171,3.57188 3.55283,3.75498 6.42007,8.07145 9.65767,14.53907 4.59073,9.17074 6.78193,15.5294 7.79997,22.63488 0.22934,1.60073 0.59184,3.6248 0.80555,4.49792 0.2137,0.87313 0.39042,2.42995 0.39269,3.45961 0.004,1.65557 -0.0721,1.94368 -0.65455,2.49091 -0.63101,0.5928 -0.68025,0.59929 -1.17168,0.15457 -0.60963,-0.55173 -1.47728,-0.3637 -1.8913,0.40986 -0.28442,0.53147 -0.23786,1.36661 0.33198,5.95425 0.29,2.33463 0.27654,2.47826 -0.40413,4.31461 -0.38727,1.04478 -0.70411,2.24997 -0.70411,2.6782 0,0.76232 -0.48577,1.42336 -1.4596,1.9862 -0.60058,0.34712 -0.88847,2.5827 -0.90805,7.05134 -0.0127,2.86743 -0.0551,3.12174 -0.5674,3.39593 -0.79668,0.42637 -1.65341,0.1226 -2.55714,-0.90671 -1.0396,-1.18403 -1.22497,-2.58908 -0.75483,-5.72106 0.32149,-2.14162 0.3243,-2.88547 0.0191,-5.02708 -0.38428,-2.69508 -0.82413,-4.92949 -1.03868,-5.27665 -0.0728,-0.11781 0.11356,-1.33025 0.41415,-2.6943 0.78116,-3.54464 0.62633,-5.0195 -0.75001,-7.14505 -0.60013,-0.92678 -1.23775,-2.01247 -1.41692,-2.41265 -0.27959,-0.62433 -0.48149,-0.7276 -1.42256,-0.7276 -1.29373,0 -2.37826,0.70808 -3.70176,2.4169 -1.85084,2.38969 -2.77421,7.10896 -2.78853,14.25185 -0.0114,5.71092 -0.3479,6.35554 -2.91557,5.58624 -1.6841,-0.50456 -2.09825,-1.2182 -2.50492,-4.31627 -0.4,-3.0475 -0.8958,-5.14544 -1.73826,-7.35539 -0.30512,-0.80037 -0.65323,-1.75287 -0.77356,-2.11667 -0.12033,-0.3638 -0.43884,-1.07818 -0.70779,-1.5875 -0.37147,-0.70351 -0.49307,-1.53006 -0.50607,-3.43958 -0.0188,-2.76838 0.13772,-2.57543 -1.78337,-2.1981 -0.62433,0.12262 -0.92292,-0.0429 -1.880812,-1.04262 -0.626268,-0.65361 -1.209198,-1.47175 -1.295426,-1.8181 -0.08623,-0.34635 -0.314113,-1.33327 -0.506465,-2.19316 -0.484505,-2.16615 -0.990547,-2.49098 -4.17412,-2.67936 -2.940817,-0.174 -5.585089,-0.54222 -7.805208,-1.08687 -3.287792,-0.80659 -7.679134,-2.2846 -8.996151,-3.02788 -0.750967,-0.42382 -1.432322,-0.77058 -1.514131,-0.77058 -0.427223,0 -0.414099,0.97593 0.02649,1.97197 0.653865,1.47816 1.832107,2.34133 4.292071,3.14435 3.056546,0.99775 5.034227,2.10541 5.794851,3.24556 0.569066,0.85303 0.661458,1.28987 0.661458,3.12783 0,2.92809 -0.929322,4.82199 -3.904191,7.95647 -2.381171,2.50894 -3.601429,3.26773 -6.584236,4.09431 -2.902532,0.80434 -6.363652,0.58826 -7.677256,-0.47929 -2.94976,-2.39722 -4.094506,-4.05245 -7.165763,-10.3612 -1.239758,-2.54661 -2.743914,-5.35852 -3.342561,-6.24869 -1.223406,-1.81918 -3.517344,-4.06895 -3.672919,-3.60223 -0.137663,0.41305 1.386655,3.5629 2.181172,4.50712 0.920724,1.09422 2.91973,4.54191 3.586745,6.186 1.915583,4.72177 4.043442,8.89559 4.654655,9.13013 0.198438,0.0761 0.360813,0.28586 0.360813,0.46601 0,1.0157 3.530415,2.3307 7.837249,2.91921 4.686856,0.64043 4.23889,0.40189 4.601475,2.45027 0.502655,2.83959 -0.06204,4.54809 -2.50624,7.58288 -1.981914,2.46066 -5.19131,5.71346 -5.637344,5.71346 -0.136658,0 -1.738154,1.45852 -3.558858,3.24115 -2.504096,2.45173 -3.512449,3.64207 -4.140041,4.88724 -0.806106,1.59936 -0.829601,1.74589 -0.827087,5.15938 0.0026,3.18546 0.06405,3.64533 0.661458,4.92861 0.362373,0.77843 0.658865,1.67404 0.658865,1.99024 0,0.9283 -1.486217,2.4666 -3.389365,3.50815 -2.449354,1.34045 -5.002519,3.90978 -7.496789,7.54422 -1.162894,1.69447 -3.088537,4.13558 -4.279204,5.4247 -1.190667,1.28912 -2.612255,2.95603 -3.159085,3.70425 -1.51325,2.07058 -3.03045,2.48471 -7.223416,1.97171 z m 42.018172,-95.84609 c 1.328287,-0.69593 1.935294,-3.47626 1.491509,-6.83166 -0.333746,-2.5234 -0.621983,-3.06695 -2.842948,-5.36122 -1.46304,-1.51134 -1.467935,-1.52185 -1.134401,-2.4442 0.419788,-1.16093 -0.02884,-2.27841 -1.01989,-2.54044 -0.905721,-0.23947 -3.962955,-0.005 -4.716832,0.36129 -0.823198,0.40028 -1.103207,0.98564 -1.654466,3.45865 -0.507604,2.27716 -0.44876,2.70214 0.475535,3.43353 0.768509,0.60812 1.271482,1.58652 1.518153,2.9532 0.39407,2.18341 1.725798,4.98684 2.811436,5.91846 1.737677,1.49112 3.526181,1.86223 5.071904,1.05239 z m 6.273323,-12.56296 c 0.402908,-0.23801 0.937313,-0.77937 1.187583,-1.20304 0.410606,-0.69509 0.415845,-0.83012 0.05366,-1.3829 -0.640053,-0.97682 -3.786637,-1.20433 -4.86873,-0.35203 -0.181901,0.14328 -0.330729,0.65206 -0.330729,1.13063 0,1.76031 2.277427,2.8002 3.958219,1.80734 z m 15.072863,-1.80643 c 2.423315,-1.25316 0.353959,-5.36889 -2.395776,-4.76495 -0.549116,0.12061 -0.925036,0.46895 -1.300639,1.20519 -0.664051,1.30165 -0.483631,2.10239 0.709798,3.15024 1.001236,0.87911 1.852745,0.99586 2.986617,0.40952 z M 61.778216,238.71426 c -0.787824,-0.55708 -1.317652,-1.8754 -1.538605,-3.82831 l -0.179388,-1.58557 0.95549,-0.39923 c 0.603647,-0.25222 0.999305,-0.61786 1.074473,-0.99293 0.06543,-0.32653 0.27305,-1.5346 0.461354,-2.6846 0.399256,-2.43833 0.898551,-3.20241 2.259436,-3.45772 1.585859,-0.2975 2.298726,-0.80184 3.331051,-2.35661 1.003379,-1.51122 1.834462,-1.92954 3.394948,-1.70886 0.54446,0.077 0.640662,0.25319 0.70866,1.29817 0.06617,1.01637 -0.08609,1.48035 -0.955384,2.9112 -1.453859,2.3931 -2.441019,4.40892 -3.868314,7.89929 -0.680085,1.66305 -1.561306,3.50852 -1.958261,4.10104 -0.643228,0.96007 -0.85045,1.0855 -1.904047,1.15256 -0.762847,0.0486 -1.394831,-0.0751 -1.781413,-0.34843 z M -15.079411,122.41728 c -0.548436,-0.31943 -1.257376,-1.60752 -1.255289,-2.28076 0.0049,-1.5761 0.538941,-2.39055 2.413021,-3.67989 3.56574,-2.45319 9.5159542,-6.18517 11.4761278,-7.19784 4.9984818,-2.58234 9.1943157,-4.31081 15.8509072,-6.52978 9.693288,-3.231248 11.256179,-3.545994 11.711823,-2.3586 0.119338,0.31098 -0.524902,1.10084 -2.279536,2.79475 -2.223429,2.1465 -2.764975,2.51468 -5.954239,4.04809 -5.001284,2.40465 -7.8095447,3.52431 -10.290106,4.1027 -3.087206,0.71984 -5.80995099,1.75386 -7.7582341,2.94634 -0.9277456,0.56784 -1.7499648,1.03244 -1.8271517,1.03244 -0.3202199,0 -3.0368954,1.87477 -4.3696016,3.01546 -0.788625,0.67499 -2.0074334,1.71833 -2.7084686,2.31851 -2.186193,1.87172 -3.847869,2.46503 -5.009253,1.78858 z"
       id="path1053" />
    <path
       id="path1849"
       style="opacity:0.35;fill:none;fill-opacity:0;stroke:#1a83ab;stroke-width:6.615;stroke-linecap:round;stroke-linejoin:round;stroke-miterlimit:7.4;stroke-dasharray:none;stroke-opacity:1"
       d="m 127.6581,242.70676 c -3.65504,5.30867 -7.81703,10.25366 -12.41781,14.7681 -9.20154,9.02888 -20.158223,16.33556 -32.324788,21.38502 -12.166566,5.04946 -25.543016,7.8417 -39.5841,7.8417 -56.164337,0 -101.694527,-44.67584 -101.694527,-99.78627 2e-6,-55.11043 45.530192,-99.786264 101.694527,-99.786266 56.164336,1e-6 101.694528,44.675836 101.694528,99.786266 m -15.5294,68.01036 2.52966,-20.9036 -17.78715,11.07088"
       sodipodi:nodetypes="cssssscccc" />
  </g>
</svg>
