<?xml version="1.0" encoding="UTF-8" standalone="no"?>
<!-- Created with Inkscape (http://www.inkscape.org/) -->

<svg
   width="79.079941mm"
   height="77.224022mm"
   viewBox="0 0 79.079941 77.224022"
   version="1.1"
   id="svg1808"
   inkscape:version="1.1.1 (3bf5ae0d25, 2021-09-20)"
   sodipodi:docname="disc.svg"
   xmlns:inkscape="http://www.inkscape.org/namespaces/inkscape"
   xmlns:sodipodi="http://sodipodi.sourceforge.net/DTD/sodipodi-0.dtd"
   xmlns="http://www.w3.org/2000/svg"
   xmlns:svg="http://www.w3.org/2000/svg">
  <sodipodi:namedview
     id="namedview1810"
     pagecolor="#505050"
     bordercolor="#ffffff"
     borderopacity="1"
     inkscape:pageshadow="0"
     inkscape:pageopacity="0"
     inkscape:pagecheckerboard="1"
     inkscape:document-units="mm"
     showgrid="false"
     inkscape:zoom="1.5411756"
     inkscape:cx="204.38943"
     inkscape:cy="121.66037"
     inkscape:window-width="1900"
     inkscape:window-height="1038"
     inkscape:window-x="10"
     inkscape:window-y="32"
     inkscape:window-maximized="0"
     inkscape:current-layer="layer1" />
  <defs
     id="defs1805" />
  <g
     inkscape:label="Layer 1"
     inkscape:groupmode="layer"
     id="layer1"
     transform="translate(-130.06315,-43.105909)">
    <path
       style="opacity:0.35;fill:#1a83ab;fill-opacity:1;stroke-width:0.0951057"
       d="m 165.93268,120.15231 c -0.62004,-0.21417 -0.87242,-0.44512 -1.24164,-1.13617 -0.32497,-0.60823 -0.78993,-1.09654 -1.18647,-1.24604 -0.14726,-0.0555 -0.55383,-0.1 -0.90351,-0.0988 -0.76698,0.003 -1.20528,0.19043 -1.86482,0.79948 -0.51366,0.47435 -0.85986,0.58544 -1.56149,0.50106 -1.40255,-0.16866 -6.65555,-2.21536 -8.72554,-3.39968 -0.92221,-0.52764 -1.37075,-1.26918 -1.37075,-2.26617 0,-0.5236 -0.14157,-0.85231 -0.55252,-1.28285 -0.64492,-0.67565 -1.33354,-0.79129 -2.55545,-0.42913 -1.20633,0.35754 -1.5336,0.18153 -3.72141,-2.00135 -2.57389,-2.56808 -3.28792,-3.35546 -4.00652,-4.41818 -0.075,-0.11102 -0.29961,-0.41962 -0.49901,-0.68579 -0.48606,-0.64884 -0.54388,-1.10072 -0.26709,-2.08717 0.26977,-0.96139 0.22935,-1.80067 -0.10621,-2.20588 -0.36169,-0.436738 -0.82164,-0.687078 -1.3837,-0.753138 -0.31166,-0.0366 -0.54547,-0.1151 -0.57541,-0.19311 -0.0303,-0.0789 -0.12155,-0.10884 -0.22856,-0.0749 -0.28267,0.0897 -1.15285,-0.79911 -1.52392,-1.55659 -0.39256,-0.80137 -0.68886,-1.46665 -0.89662,-2.01318 -0.0895,-0.23539 -0.21619,-0.55637 -0.28158,-0.71329 -0.66746,-1.6019 -1.72,-5.57654 -1.59926,-6.0392 0.0635,-0.24336 0.35738,-0.68509 0.9348,-1.40521 0.38229,-0.47676 0.52274,-0.91668 0.52298,-1.63817 1.8e-4,-0.69903 -0.20463,-1.01054 -1.09995,-1.67267 -0.871,-0.64414 -1.09371,-1.05158 -1.16341,-2.12839 -0.11345,-1.7531 0.57243,-7.4759 1.04336,-8.70531 0.17505,-0.45701 0.74386,-0.99058 1.42364,-1.33544 0.77668,-0.39403 1.26307,-0.93592 1.41736,-1.57913 0.14409,-0.60064 0.0773,-0.92229 -0.33126,-1.59483 -0.18055,-0.29721 -0.38076,-0.73663 -0.44491,-0.97649 -0.10462,-0.39125 -0.0942,-0.49839 0.1029,-1.04157 0.5152,-1.42106 1.90474,-3.94585 3.34289,-6.07402 1.45022,-2.14601 1.60675,-2.27485 2.96034,-2.43669 1.94604,-0.23267 2.52535,-0.91324 2.39424,-2.81274 l -0.0611,-0.88487 0.5785,-0.62909 c 1.396,-1.51805 4.33669,-3.79019 6.42392,-4.96345 1.54442,-0.86814 1.54108,-0.86752 2.63295,-0.48388 1.61783,0.56845 2.74785,0.0962 3.22891,-1.34938 0.15342,-0.46103 0.33885,-0.78035 0.64019,-1.10252 0.41485,-0.44351 0.46652,-0.4671 2.33973,-1.06823 2.92208,-0.93773 5.49731,-1.48354 6.99653,-1.48289 0.90777,4e-4 1.07009,0.0673 1.81415,0.74727 0.58722,0.53666 0.99519,0.71763 1.6168,0.71714 0.77002,-5.7e-4 1.11474,-0.16037 1.85456,-0.85958 0.92682,-0.87593 1.12603,-0.98465 1.80701,-0.98617 1.24062,-0.003 4.97131,0.51057 6.89518,0.94876 2.1944,0.49981 2.65556,0.78187 3.1878,1.94979 0.32446,0.71199 0.80572,1.22988 1.26013,1.35604 0.64403,0.17881 1.37741,0.0836 2.23592,-0.29034 1.00995,-0.43986 1.02455,-0.43794 2.56913,0.33771 1.44109,0.72368 2.36123,1.25924 3.9629,2.30654 2.06372,1.34944 2.8398,1.97305 3.25081,2.61214 0.24673,0.38367 0.27191,0.50064 0.27191,1.26321 0,0.93984 0.12299,1.33737 0.53632,1.73356 0.44031,0.42205 0.79848,0.52729 1.79451,0.52729 0.71193,0 0.98726,0.0398 1.26321,0.18267 1.07741,0.55774 3.70748,4.10356 5.53797,7.46619 0.54878,1.00814 0.56093,1.51157 0.0604,2.50128 -0.71603,1.41573 -0.29984,2.42238 1.24564,3.01295 0.88456,0.338 1.43395,0.90515 1.71753,1.77306 0.65155,1.99405 1.25396,5.16087 1.44516,7.597 0.12865,1.63933 0.0851,1.77084 -0.89976,2.71736 -0.43541,0.41847 -0.83919,0.85433 -0.89729,0.96858 -0.0581,0.11425 -0.10568,0.48035 -0.10568,0.81355 0,0.69403 0.24184,1.16192 0.94683,1.83188 0.48686,0.46266 0.63148,0.72459 0.71777,1.30005 0.20918,1.39489 -1.49644,8.10094 -2.48682,9.77752 -0.22723,0.38465 -0.71879,0.66963 -1.56879,0.90949 -0.9327,0.26319 -1.20218,0.44413 -1.48457,0.99678 -0.27231,0.53292 -0.27674,1.16411 -0.0132,1.87877 0.54355,1.473928 0.5303,1.538788 -0.6805,3.330628 -1.56689,2.31879 -2.53081,3.48402 -4.45254,5.38252 l -1.43352,1.41617 -0.88289,-0.073 c -1.86301,-0.15412 -2.40733,-0.0113 -2.96074,0.77697 -0.24375,0.34719 -0.2897,0.52091 -0.36109,1.36512 -0.0851,1.00678 -0.23272,1.456 -0.58602,1.78378 -0.67178,0.62325 -4.56524,2.76446 -6.43805,3.54061 -2.0687,0.85733 -2.35845,0.94909 -2.99697,0.94909 -0.66536,0 -0.84118,-0.0646 -1.6406,-0.60281 -0.93997,-0.63283 -2.12924,-0.56364 -2.82824,0.16456 -0.20924,0.21797 -0.46564,0.56624 -0.56979,0.77393 -0.27609,0.55056 -0.78456,1.16836 -1.09278,1.32775 -0.68105,0.35219 -3.86195,0.62178 -7.27737,0.61679 -2.32445,-0.003 -2.72685,-0.026 -3.16555,-0.17749 z m 5.29862,-0.72018 c 0.46193,-0.23887 0.53863,-0.85937 0.15378,-1.24421 -0.47741,-0.47741 -1.16389,-0.20605 -1.25824,0.49737 -0.0453,0.33794 -0.0172,0.43191 0.19188,0.64099 0.27818,0.27818 0.52416,0.30671 0.91258,0.10585 z m -3.63162,-0.76592 c 1.00215,-0.29761 1.43714,-1.43888 0.92552,-2.42826 -0.12229,-0.23646 -0.83485,-0.82366 -2.21603,-1.82615 -0.48722,-0.35364 -0.70222,-0.45175 -0.98994,-0.45175 -0.72608,0 -1.21406,0.47276 -1.21406,1.1762 0,0.29355 0.49336,1.39007 0.7686,1.70823 0.10088,0.11667 0.69832,0.9345 0.9433,1.29137 0.2328,0.33913 0.63815,0.55596 1.24288,0.66484 0.0297,0.005 0.27262,-0.0552 0.53973,-0.13448 z m 8.11202,-0.45019 c 0.57813,-0.29154 0.88019,-0.86639 0.82662,-1.57319 -0.0651,-0.85875 -0.42601,-1.17743 -2.25683,-1.99269 -1.3388,-0.59616 -1.51779,-0.64241 -1.94303,-0.50208 -0.56897,0.18778 -0.88348,0.84007 -0.70927,1.47102 0.0844,0.30551 1.31478,1.63031 2.11251,2.27455 0.70703,0.57099 1.28835,0.66612 1.97,0.32239 z m -15.43914,-1.08198 c 0.45735,-0.34145 0.6319,-0.66632 0.67451,-1.25536 0.055,-0.7596 0.0384,-0.78899 -1.45306,-2.57633 -0.62268,-0.74624 -0.7623,-0.86946 -1.0831,-0.95584 -0.7847,-0.2113 -1.53378,0.33107 -1.53378,1.11053 0,0.2104 0.0821,0.59153 0.18251,0.84697 1.06698,2.71515 1.04121,2.66674 1.56028,2.93192 0.41151,0.21023 1.30867,0.15493 1.65264,-0.10189 z m -4.89031,-0.6947 c 0.0932,-0.0883 0.19434,-0.31369 0.22471,-0.50083 0.0631,-0.38877 -0.16058,-0.69177 -0.59026,-0.79961 -0.3043,-0.0764 -0.71342,0.19803 -0.84466,0.56654 -0.26453,0.74271 0.62902,1.28457 1.21021,0.7339 z m 28.02185,-0.24041 c 0.72352,-0.37415 0.96732,-1.59765 0.45278,-2.27224 -0.36737,-0.48167 -0.5654,-0.56317 -2.33108,-0.95941 -1.3224,-0.29677 -1.60105,-0.33264 -1.87674,-0.24166 -0.62657,0.20679 -0.89486,0.97646 -0.56362,1.61699 0.0791,0.15291 0.43215,0.46493 0.78461,0.69338 2.07952,1.34782 2.23768,1.42273 2.85371,1.35169 0.22322,-0.0257 0.52937,-0.11068 0.68034,-0.18875 z m 3.81405,-0.97948 c 0.2512,-0.31933 0.23686,-0.6082 -0.0453,-0.91265 -0.30454,-0.3286 -0.73717,-0.33607 -1.05502,-0.0182 -0.28364,0.28362 -0.29804,0.60985 -0.0413,0.93618 0.31555,0.40115 0.82379,0.39878 1.14166,-0.005 z m -34.31989,-0.93459 c 0.14295,-0.0739 0.37981,-0.2916 0.52637,-0.48374 0.2296,-0.30102 0.2664,-0.43588 0.26607,-0.97493 -3.8e-4,-0.58088 -0.0405,-0.70037 -0.55971,-1.67175 -0.91617,-1.71364 -1.13505,-1.94967 -1.80796,-1.94967 -0.3696,0 -0.89758,0.3286 -1.09602,0.68215 -0.12566,0.22389 -0.11792,0.39685 0.0744,1.66221 0.11808,0.77677 0.25709,1.57448 0.30892,1.77268 0.25503,0.97528 1.36266,1.44152 2.28791,0.96305 z m 23.97486,-0.52585 c 0.40579,-0.48875 0.0314,-1.32065 -0.59441,-1.32065 -0.58448,0 -0.99798,0.80768 -0.64196,1.25392 0.32331,0.40527 0.92819,0.43792 1.23637,0.0667 z m -14.38213,0.0401 c 0.3286,-0.22488 0.37469,-0.31288 0.37634,-0.71859 10e-4,-0.27785 -0.072,-0.43422 -0.3314,-0.70933 -0.18309,-0.19409 -0.33288,-0.30594 -0.33288,-0.24855 0,0.0574 -0.0535,0.10237 -0.11887,0.0999 -0.31072,-0.0115 -0.42054,0.0508 -0.62926,0.35732 -0.18666,0.2741 -0.21438,0.40159 -0.16252,0.7474 0.0448,0.29855 0.12217,0.44575 0.2726,0.5184 0.31367,0.15149 0.66216,0.13395 0.92599,-0.0466 z m 27.85661,-1.14693 c 0.45492,-0.23197 0.69142,-0.59568 0.74416,-1.14442 0.0562,-0.58505 -0.15647,-1.07164 -0.62442,-1.42865 l -0.33578,-0.25617 h -1.89354 -1.89356 l -0.27759,0.31059 c -0.39849,0.44588 -0.38694,0.95696 0.0315,1.39422 0.28877,0.30176 0.72911,0.49259 2.82941,1.22617 0.32307,0.11284 1.10951,0.0565 1.41981,-0.10174 z m -17.87313,-0.41606 c 1.85465,-0.22305 2.25426,-0.39809 2.53218,-1.10913 0.29287,-0.74925 -0.0974,-1.73972 -1.22052,-3.09782 -0.55516,-0.6713 -1.46948,-1.79697 -1.69208,-2.08322 -0.0785,-0.10089 -0.42248,-0.53237 -0.76447,-0.95884 -0.34201,-0.42647 -0.81254,-1.03218 -1.04564,-1.34603 -0.23308,-0.31385 -0.45077,-0.59203 -0.48372,-0.61818 -0.0654,-0.0519 -0.62106,-0.78114 -2.10145,-2.75806 -0.86959,-1.161228 -1.25308,-1.677678 -2.36587,-3.186038 -0.4294,-0.58205 -1.70378,-2.4069 -3.02008,-4.32459 -1.24003,-1.8066 -1.66566,-2.1489 -2.79919,-2.25118 -1.25412,-0.11316 -2.22688,0.58132 -2.7653,1.9742 -1.4588,3.77396 -2.05453,7.0831 -1.92338,10.684038 0.0951,2.61088 0.0983,2.66387 0.16272,2.71479 0.0331,0.0262 0.0891,0.30434 0.12441,0.61819 0.20845,1.85256 0.87031,2.95138 2.12696,3.5312 0.38214,0.17631 0.77935,0.32057 0.88272,0.32057 0.10333,0 0.21095,0.06 0.23909,0.13331 0.0281,0.0733 0.20325,0.16184 0.38913,0.19672 0.1859,0.0349 0.40762,0.0991 0.49272,0.14273 0.1282,0.0657 0.89174,0.31358 1.05824,0.34351 0.0262,0.005 0.12229,0.0415 0.21363,0.0817 0.0913,0.0402 0.26913,0.0793 0.39508,0.0869 0.12594,0.008 0.20917,0.0458 0.18494,0.0851 -0.0242,0.0392 -0.002,0.0713 0.0489,0.0713 0.0511,0 0.17134,0.0254 0.26716,0.0565 0.14489,0.047 0.1502,0.0393 0.0316,-0.0461 -0.19736,-0.14197 -0.0943,-0.13065 0.39224,0.0431 0.22888,0.0817 0.54456,0.16918 0.70147,0.19434 1.50431,0.2412 3.70141,0.5223 4.75529,0.60839 1.11956,0.0915 4.03157,0.0311 5.18326,-0.10738 z m -26.0632,-2.26837 c 0.94952,-0.48441 1.06321,-1.23753 0.4899,-3.24525 -0.32416,-1.13517 -0.44011,-1.41427 -0.67765,-1.63106 -0.31993,-0.292 -0.75128,-0.33395 -1.32972,-0.1293 -0.52877,0.18707 -0.62675,0.49409 -0.70296,2.2027 -0.0882,1.97727 0.0446,2.42336 0.84583,2.84114 0.38876,0.2027 0.93195,0.1876 1.3746,-0.0382 z m 35.53806,-0.22905 c 1.36878,-0.48946 4.45306,-2.20631 6.17004,-3.43454 2.18845,-1.56547 4.64465,-3.8676 6.26013,-5.86744 1.06427,-1.317488 1.30899,-2.103468 0.81877,-2.629658 -0.28085,-0.30147 -1.20522,-0.59458 -2.18095,-0.69159 -0.49693,-0.0494 -1.18168,-0.1309 -1.52169,-0.18111 -0.68857,-0.10168 -2.84856,-0.355 -4.08955,-0.47961 -1.27691,-0.12822 -2.76229,-0.33873 -4.61262,-0.65369 -0.94155,-0.16027 -2.39667,-0.40185 -3.23361,-0.53684 -1.98467,-0.32011 -4.83079,-0.84297 -6.32453,-1.16189 -1.44127,-0.3077 -2.26796,-0.31897 -2.81669,-0.0384 -0.59997,0.30677 -0.97205,0.66223 -1.25243,1.19649 -0.21864,0.41663 -0.25571,0.60373 -0.25686,1.29612 l -10e-4,0.80921 0.77759,1.56843 c 0.68986,1.391458 1.73356,3.123358 2.37804,3.946068 0.12292,0.15692 0.25532,0.32811 0.29423,0.38042 1.17211,1.57589 3.00127,3.416 4.70331,4.73149 1.99609,1.54275 2.66315,1.87256 3.79443,1.87608 0.39881,0.001 0.89098,-0.0571 1.09372,-0.12955 z m 7.87332,-1.69897 c 0.27206,-0.42061 0.27511,-0.67694 0.011,-0.92504 -0.70038,-0.65797 -1.67821,0.13963 -1.0892,0.88844 0.26489,0.33675 0.87075,0.35732 1.07818,0.0366 z m -39.9823,-0.38042 c 0.45825,-0.75161 -0.0368,-1.39324 -0.88718,-1.14978 -0.85103,0.24366 -0.58706,1.45887 0.31689,1.45887 0.32872,0 0.40804,-0.043 0.57029,-0.30909 z m 46.69667,0.0232 c 0.38785,-0.27617 0.59094,-0.70093 0.59927,-1.25337 0.007,-0.48984 -0.16565,-0.81371 -0.61329,-1.14792 -0.47188,-0.35232 -0.85505,-0.36116 -2.44103,-0.0564 -1.99911,0.38421 -2.20592,0.5064 -2.20592,1.30339 0,0.47062 0.34803,0.92108 0.78719,1.01889 0.85126,0.18959 2.64769,0.40861 3.08773,0.37646 0.31024,-0.0227 0.60723,-0.11377 0.78605,-0.24109 z m -54.43513,-0.31999 c 0.29238,-0.25148 0.36089,-0.77901 0.13633,-1.0496 -0.21332,-0.25702 -1.1646,-0.14259 -1.35925,0.1635 -0.13802,0.21707 -0.0728,0.52862 0.1715,0.81893 0.30375,0.36098 0.68178,0.38513 1.05142,0.0672 z m 9.47835,-1.63552 c 0.56366,-0.40867 0.83726,-1.35326 1.11379,-3.84537 0.6311,-5.687868 1.64105,-11.895128 2.94782,-18.117598 0.38819,-1.84847 0.33209,-2.32494 -0.36328,-3.08629 -0.26925,-0.29478 -1.08246,-0.67037 -1.45146,-0.67037 -0.10714,0 -0.16835,-0.0428 -0.13602,-0.0951 0.0363,-0.0587 -0.12762,-0.0951 -0.42775,-0.0951 -0.80803,0 -2.73841,0.88071 -4.89818,2.23472 -2.64314,1.65705 -5.0797,3.88121 -7.07594,6.45915 -1.15253,1.48837 -1.26191,1.71428 -1.31552,2.71709 -0.0391,0.7314 -0.0137,0.89324 0.26138,1.66604 0.56429,1.58529 2.35716,4.91449 3.40594,6.32452 0.17507,0.23538 0.41088,0.5535 0.52401,0.70692 0.11313,0.153428 0.35548,0.456058 0.53856,0.672528 0.18308,0.21646 0.44328,0.52908 0.57824,0.6947 0.13496,0.16562 0.58434,0.65523 0.99861,1.08803 0.41429,0.43279 0.89103,0.94689 1.05943,1.14244 0.1684,0.19555 0.34816,0.35555 0.39947,0.35555 0.0514,0 0.12751,0.0535 0.16934,0.11888 0.11472,0.17931 1.2373,1.12322 1.88307,1.58336 0.525,0.37408 0.60919,0.40352 1.05279,0.36816 0.27163,-0.0217 0.59287,-0.1187 0.7357,-0.22225 z m 48.20587,-0.48386 c 0.11053,-0.10002 0.17394,-0.2895 0.17394,-0.51974 0,-0.42817 -0.17634,-0.55924 -0.7524,-0.55924 -0.30488,0 -0.41665,0.0491 -0.53983,0.23707 -0.17287,0.26384 -0.12767,0.61198 0.11033,0.85 0.19595,0.19594 0.78775,0.19119 1.00796,-0.008 z m -58.86817,-0.75095 c 0.23809,-0.0811 0.52972,-0.25056 0.64806,-0.37653 0.27665,-0.2945 0.45927,-1.01055 0.41206,-1.61584 -0.0204,-0.26154 -0.0721,-0.95778 -0.11495,-1.54719 -0.0676,-0.93077 -0.10702,-1.102678 -0.29963,-1.307698 -0.19299,-0.20544 -0.30378,-0.23604 -0.85433,-0.23604 -0.81629,0 -0.93763,0.12754 -1.31196,1.379028 -0.61112,2.0432 -0.63076,2.15878 -0.45617,2.68441 0.18365,0.55292 0.57952,0.96797 1.02339,1.07296 0.46156,0.10918 0.48032,0.10814 0.95353,-0.0531 z m 60.01237,-2.62709 c 0.66342,-0.22192 1.02696,-0.75643 1.02696,-1.50994 0,-0.427178 -0.0401,-0.529838 -0.31356,-0.803318 -0.30392,-0.30391 -0.838,-0.52176 -1.28184,-0.52284 -0.46447,-0.001 -3.08675,1.122388 -3.36297,1.440878 -0.11552,0.1332 -0.17735,0.35117 -0.17735,0.62522 0,0.3429 0.0541,0.47481 0.29225,0.713 l 0.29227,0.29225 1.60529,-0.0652 c 0.88291,-0.0358 1.74644,-0.11238 1.91895,-0.17009 z m -65.16666,-2.789078 c 0,-0.0785 -0.0428,-0.14266 -0.0951,-0.14266 -0.0523,0 -0.0951,0.0642 -0.0951,0.14266 0,0.0785 0.0428,0.14266 0.0951,0.14266 0.0523,0 0.0951,-0.0642 0.0951,-0.14266 z m 1.46884,-1.21421 c 0.5667,-0.32099 0.7156,-0.66641 0.92302,-2.14118 0.24028,-1.70855 0.21307,-2.26859 -0.1224,-2.51827 -0.21438,-0.15956 -0.33617,-0.1768 -0.83778,-0.11858 -0.37891,0.044 -0.64393,0.12985 -0.74777,0.2423 -0.0885,0.0958 -0.48129,0.79764 -0.87297,1.55965 -0.62028,1.20675 -0.69697,1.4098 -0.59442,1.574 0.0647,0.10368 0.11774,0.35077 0.11774,0.54907 0,0.1983 0.0675,0.45688 0.14994,0.57462 0.35038,0.50023 1.34633,0.63993 1.98464,0.27839 z m 62.03664,-0.36166 c 0.31215,-0.61416 0.0291,-1.00827 -0.65801,-0.91611 -0.45294,0.0608 -0.6483,0.211 -0.6483,0.49863 0,0.3595 0.10795,0.5338 0.40901,0.66038 0.36794,0.15471 0.74741,0.052 0.8973,-0.2429 z m -58.56689,-0.33905 c 0.25654,-0.32611 0.26259,-0.84894 0.0114,-0.98337 -0.10216,-0.0547 -0.38282,-0.0919 -0.62374,-0.0828 -0.68009,0.0257 -0.92873,0.54037 -0.51512,1.06619 0.15203,0.19329 0.28095,0.25059 0.56374,0.25059 0.28278,0 0.41168,-0.0573 0.56372,-0.25059 z m 62.58651,-1.7928 c 1.67012,-0.48224 2.00176,-0.76026 2.02368,-1.69642 0.0219,-0.93477 -0.55802,-1.43232 -1.60129,-1.3739 -0.54907,0.0308 -0.62837,0.0693 -1.68284,0.81731 -1.2876,0.91342 -1.59273,1.2344 -1.59273,1.67547 0,0.34257 0.2895,0.77923 0.60755,0.9164 0.30826,0.13294 0.9438,0.037 2.24563,-0.33886 z m -8.03645,-1.09342 c 1.9135,-0.28149 2.52963,-0.48513 3.11617,-1.02994 0.54973,-0.51061 0.8312,-1.0676 1.34405,-2.65975 1.37237,-4.26053 1.78457,-8.81696 1.19783,-13.24076 -0.10753,-0.81077 -0.21808,-1.54791 -0.24566,-1.63808 -0.0688,-0.22534 -0.51365,-0.56105 -0.63988,-0.48304 -0.0567,0.0351 -0.29776,0.0666 -0.53568,0.0702 -0.64733,0.01 -1.31638,0.39889 -3.06348,1.78207 -5.62452,4.45295 -7.84123,6.08212 -13.20422,9.70446 -1.07232,0.72427 -2.12086,1.43343 -2.33009,1.5759 -0.25884,0.17625 -0.48181,0.45654 -0.69764,0.87696 -0.28799,0.56098 -0.31331,0.67641 -0.27475,1.25276 0.0496,0.74183 0.34406,1.32603 0.89874,1.78325 0.89095,0.73439 4.71026,1.79438 7.53946,2.09245 0.54922,0.0579 1.14839,0.1222 1.33147,0.14295 0.86455,0.098 4.30122,-0.0437 5.56368,-0.22942 z m -61.20056,-0.4772 c 0.25257,-0.25257 0.2581,-0.81292 0.009,-0.94605 -0.24526,-0.13127 -1.04275,-0.0874 -1.16865,0.0643 -0.11864,0.14296 -0.0417,0.74263 0.1202,0.9378 0.1694,0.20413 0.8137,0.16938 1.03911,-0.056 z m 32.0666,-2.00005 c 0.43273,-0.12019 0.88894,-0.62479 0.97379,-1.07706 0.0468,-0.24941 0.007,-0.47143 -0.14392,-0.82469 -0.26353,-0.61258 -0.74874,-0.89987 -1.39653,-0.82686 -0.56124,0.0633 -0.86015,0.30487 -1.08633,0.8781 -0.32233,0.81689 -0.0844,1.49292 0.63843,1.8142 0.34807,0.1547 0.56089,0.16232 1.01456,0.0363 z m 6.09228,-0.78138 c 1.01206,-0.46333 1.49674,-1.17228 1.73745,-2.54139 0.19724,-1.12184 0.51274,-1.61728 1.30783,-2.05371 0.45127,-0.2477 0.61498,-0.27982 1.68855,-0.33127 1.02662,-0.0492 1.25371,-0.0906 1.66434,-0.30312 1.0392,-0.53794 1.56713,-1.37916 1.56779,-2.49823 7.7e-4,-1.22427 -0.34768,-1.89839 -1.42574,-2.75855 -0.80113,-0.63921 -1.04032,-1.06661 -1.04346,-1.86444 -0.002,-0.41714 0.0627,-0.65562 0.29508,-1.09372 0.83162,-1.56788 0.79688,-1.47013 0.79087,-2.2246 -0.01,-1.22576 -0.65125,-2.23976 -1.7291,-2.73321 -0.43079,-0.19723 -0.62321,-0.22958 -1.17884,-0.19818 -0.36521,0.0206 -0.6936,0.0812 -0.72976,0.1345 -0.0976,0.14392 -0.93832,0.51513 -1.28534,0.56751 -0.24151,0.0364 -0.26394,0.0275 -0.11189,-0.0447 0.14595,-0.0692 0.0649,-0.0918 -0.34818,-0.0969 -0.58977,-0.007 -1.52838,-0.31187 -1.85419,-0.60163 -0.11283,-0.10035 -0.337,-0.42985 -0.49816,-0.73223 -0.16117,-0.30237 -0.35774,-0.60347 -0.43683,-0.66911 -0.0791,-0.0656 -0.14378,-0.1754 -0.14378,-0.24393 0,-0.0685 -0.0816,-0.15052 -0.18143,-0.18219 -0.0998,-0.0317 -0.20477,-0.11841 -0.23329,-0.19275 -0.0844,-0.21981 -0.99964,-0.63095 -1.52424,-0.68468 -0.64816,-0.0664 -1.24294,0.10714 -1.63368,0.47663 -0.17616,0.1666 -0.44598,0.39901 -0.59959,0.51647 -0.50039,0.38267 -0.82805,0.99838 -1.00473,1.888 -0.0912,0.45897 -0.26511,0.98692 -0.3908,1.18601 -0.24315,0.3852 -0.7619,0.81964 -0.99454,0.83294 -0.0785,0.004 -0.35665,0.0545 -0.6182,0.1111 -0.26153,0.0566 -0.6788,0.0759 -0.92727,0.0428 -0.76278,-0.10149 -1.35067,0.0325 -1.97663,0.4505 -0.3121,0.20841 -0.56746,0.41922 -0.56746,0.46846 0,0.0492 -0.14836,0.30521 -0.32969,0.56882 -0.38174,0.55495 -0.477,0.93028 -0.46353,1.82624 0.0125,0.82835 0.3108,1.33854 1.19943,2.05113 1.26928,1.01784 1.56508,2.44731 0.72342,3.49593 -0.51176,0.63757 -0.68053,1.13436 -0.69096,2.03379 -0.0108,0.93282 0.18181,1.44472 0.76188,2.02479 0.59461,0.59461 1.09124,0.774 2.12815,0.76874 0.75501,-0.004 1.00418,-0.0462 1.51596,-0.25779 1.43972,-0.59523 2.70808,-0.0582 3.47325,1.47061 0.31002,0.6194 0.52186,0.85502 1.10534,1.22944 0.81968,0.52598 2.02297,0.59174 2.96197,0.16185 z m 34.69215,0.11848 c 0.25435,-0.25435 0.25803,-0.81296 0.006,-0.94771 -0.27753,-0.14852 -0.77782,-0.11823 -0.97361,0.059 -0.39876,0.36088 -0.0714,1.07897 0.49182,1.07897 0.15852,0 0.36986,-0.0845 0.47553,-0.19021 z m -71.85653,-0.66176 c 0.51615,-0.50027 1.45504,-3.0623 1.34235,-3.663 -0.0871,-0.46416 -0.51497,-0.66004 -1.24309,-0.56906 -0.50184,0.0627 -0.50374,0.0642 -1.38143,1.11278 -0.48339,0.5775 -0.93194,1.15226 -0.99679,1.27724 -0.14029,0.27043 -0.11664,1.25015 0.0393,1.62657 0.18387,0.44389 0.5362,0.60188 1.26676,0.56803 0.5797,-0.0268 0.67104,-0.06 0.97293,-0.35256 z m 42.18075,-0.62073 c 0.64417,-0.33311 0.87359,-1.23883 0.49336,-1.94778 -0.75987,-1.41685 -2.99782,-0.26478 -2.48779,1.28068 0.22734,0.6888 1.27489,1.03919 1.99443,0.6671 z m 28.0385,-1.57764 c 1.45675,-0.75127 1.60818,-0.86087 1.79307,-1.29768 0.15541,-0.36718 0.16322,-0.71007 0.0273,-1.19946 -0.13355,-0.48091 -0.63822,-0.72379 -1.5146,-0.72892 l -0.61819,-0.004 -0.98811,1.02392 c -1.41117,1.46231 -1.54456,1.73667 -1.15504,2.37551 0.17525,0.28741 0.54203,0.47218 0.9814,0.49438 0.0934,0.005 0.75672,-0.29414 1.47414,-0.66413 z m -64.80394,-2.86524 c 0.3149,-0.15896 1.53727,-1.04538 2.71638,-1.96983 3.76205,-2.9495 4.92086,-3.81039 8.61104,-6.39721 1.44472,-1.01275 4.94546,-3.36096 5.99166,-4.01905 1.1962,-0.75245 1.60009,-1.33975 1.60661,-2.33622 0.003,-0.45721 -0.05,-0.72058 -0.2032,-1.0114 -0.24238,-0.4599 -0.7413,-0.98582 -0.9352,-0.98582 -0.0744,0 -0.13534,-0.0428 -0.13534,-0.0951 0,-0.0523 -0.0785,-0.0951 -0.17436,-0.0951 -0.0959,0 -0.20398,-0.0296 -0.2402,-0.0658 -0.0362,-0.0362 -0.16106,-0.0798 -0.2774,-0.0967 -0.24047,-0.0351 -1.68371,-0.49837 -1.82833,-0.58688 -0.1734,-0.10611 -1.14367,-0.31042 -2.30632,-0.48564 -0.43154,-0.065 -0.78463,-0.14542 -0.78463,-0.17863 0,-0.0332 -0.13908,-0.062 -0.30909,-0.064 -0.17001,-0.002 -1.10085,-0.0571 -2.06855,-0.12247 -1.67958,-0.11345 -4.02708,-0.0483 -5.03058,0.13953 -0.23852,0.0446 -0.30438,0.0306 -0.25217,-0.0539 0.0519,-0.0839 -0.014,-0.0998 -0.2478,-0.0598 -0.17514,0.03 -0.71973,0.11711 -1.21017,0.1936 -0.49044,0.0765 -1.0708,0.22575 -1.28967,0.33171 -0.46203,0.22366 -0.89808,0.64747 -0.95148,0.92476 -0.0205,0.10627 -0.169,0.45429 -0.33007,0.77337 -0.94725,1.87649 -1.94913,5.08343 -2.33758,7.48247 -0.48903,3.02013 -0.52521,7.66161 -0.0671,8.60705 0.3065,0.63256 1.02149,0.69216 2.05357,0.17117 z m 2.22699,-18.02086 c 0.0686,-0.0275 0.15068,-0.0241 0.18229,0.007 0.0316,0.0316 -0.0246,0.0541 -0.12484,0.05 -0.11078,-0.005 -0.13333,-0.0271 -0.0575,-0.0575 z m 1.42064,-0.28334 c 0.0654,-0.0264 0.17238,-0.0264 0.23777,0 0.0654,0.0264 0.0118,0.048 -0.11889,0.048 -0.13077,0 -0.18427,-0.0216 -0.11888,-0.048 z m 59.22173,17.35102 c 0.17627,-0.25166 0.19311,-0.65658 0.0339,-0.81576 -0.14005,-0.14005 -0.78277,-0.1498 -1.03339,-0.0157 -0.23161,0.12395 -0.24694,0.6254 -0.0266,0.86889 0.23218,0.25656 0.83553,0.23454 1.02604,-0.0375 z m -66.53192,-0.33548 c 0.22944,-0.1905 0.34489,-0.67123 0.21009,-0.87487 -0.0537,-0.0811 -0.25024,-0.13979 -0.47781,-0.14265 -0.21263,-0.003 -0.38673,-0.0385 -0.3869,-0.0795 -1.6e-4,-0.0411 -0.0859,-0.0289 -0.19051,0.0271 -0.28382,0.1519 -0.26958,0.88469 0.0212,1.08832 0.27726,0.1942 0.57595,0.18754 0.82397,-0.0184 z m 22.64276,-0.76099 c 0.98855,-0.49868 0.88966,-1.95586 -0.16439,-2.42211 -0.74439,-0.32928 -1.39345,-0.0476 -1.69209,0.73438 -0.28204,0.73851 -0.029,1.51341 0.57578,1.76358 0.32465,0.13428 0.93592,0.0981 1.2807,-0.0759 z m -25.61836,-0.10974 c 0.43804,-0.19894 0.57912,-0.37515 1.48851,-1.85921 0.52387,-0.85493 0.64196,-1.121 0.64196,-1.44637 0,-0.56997 -0.30778,-0.79768 -1.05532,-0.78078 -0.54246,0.0123 -0.57305,0.0279 -1.50733,0.77223 -0.52449,0.41784 -0.93061,0.79698 -0.90245,0.84252 0.0281,0.0455 -0.007,0.0604 -0.0787,0.033 -0.4264,-0.16363 -0.73642,1.40471 -0.40454,2.04649 0.28394,0.5491 1.08954,0.72288 1.81782,0.39214 z m 71.29705,-1.73597 c 0.68713,-0.4837 1.99551,-1.65558 2.1224,-1.90096 0.19527,-0.3776 0.17276,-1.20764 -0.0423,-1.56029 -0.15185,-0.249 -0.2634,-0.30542 -0.78427,-0.39666 -0.73294,-0.12839 -1.11442,-0.0766 -1.44583,0.19632 -0.265,0.2182 -1.53851,2.35818 -1.63707,2.75085 -0.0325,0.12898 0.007,0.38913 0.0875,0.58253 0.26395,0.6317 1.05216,0.78392 1.69952,0.32821 z m -17.71728,-1.03511 c 2.00218,-0.90212 4.27564,-2.32363 5.99458,-3.7482 2.07189,-1.71707 4.82457,-4.98816 5.12585,-6.09119 0.14273,-0.52256 0.12942,-1.33924 -0.0304,-1.86583 -0.37137,-1.22358 -2.52706,-4.80562 -3.97706,-6.60858 -0.49972,-0.62135 -1.86909,-2.1114 -2.2966,-2.49898 -0.61671,-0.55912 -1.02134,-0.96235 -0.96567,-0.96235 0.0325,0 0.004,-0.0597 -0.0636,-0.13268 -0.0675,-0.073 -0.14901,-0.11678 -0.18125,-0.0974 -0.0322,0.0194 -0.13924,-0.0555 -0.23776,-0.16656 -0.0985,-0.11104 -0.35034,-0.32708 -0.55957,-0.4801 -0.20924,-0.15301 -0.53905,-0.42493 -0.73294,-0.60426 -0.19387,-0.17933 -0.39716,-0.32606 -0.45174,-0.32606 -0.0547,0 -0.0992,-0.0438 -0.0992,-0.0975 0,-0.0536 -0.11293,-0.14039 -0.25096,-0.19287 -0.13803,-0.0525 -0.22507,-0.12129 -0.19344,-0.15293 0.0906,-0.0906 -0.37228,-0.41269 -0.59299,-0.41269 -0.10944,0 -0.19899,0.036 -0.19899,0.08 0,0.044 -0.16803,0.1304 -0.37341,0.19193 -0.46762,0.1401 -0.81653,0.54754 -1.00109,1.16898 -0.0785,0.26448 -0.2504,1.55708 -0.38191,2.87243 -0.13153,1.31535 -0.28263,2.69113 -0.33582,3.05729 -0.0532,0.36616 -0.22502,1.62868 -0.38189,2.80561 -0.15688,1.17693 -0.36953,2.67484 -0.47257,3.32869 -0.54585,3.46398 -0.80477,4.98859 -1.1548,6.80005 -0.41645,2.15511 -0.42935,2.60254 -0.0941,3.25986 0.21053,0.4127 0.75289,0.93028 1.1389,1.0869 0.85909,0.34855 1.65722,0.28694 2.76836,-0.2137 z m -6.37503,-0.74039 c 0.37099,-0.19896 0.67161,-0.69241 0.67161,-1.10241 0,-0.40922 -0.33407,-1.03305 -0.65462,-1.2224 -0.28845,-0.1704 -0.96219,-0.22721 -0.96219,-0.0811 0,0.0458 -0.11975,0.10717 -0.26612,0.13644 -0.6887,0.13774 -1.06761,1.06219 -0.71438,1.74286 0.33628,0.648 1.23907,0.8949 1.9257,0.52665 z m -48.61727,-1.41146 c 0.15334,-0.20973 0.15352,-0.64696 2.8e-4,-0.76761 -0.0654,-0.0515 -0.31812,-0.11955 -0.56163,-0.15125 -0.34898,-0.0454 -0.45473,-0.0264 -0.4993,0.0897 -0.10259,0.26737 -0.059,0.65665 0.0988,0.8819 0.12994,0.18552 0.21149,0.21265 0.49898,0.16599 0.18903,-0.0307 0.39731,-0.12912 0.46287,-0.21877 z m 1.94587,-2.41305 c 0.26068,-0.0724 0.63235,-0.38193 1.42657,-1.18807 1.09311,-1.10949 1.36798,-1.54703 1.25491,-1.99758 -0.0868,-0.34584 -0.29318,-0.46209 -0.92966,-0.52365 -0.52287,-0.0506 -0.62945,-0.0289 -1.03861,0.21161 -0.25076,0.14738 -0.49442,0.26796 -0.54146,0.26796 -0.047,0 -0.14145,0.0796 -0.20981,0.17682 -0.13142,0.18699 -1.1868,0.76438 -1.07933,0.5905 0.10728,-0.17358 -0.10024,-0.11141 -0.2759,0.0826 -0.0917,0.10132 -0.14249,0.22341 -0.11288,0.27131 0.0296,0.0479 -0.007,0.16828 -0.0828,0.26753 -0.0814,0.10768 -0.13781,0.40475 -0.13962,0.7367 -0.003,0.4988 0.0268,0.58411 0.28576,0.82601 0.39053,0.3648 0.82757,0.44908 1.44278,0.27822 z m 73.15578,-0.27213 c 0.11019,-0.12175 0.15387,-0.30051 0.13363,-0.54685 -0.0294,-0.35649 -0.0405,-0.36673 -0.43064,-0.39504 -0.5628,-0.0408 -0.78827,0.1029 -0.78827,0.50254 0,0.55198 0.7197,0.84333 1.08528,0.43935 z m -3.52484,-1.01375 c 0.2963,-0.14679 0.71957,-0.62902 1.61738,-1.84273 0.46037,-0.62233 0.46163,-0.62605 0.41845,-1.24465 -0.0726,-1.03953 -0.36948,-1.28174 -1.49348,-1.21823 -0.96254,0.0544 -1.13922,0.25005 -1.61391,1.78721 -0.20259,0.65601 -0.39374,1.30536 -0.42481,1.44301 -0.0841,0.37287 0.11808,0.83789 0.45323,1.04225 0.36079,0.22001 0.64756,0.22912 1.04314,0.0331 z m -40.39916,-1.39699 c 0.58407,-0.5365 0.58405,-1.30371 -4e-5,-1.8878 -0.64167,-0.64167 -1.35453,-0.56761 -1.84665,0.19185 -0.43082,0.66485 -0.42276,1.23518 0.0237,1.68169 0.29723,0.29723 0.37034,0.32335 0.90489,0.32335 0.52368,0 0.61504,-0.0308 0.91805,-0.30909 z m 10.49336,-1.63571 c 0.61082,-0.31586 0.79288,-1.1597 0.39064,-1.81055 -0.28247,-0.45704 -0.54491,-0.61976 -0.99681,-0.61804 -0.32064,0.001 -0.86201,0.17961 -0.57325,0.1889 0.0523,0.002 -0.0456,0.0932 -0.21753,0.20325 -0.77211,0.4944 -0.7733,1.61767 -0.002,2.04558 0.2974,0.16502 1.07213,0.15997 1.39914,-0.009 z m 27.51126,-0.49513 c 0.201,-0.1819 0.23364,-0.72081 0.0527,-0.87094 -0.17361,-0.14408 -0.88836,-0.0257 -1.07233,0.17758 -0.4522,0.49967 0.51034,1.15423 1.01958,0.69336 z m -62.69789,-0.47361 c 0.38228,-0.486 0.13757,-0.84963 -0.61128,-0.90838 l -0.38044,-0.0299 -0.0292,0.45914 c -0.0352,0.55177 0.089,0.72968 0.50955,0.72968 0.2263,0 0.36954,-0.0702 0.51145,-0.25059 z m 41.92513,-0.54697 c 0.79941,-0.40692 1.09316,-0.88924 1.71533,-2.81645 0.86047,-2.66534 1.11473,-4.35288 1.11053,-7.37067 -0.004,-2.56133 -0.23437,-4.54789 -0.64023,-5.51033 -0.22455,-0.53247 -0.6559,-1.07567 -1.06927,-1.34652 -0.13035,-0.0854 -0.23699,-0.20533 -0.23699,-0.2665 0,-0.3685 -2.98608,-1.32436 -5.94411,-1.90274 -2.34792,-0.45908 -6.29356,-0.65701 -8.81411,-0.44214 -1.36382,0.11627 -2.06399,0.29562 -1.45731,0.3733 0.26911,0.0345 0.26118,0.0426 -0.13968,0.14333 -0.31368,0.0788 -0.48184,0.19144 -0.64196,0.42994 -0.4807,0.71594 -0.23015,1.25618 1.54819,3.33841 0.68747,0.80493 2.98746,3.65786 4.52368,5.61122 1.77257,2.25388 3.02419,3.86697 3.31683,4.27474 0.18308,0.25511 0.88911,1.22724 1.56894,2.1603 0.67985,0.93307 1.40734,1.94986 1.61665,2.25955 0.43809,0.64818 1.06941,1.14938 1.61726,1.28391 0.56774,0.13941 1.40982,0.0435 1.92625,-0.21935 z m -14.76553,-19.34939 c 0.32351,-0.14391 1.28392,-0.23169 1.28392,-0.11736 0,0.0561 -0.1605,0.10242 -0.35664,0.10299 -0.19616,5.7e-4 -0.52784,0.0231 -0.73707,0.05 -0.26906,0.0346 -0.32474,0.0242 -0.19021,-0.0356 z m 1.42423,-0.10671 c 0.0336,-0.0544 0.17273,-0.0989 0.30913,-0.0989 0.29812,0 0.26364,0.0455 -0.10077,0.13309 -0.17677,0.0425 -0.24847,0.0307 -0.20837,-0.0342 z m -29.47389,17.38224 c 0.71331,-0.48082 1.35951,-0.96972 1.43598,-1.08645 0.20997,-0.32045 0.1282,-0.88523 -0.1586,-1.09542 -0.25645,-0.18796 -1.29871,-0.2774 -1.41173,-0.12115 -0.0343,0.0475 -0.12661,0.0935 -0.20507,0.10239 -0.0785,0.009 -0.4237,0.12142 -0.76721,0.25015 -0.72789,0.2728 -1.35773,0.41935 -1.1349,0.26406 0.12632,-0.088 0.12602,-0.0996 -0.003,-0.10087 -0.2395,-0.002 -0.58593,0.29024 -0.52661,0.44483 0.0298,0.0777 -0.0315,0.25021 -0.13626,0.38338 -0.21158,0.26898 -0.25971,0.95559 -0.0893,1.27399 0.17707,0.33086 0.66727,0.55856 1.20331,0.55894 0.46823,3.8e-4 0.5689,-0.0487 1.79301,-0.87385 z m 63.83876,-0.13186 c 0.2296,-0.16081 1.15694,-1.92707 1.34988,-2.57103 0.0977,-0.32617 0.0911,-0.47679 -0.0406,-0.93009 -0.23075,-0.79377 -0.37164,-0.89839 -1.16801,-0.86736 -0.7644,0.0298 -1.20049,0.22005 -1.40332,0.61229 -0.16819,0.32527 -0.3346,1.65834 -0.3357,2.68939 -6.7e-4,0.65882 0.0236,0.75717 0.24131,0.97483 0.19116,0.19117 0.33674,0.24209 0.69213,0.24209 0.25604,0 0.54243,-0.0647 0.66437,-0.15012 z m -33.13359,-0.83925 c 0.46255,-0.19326 1.10382,-0.80576 1.30415,-1.24561 0.20937,-0.45971 0.22585,-1.12281 0.0409,-1.64694 -0.50143,-1.42126 -2.16097,-4.16226 -3.58056,-5.91395 -0.71487,-0.8821 -2.34323,-2.51419 -3.08999,-3.09707 -1.3179,-1.02867 -1.76028,-1.34806 -2.43372,-1.75708 -0.41553,-0.25239 -0.89231,-0.48638 -1.05951,-0.51998 -0.57619,-0.11579 -0.67095,-0.15724 -0.54185,-0.23703 0.17782,-0.10991 -0.59679,-0.21913 -1.02228,-0.14414 -0.19616,0.0346 -0.59204,0.18611 -0.87974,0.33675 -0.59109,0.30949 -0.59028,0.34846 0.003,0.13918 0.64843,-0.22878 0.53113,-0.10681 -0.17105,0.17784 -0.35213,0.14274 -0.70075,0.28632 -0.77471,0.31906 -0.093,0.0412 -0.11096,0.0214 -0.0581,-0.0641 0.0488,-0.0789 0.0346,-0.10969 -0.0391,-0.0851 -0.0635,0.0212 -0.11775,0.0802 -0.12052,0.13122 -0.003,0.051 -0.48102,0.3327 -1.06281,0.626 -2.12561,1.07163 -4.82732,2.88002 -6.43125,4.30476 -0.87548,0.77767 -3.39969,3.36684 -3.67992,3.77461 -0.15963,0.23231 -0.31991,0.59862 -0.35618,0.81402 -0.0556,0.33018 -0.0314,0.43039 0.15431,0.63849 0.46136,0.51714 1.0291,0.64055 4.45242,0.96788 4.43448,0.424 11.8914,1.50646 16.31065,2.36768 1.33759,0.26067 2.57315,0.30687 3.03593,0.11351 z m -31.49634,-3.26882 c 0.39399,-0.34597 0.0991,-0.7976 -0.6046,-0.92606 l -0.34304,-0.0626 -0.0537,0.40016 c -0.0652,0.48599 -0.009,0.65312 0.25369,0.75821 0.23842,0.0953 0.51817,0.0318 0.74761,-0.16969 z m 4.45948,-1.87129 c 1.42773,-0.59518 1.69862,-0.81563 1.69862,-1.38237 0,-0.72919 -0.29632,-0.82242 -2.14075,-0.67358 -0.75566,0.061 -1.51532,0.0844 -1.68812,0.0519 -0.37642,-0.0706 -0.51815,0.064 -0.80307,0.76282 -0.44649,1.09512 0.11174,1.92443 1.22142,1.81458 0.2427,-0.024 1.01305,-0.28205 1.7119,-0.57338 z m 56.48481,0.0399 c 0.27256,-0.14587 0.4185,-0.49931 0.70564,-1.70881 0.18126,-0.76356 0.24229,-1.2195 0.20229,-1.5113 -0.0631,-0.46064 -0.40326,-1.21348 -0.57863,-1.28077 -0.22235,-0.0853 -1.48137,0.11059 -1.7214,0.26787 -0.48031,0.31471 -0.54294,0.67002 -0.37508,2.12795 0.17856,1.55086 0.19317,1.60682 0.50646,1.94144 0.19495,0.20821 0.32978,0.26154 0.66131,0.26154 0.22904,0 0.49877,-0.0441 0.59941,-0.0979 z m 3.66252,-0.5164 c 0.16624,-0.25373 0.12014,-0.72358 -0.088,-0.89628 -0.14867,-0.12338 -0.80673,0.09 -0.97121,0.31498 -0.2464,0.33697 0.13136,0.8152 0.64395,0.8152 0.17332,0 0.31382,-0.0791 0.41522,-0.2339 z m -7.1159,-1.78261 c 0.14951,-0.12409 0.15086,-0.3082 0.005,-0.71102 -0.0717,-0.19837 -0.17786,-0.31585 -0.28532,-0.31585 -0.0941,0 -0.17111,0.0428 -0.17111,0.0951 0,0.0523 -0.10173,0.0951 -0.22612,0.0951 -0.29635,0 -0.46078,0.20963 -0.42271,0.5389 0.0518,0.44781 0.70591,0.62487 1.10005,0.29776 z m -48.5079,-0.42477 c 0.19404,-0.29614 0.0397,-0.6972 -0.26831,-0.6972 -0.11304,0 -0.26087,-0.0749 -0.32851,-0.16644 -0.15318,-0.20734 -0.25153,-0.10818 -0.41744,0.42091 -0.14855,0.47377 -0.0923,0.67027 0.20453,0.71479 0.38076,0.0571 0.65427,-0.0348 0.80973,-0.27206 z m 0.17091,-2.52408 c 0.5754,-0.10635 1.15317,-0.23383 1.28394,-0.28329 0.41427,-0.15669 0.66574,-0.46393 0.66574,-0.81338 0,-0.69163 -0.0843,-0.72819 -2.37764,-1.03145 -0.70616,-0.0934 -1.31297,-0.21291 -1.34845,-0.26563 -0.0824,-0.12249 -0.55367,0.0809 -0.55367,0.23896 0,0.0616 -0.11387,0.26123 -0.25304,0.44369 -0.49984,0.65533 -0.38132,1.57312 0.2339,1.81113 0.57295,0.22165 0.61945,0.21967 2.34922,-0.10003 z m 47.03805,0.0882 c 0.31955,-0.24534 0.37219,-0.52404 0.37219,-1.97042 0,-1.51862 -0.0183,-1.60017 -0.49728,-2.2112 -0.25752,-0.32853 -0.64399,-0.48549 -0.64399,-0.26154 0,0.0523 -0.15403,0.0951 -0.34227,0.0951 -0.64918,0 -1.15567,0.36894 -1.30333,0.94938 -0.11511,0.4525 0.67418,2.78909 1.10089,3.25903 0.19806,0.21813 0.31429,0.26104 0.70019,0.25852 0.25449,-0.002 0.53061,-0.0552 0.6136,-0.11888 z m -5.80634,-4.01692 c 0.44513,-0.23018 0.47391,-0.72956 0.12866,-2.23324 -0.2728,-1.18822 -0.33966,-1.35887 -0.66265,-1.69144 -0.17892,-0.18423 -0.32532,-0.37119 -0.32532,-0.41547 0,-0.0443 -0.10698,-0.0805 -0.23775,-0.0805 -0.13078,0 -0.23776,0.0428 -0.23776,0.0951 0,0.0523 -0.0963,0.0961 -0.21399,0.0972 -0.38624,0.004 -1.00318,0.35061 -1.15874,0.65145 -0.27868,0.53892 -0.19742,0.8791 0.48548,2.03201 0.79361,1.33979 1.12376,1.6893 1.59574,1.6893 0.19091,0 0.47276,-0.065 0.62633,-0.14439 z m -40.13798,-0.33114 c 0.35494,-0.35495 0.15533,-0.76085 -0.37417,-0.76085 -0.11123,0 -0.19647,-0.0619 -0.19647,-0.14266 0,-0.0785 -0.0692,-0.14266 -0.15375,-0.14266 -0.10601,0 -0.13858,0.058 -0.10494,0.18672 0.0269,0.10269 -0.0109,0.23632 -0.084,0.29696 -0.16294,0.13523 -0.17317,0.48412 -0.0187,0.63857 0.18083,0.18083 0.71905,0.1369 0.93203,-0.0761 z m 6.47451,-0.1829 c 0.34741,-0.34742 0.3714,-0.77851 0.0606,-1.08931 -0.20525,-0.20524 -2.76574,-1.10543 -3.14426,-1.10543 -0.0865,0 -0.15727,-0.0455 -0.15727,-0.10113 0,-0.0568 -0.13547,-0.0881 -0.30909,-0.0713 -0.20579,0.0198 -0.2995,0.0744 -0.2804,0.16342 0.0158,0.0735 -0.12813,0.2942 -0.31979,0.49048 -0.26531,0.27171 -0.35984,0.45778 -0.39613,0.77974 -0.057,0.5057 0.0693,0.77609 0.47931,1.02608 0.27088,0.16517 0.48791,0.18481 2.04601,0.18512 l 1.74301,3.9e-4 0.278,-0.27801 z m 29.68197,-0.25982 c 0.2301,-0.20824 0.21956,-0.45432 -0.0342,-0.79751 -0.2035,-0.27525 -0.45764,-0.3776 -0.45764,-0.18432 0,0.0534 -0.10802,0.14636 -0.24004,0.20652 -0.31602,0.14398 -0.40473,0.50294 -0.18447,0.74633 0.20704,0.22878 0.67906,0.24371 0.91633,0.029 z m -26.2262,-0.33903 c 0.0716,-0.20463 0.054,-0.29898 -0.0842,-0.45175 -0.0961,-0.1062 -0.25238,-0.19309 -0.34723,-0.19309 -0.11911,0 -0.15441,-0.0471 -0.11405,-0.1523 0.043,-0.11216 0.0109,-0.14315 -0.12186,-0.11758 -0.0992,0.0191 -0.18143,0.0769 -0.1828,0.12853 -9.9e-4,0.0516 -0.081,0.21118 -0.1769,0.35465 -0.1156,0.17284 -0.15386,0.34294 -0.11338,0.50417 0.057,0.22708 0.0941,0.24141 0.55549,0.21468 0.441,-0.0255 0.50422,-0.0566 0.58495,-0.28731 z m 33.47871,-0.79429 c 0.18715,-0.18716 0.18667,-0.26644 -0.004,-0.66835 -0.1748,-0.36833 -0.33935,-0.39919 -0.76017,-0.14258 -0.37712,0.22996 -0.46349,0.5343 -0.22056,0.77723 0.22386,0.22386 0.77572,0.24274 0.98476,0.0337 z m -9.56927,-0.99552 c 0.31362,-0.29218 0.26202,-0.72784 -0.21983,-1.85598 -0.23539,-0.55109 -0.42798,-1.04088 -0.42798,-1.08841 0,-0.15563 -0.98925,-1.14144 -1.14543,-1.14144 -0.23046,0 -1.25651,0.52185 -1.45027,0.73761 -0.26153,0.29122 -0.30601,0.79571 -0.1071,1.21484 0.0941,0.19841 0.60409,0.80321 1.13324,1.34402 l 0.96206,0.98328 h 0.52359 c 0.39545,0 0.57451,-0.0475 0.73172,-0.19392 z m -20.86299,-0.21028 c 0.36755,-0.32344 0.40901,-0.73328 0.11011,-1.0885 -0.25518,-0.30326 -2.39212,-1.55068 -2.65646,-1.55068 -0.0833,0 -0.23508,-0.0897 -0.33718,-0.19925 -0.19451,-0.20878 -0.5791,-0.18305 -0.58623,0.0392 -0.002,0.0619 -0.16609,0.22471 -0.36467,0.36189 -0.39784,0.27482 -0.65617,0.91935 -0.54541,1.36069 0.0703,0.28026 0.49914,0.70764 0.77103,0.76848 0.19027,0.0426 1.63855,0.37335 1.99722,0.45615 0.10461,0.0241 0.4553,0.0489 0.77932,0.0549 0.48513,0.009 0.63202,-0.0267 0.83227,-0.20295 z m 10.08025,-0.44494 c 0.10131,-0.11191 0.14291,-0.25605 0.1068,-0.36981 -0.0673,-0.21211 -0.47965,-0.68316 -0.59799,-0.68316 -0.0432,0 -0.19499,0.13279 -0.33742,0.29509 -0.27524,0.31368 -0.33232,0.63965 -0.14481,0.82715 0.18244,0.18245 0.78438,0.13962 0.97342,-0.0693 z m 3.69777,-0.68808 c 0.30499,-0.16244 0.43906,-0.37555 0.44247,-0.70328 0.006,-0.5577 -1.79644,-2.8952 -2.23223,-2.8952 -0.0784,0 -0.14238,-0.0596 -0.14238,-0.13248 0,-0.23005 -0.30115,-0.26681 -0.4936,-0.0602 -0.0988,0.106 -0.24028,0.19273 -0.31451,0.19273 -0.0742,0 -0.30794,0.16456 -0.51936,0.3657 -0.34883,0.33182 -0.38412,0.40891 -0.38102,0.83217 0.002,0.33941 0.0608,0.53452 0.21399,0.71626 0.20108,0.23852 2.14731,1.61175 2.44555,1.72554 0.24918,0.0951 0.76599,0.0734 0.98109,-0.0412 z m -6.84306,-0.2352 c 0.29116,-0.29117 0.32689,-0.68589 0.0943,-1.04097 -0.26946,-0.41123 -2.11875,-1.94518 -2.41698,-2.00483 -0.15383,-0.0308 -0.2797,-0.11479 -0.2797,-0.18671 0,-0.0761 -0.0994,-0.13077 -0.23776,-0.13077 -0.13077,0 -0.23788,0.0535 -0.23802,0.11888 -1e-4,0.0654 -0.15932,0.20448 -0.35371,0.3091 -0.80218,0.43171 -1.00569,1.29988 -0.43772,1.86741 0.14773,0.14762 0.80358,0.50202 1.45743,0.78757 1.43528,0.62682 2.00008,0.69246 2.41222,0.28032 z m -6.14252,-2.17985 c 0.24632,-0.17252 0.27844,-0.55028 0.0619,-0.72793 -0.0822,-0.0674 -0.23628,-0.2018 -0.34238,-0.29857 -0.14029,-0.12796 -0.22144,-0.14742 -0.29752,-0.0713 -0.0575,0.0575 -0.0708,0.10461 -0.0296,0.10461 0.0413,0 -0.0358,0.13168 -0.17118,0.29262 -0.13542,0.16093 -0.24623,0.3511 -0.24623,0.42258 0,0.17065 0.37059,0.42607 0.6182,0.42607 0.10748,0 0.29056,-0.0666 0.40681,-0.14805 z m 15.30941,-0.6392 c 0.19903,-0.154 0.13375,-0.49332 -0.15769,-0.81976 -0.24363,-0.27289 -0.28317,-0.28899 -0.33201,-0.13516 -0.0305,0.096 -0.1521,0.21704 -0.27028,0.26888 -0.24209,0.10621 -0.33278,0.4655 -0.16769,0.66442 0.18901,0.22774 0.64749,0.23842 0.92767,0.0216 z"
       id="path1686" />
  </g>
</svg>
