<?xml version="1.0" encoding="UTF-8" standalone="no"?>
<!-- Created with Inkscape (http://www.inkscape.org/) -->

<svg
   width="507.99725mm"
   height="38.090569mm"
   viewBox="0 0 507.99725 38.090567"
   version="1.1"
   id="svg15008"
   xmlns="http://www.w3.org/2000/svg"
   xmlns:svg="http://www.w3.org/2000d/svg">
  <defs
     id="defs15005" />
  <g
     id="layer1"
     transform="matrix(1,0,0,1.6129003,246.51705,-281.39763)">
    <path
       style="fill:none;stroke:#7c06c7;stroke-width:0.31289;stroke-linecap:butt;stroke-linejoin:miter;stroke-miterlimit:4;stroke-dasharray:none;stroke-opacity:1"
       d="m 134.65277,189.45208 36.65055,6.55898 73.65411,0.10957 5.13736,1.80559 11.38322,-0.1609"
       id="path13449" />
    <path
       style="fill:none;stroke:#cd1064;stroke-width:0.31289;stroke-linecap:butt;stroke-linejoin:miter;stroke-miterlimit:4;stroke-dasharray:none;stroke-opacity:1"
       d="m -98.687639,190.4616 24.99487,-0.2754 36.93561,-8.01925 8.550229,-5.10679"
       id="path13451" />
    <path
       style="fill:none;stroke:#4fe017;stroke-width:0.31289;stroke-linecap:butt;stroke-linejoin:miter;stroke-miterlimit:4;stroke-dasharray:none;stroke-opacity:1"
       d="m -208.17594,187.73532 13.90747,-1.88199 11.6371,-8.70772 12.66879,-1.47887 22.67364,12.58691 40.97273,3.07646 7.628571,-0.86851"
       id="path13453" />
    <path
       style="fill:none;stroke:#43a5da;stroke-width:0.31289;stroke-linecap:butt;stroke-linejoin:miter;stroke-miterlimit:4;stroke-dasharray:none;stroke-opacity:1"
       d="m -28.20693,177.06016 2.154941,-1.52996 9.025447,1.21683 4.690816,3.84596 8.0979073,-5.10691 3.32044165,2.19926 14.69708505,-0.28529 7.73395,3.90946"
       id="path13455" />
    <path
       style="fill:none;stroke:#eacd22;stroke-width:0.31289;stroke-linecap:butt;stroke-linejoin:miter;stroke-miterlimit:4;stroke-dasharray:none;stroke-opacity:1"
       d="m 21.513658,181.30951 12.519217,-6.66565 16.274594,8.56576 70.075011,6.747 14.27029,-0.50454"
       id="path13457" />
    <path
       style="fill:none;stroke:#4351da;stroke-width:0.31289;stroke-linecap:butt;stroke-linejoin:miter;stroke-miterlimit:4;stroke-dasharray:none;stroke-opacity:1"
       d="m -246.50972,193.0671 2.08373,0.0977 10.97789,-5.08503 14.60212,0.89814 10.67004,-1.2426"
       id="path14979" />
  </g>
</svg>
