<?xml version="1.0" encoding="UTF-8" standalone="no"?>
<!-- Created with Inkscape (http://www.inkscape.org/) -->

<svg
   width="636.06421mm"
   height="154.93156mm"
   viewBox="0 0 636.06421 154.93156"
   version="1.1"
   id="svg15008"
   xmlns="http://www.w3.org/2000/svg"
   xmlns:svg="http://www.w3.org/2000/svg">
   <defs
      id="defs15005" />
   <g
      id="layer1"
      transform="translate(246.61475,-34.81052)">
      <path
         style="fill:none;stroke:#4351da;stroke-width:0.897825;stroke-linecap:butt;stroke-linejoin:miter;stroke-miterlimit:4;stroke-dasharray:none;stroke-opacity:1"
         d="m -246.50735,157.31282 2.60851,0.64274 13.74265,-33.44584 18.27965,5.90734 13.35726,-8.17303"
         id="stage1" />
      <path
         style="fill:none;stroke:#4fe017;stroke-width:0.897825;stroke-linecap:butt;stroke-linejoin:miter;stroke-miterlimit:4;stroke-dasharray:none;stroke-opacity:1"
         d="m -198.51928,122.24403 17.41005,-12.37846 14.56789,-57.27345 15.8594,-9.72695 28.38394,82.7881 51.29165,20.23483 9.54981,-5.71245"
         id="stage2" />
      <path
         style="fill:none;stroke:#cd1064;stroke-width:0.897825;stroke-linecap:butt;stroke-linejoin:miter;stroke-miterlimit:4;stroke-dasharray:none;stroke-opacity:1"
         d="M -61.45654,140.17565 -30.16676,138.36427 16.07103,85.61914 26.77461,52.03015"
         id="stage3" />
      <path
         style="fill:none;stroke:#43a5da;stroke-width:0.897825;stroke-linecap:butt;stroke-linejoin:miter;stroke-miterlimit:4;stroke-dasharray:none;stroke-opacity:1"
         d="m 26.77461,52.03015 2.69766,-10.06302 11.29849,8.00336 5.87219,25.29617 10.13735,-33.58977 4.15669,14.46521 18.39852,-1.8764 9.68173,25.71376"
         id="stage4" />
      <path
         style="fill:none;stroke:#eacd22;stroke-width:0.897825;stroke-linecap:butt;stroke-linejoin:miter;stroke-miterlimit:4;stroke-dasharray:none;stroke-opacity:1"
         d="m 89.01724,79.97946 15.67216,-43.84212 20.37332,56.33977 87.72328,44.37715 17.86423,-3.31852"
         id="stage5" />
      <path
         style="fill:none;stroke:#7c06c7;stroke-width:0.897825;stroke-linecap:butt;stroke-linejoin:miter;stroke-miterlimit:4;stroke-dasharray:none;stroke-opacity:1"
         d="m 230.65023,133.53574 45.88093,43.1405 92.20377,0.72074 6.43119,11.87591 14.25007,-1.05833"
         id="stage6" />
   </g>
</svg>
