<?xml version="1.0" encoding="UTF-8" standalone="no"?>
<!-- Created with Inkscape (http://www.inkscape.org/) -->

<svg
   width="146.09145mm"
   height="180.90698mm"
   viewBox="0 0 146.09145 180.90698"
   version="1.1"
   id="svg112771"
   inkscape:version="1.1.1 (3bf5ae0d25, 2021-09-20)"
   sodipodi:docname="rig-logo-inkscape.svg"
   xmlns:inkscape="http://www.inkscape.org/namespaces/inkscape"
   xmlns:sodipodi="http://sodipodi.sourceforge.net/DTD/sodipodi-0.dtd"
   xmlns="http://www.w3.org/2000/svg"
   xmlns:svg="http://www.w3.org/2000/svg">
  <sodipodi:namedview
     id="namedview112773"
     pagecolor="#505050"
     bordercolor="#ffffff"
     borderopacity="1"
     inkscape:pageshadow="0"
     inkscape:pageopacity="0"
     inkscape:pagecheckerboard="1"
     inkscape:document-units="mm"
     showgrid="false"
     inkscape:zoom="0.77058782"
     inkscape:cx="674.80952"
     inkscape:cy="417.21396"
     inkscape:window-width="1920"
     inkscape:window-height="1058"
     inkscape:window-x="0"
     inkscape:window-y="22"
     inkscape:window-maximized="1"
     inkscape:current-layer="layer1" />
  <defs
     id="defs112768" />
  <g
     inkscape:label="Layer 1"
     inkscape:groupmode="layer"
     id="layer1"
     transform="translate(-21.919342,-90.807448)">
    <g
       id="g57220"
       transform="matrix(1.2021957,0,0,-1.2021957,230.39523,1106.9882)"
       style="fill:#c68a7a;fill-opacity:1"
       inkscape:export-filename="/home/tom/Downloads/Android/Dwnld/Download/logo_rig/rig-logo.png"
       inkscape:export-xdpi="1481.2312"
       inkscape:export-ydpi="1481.2312">
      <path
         id="rect50727"
         style="opacity:1;fill:#c68a7a;fill-opacity:1;stroke-width:0.0320265;stroke-linecap:round;stroke-linejoin:round"
         d="m -231.2168,-4.5078125 v 5.14648438 h 101.22657 C -136.424,-2.0293061 -143.77733,-3.83148 -152.08594,-4.5078125 Z"
         transform="matrix(0.75000002,0,0,-0.75000002,0,841.8898)" />
      <path
         id="rect51138"
         style="opacity:1;fill:#c68a7a;fill-opacity:1;stroke:none;stroke-width:0.0320265;stroke-linecap:round;stroke-linejoin:round;stroke-miterlimit:4;stroke-dasharray:none;stroke-opacity:1"
         d="m -231.2168,5.7832031 v 5.1445309 h 117.66602 c -2.05061,-1.8440635 -4.27052,-3.5688324 -6.67774,-5.1445309 z"
         transform="matrix(0.75000002,0,0,-0.75000002,0,841.8898)" />
      <path
         id="rect51142"
         style="opacity:1;fill:#c68a7a;fill-opacity:1;stroke:none;stroke-width:0.0320265;stroke-linecap:round;stroke-linejoin:round;stroke-miterlimit:4;stroke-dasharray:none;stroke-opacity:1"
         d="m -231.2168,16.072266 v 5.146484 h 126.54102 c -1.17981,-1.778933 -2.48256,-3.492752 -3.89063,-5.146484 z"
         transform="matrix(0.75000002,0,0,-0.75000002,0,841.8898)" />
      <path
         id="rect51146"
         style="opacity:1;fill:#c68a7a;fill-opacity:1;stroke:none;stroke-width:0.0320265;stroke-linecap:round;stroke-linejoin:round;stroke-miterlimit:4;stroke-dasharray:none;stroke-opacity:1"
         d="m -231.2168,26.363281 v 5.144531 h 131.900394 c -0.688634,-1.749935 -1.488324,-3.460762 -2.357424,-5.144531 z"
         transform="matrix(0.75000002,0,0,-0.75000002,0,841.8898)" />
      <path
         id="rect51150"
         style="opacity:1;fill:#c68a7a;fill-opacity:1;stroke:none;stroke-width:0.0320265;stroke-linecap:round;stroke-linejoin:round;stroke-miterlimit:4;stroke-dasharray:none;stroke-opacity:1"
         d="m -231.2168,36.652344 v 5.146484 h 134.851566 c -0.32919,-1.729396 -0.717671,-3.44753 -1.205078,-5.146484 z"
         transform="matrix(0.75000002,0,0,-0.75000002,0,841.8898)" />
      <path
         id="rect51154"
         style="opacity:1;fill:#c68a7a;fill-opacity:1;stroke:none;stroke-width:0.0320265;stroke-linecap:round;stroke-linejoin:round;stroke-miterlimit:4;stroke-dasharray:none;stroke-opacity:1"
         d="m -231.2168,46.943359 v 5.144532 h 135.898441 c -0.02148,-1.716104 -0.131533,-3.431175 -0.302735,-5.144532 z"
         transform="matrix(0.75000002,0,0,-0.75000002,0,841.8898)" />
      <path
         id="rect51158"
         style="opacity:1;fill:#c68a7a;fill-opacity:1;stroke:none;stroke-width:0.0320265;stroke-linecap:round;stroke-linejoin:round;stroke-miterlimit:4;stroke-dasharray:none;stroke-opacity:1"
         d="m -231.2168,57.232422 v 5.146484 h 135.121097 c 0.279875,-1.704184 0.50787,-3.417914 0.636719,-5.146484 z"
         transform="matrix(0.75000002,0,0,-0.75000002,0,841.8898)" />
      <path
         id="rect51162"
         style="opacity:1;fill:#c68a7a;fill-opacity:1;stroke:none;stroke-width:0.0320265;stroke-linecap:round;stroke-linejoin:round;stroke-miterlimit:4;stroke-dasharray:none;stroke-opacity:1"
         d="m -231.2168,67.523438 v 5.144531 h 132.439456 c 0.614074,-1.6842 1.133946,-3.403018 1.585938,-5.144531 z"
         transform="matrix(0.75000002,0,0,-0.75000002,0,841.8898)" />
      <path
         id="rect51166"
         style="opacity:1;fill:#c68a7a;fill-opacity:1;stroke:none;stroke-width:0.0320265;stroke-linecap:round;stroke-linejoin:round;stroke-miterlimit:4;stroke-dasharray:none;stroke-opacity:1"
         d="m -231.2168,77.8125 v 5.146484 h 127.375 c 1.05405,-1.662864 2.02757,-3.374043 2.88868,-5.146484 z"
         transform="matrix(0.75000002,0,0,-0.75000002,0,841.8898)" />
      <path
         id="rect51170"
         style="opacity:1;fill:#c68a7a;fill-opacity:1;stroke:none;stroke-width:0.0320265;stroke-linecap:round;stroke-linejoin:round;stroke-miterlimit:4;stroke-dasharray:none;stroke-opacity:1"
         d="m -231.2168,88.103516 v 5.144531 h 118.72461 c 1.78196,-1.602834 3.43657,-3.318013 4.94727,-5.144531 z"
         transform="matrix(0.75000002,0,0,-0.75000002,0,841.8898)" />
      <path
         id="rect51174"
         style="opacity:1;fill:#c68a7a;fill-opacity:1;stroke:none;stroke-width:0.0320265;stroke-linecap:round;stroke-linejoin:round;stroke-miterlimit:4;stroke-dasharray:none;stroke-opacity:1"
         d="m -231.2168,98.392578 v 5.146482 h 113.71289 l -2.47656,-4.746091 c 0.21752,-0.129343 0.42589,-0.268043 0.64063,-0.400391 z"
         transform="matrix(0.75000002,0,0,-0.75000002,0,841.8898)" />
      <path
         id="rect51178"
         style="opacity:1;fill:#c68a7a;fill-opacity:1;stroke:none;stroke-width:0.0320265;stroke-linecap:round;stroke-linejoin:round;stroke-miterlimit:4;stroke-dasharray:none;stroke-opacity:1"
         d="m -231.2168,108.68359 v 5.14453 h 119.08203 l -2.68554,-5.14453 z"
         transform="matrix(0.75000002,0,0,-0.75000002,0,841.8898)" />
      <path
         id="rect51182"
         style="opacity:1;fill:#c68a7a;fill-opacity:1;stroke:none;stroke-width:0.0320265;stroke-linecap:round;stroke-linejoin:round;stroke-miterlimit:4;stroke-dasharray:none;stroke-opacity:1"
         d="m -231.2168,118.97266 v 5.14648 h 124.45118 l -2.68555,-5.14648 z"
         transform="matrix(0.75000002,0,0,-0.75000002,0,841.8898)" />
      <path
         id="rect51202"
         style="opacity:1;fill:#c68a7a;fill-opacity:1;stroke:none;stroke-width:0.0320265;stroke-linecap:round;stroke-linejoin:round;stroke-miterlimit:4;stroke-dasharray:none;stroke-opacity:1"
         d="m -231.2168,129.26367 v 5.14453 h 129.82032 l -2.68555,-5.14453 z"
         transform="matrix(0.75000002,0,0,-0.75000002,0,841.8898)" />
      <path
         id="rect51206"
         style="opacity:1;fill:#c68a7a;fill-opacity:1;stroke:none;stroke-width:0.0320265;stroke-linecap:round;stroke-linejoin:round;stroke-miterlimit:4;stroke-dasharray:none;stroke-opacity:1"
         d="m -231.2168,139.55273 v 5.14649 h 135.189456 l -2.685547,-5.14649 z"
         transform="matrix(0.75000002,0,0,-0.75000002,0,841.8898)" />
      <path
         id="rect51210"
         style="opacity:1;fill:#c68a7a;fill-opacity:1;stroke:none;stroke-width:0.0320265;stroke-linecap:round;stroke-linejoin:round;stroke-miterlimit:4;stroke-dasharray:none;stroke-opacity:1"
         d="m -231.2168,149.84375 v 5.14453 h 140.558597 l -2.683594,-5.14453 z"
         transform="matrix(0.75000002,0,0,-0.75000002,0,841.8898)" />
      <path
         id="rect51214"
         style="opacity:1;fill:#c68a7a;fill-opacity:1;stroke:none;stroke-width:0.0320265;stroke-linecap:round;stroke-linejoin:round;stroke-miterlimit:4;stroke-dasharray:none;stroke-opacity:1"
         d="m -231.2168,160.13281 v 5.14649 h 145.927738 l -2.685547,-5.14649 z"
         transform="matrix(0.75000002,0,0,-0.75000002,0,841.8898)" />
      <path
         id="rect51218"
         style="opacity:1;fill:#c68a7a;fill-opacity:1;stroke:none;stroke-width:0.0320265;stroke-linecap:round;stroke-linejoin:round;stroke-miterlimit:4;stroke-dasharray:none;stroke-opacity:1"
         d="m -231.2168,170.42383 v 5.14453 h 151.296878 l -2.683594,-5.14453 z"
         transform="matrix(0.75000002,0,0,-0.75000002,0,841.8898)" />
      <path
         id="rect51222"
         style="opacity:1;fill:#c68a7a;fill-opacity:1;stroke:none;stroke-width:0.0320265;stroke-linecap:round;stroke-linejoin:round;stroke-miterlimit:4;stroke-dasharray:none;stroke-opacity:1"
         d="m -231.2168,180.71289 v 5.14649 h 156.666019 l -2.685547,-5.14649 z"
         transform="matrix(0.75000002,0,0,-0.75000002,0,841.8898)" />
      <path
         id="rect51226"
         style="opacity:1;fill:#c68a7a;fill-opacity:1;stroke:none;stroke-width:0.0320265;stroke-linecap:round;stroke-linejoin:round;stroke-miterlimit:4;stroke-dasharray:none;stroke-opacity:1"
         d="m -231.2168,190.98828 v 5.14453 h 162.027347 l -2.683594,-5.14453 z"
         transform="matrix(0.75000002,0,0,-0.75000002,0,841.8898)" />
    </g>
    <path
       style="fill:#e1c6b1;fill-opacity:1;stroke:#8b3129;stroke-width:1.08378;stroke-linecap:round;stroke-linejoin:round;stroke-miterlimit:4;stroke-dasharray:none;stroke-opacity:1"
       d="m 45.398932,126.27578 c -3.49524,1.33078 -10.702224,3.2725 -10.702224,3.2725 0,0 0.582768,3.58524 1.498988,5.10305 2.427785,4.02181 7.253876,12.09312 7.253876,12.09312 0,0 -3.750727,2.18995 -5.036488,3.87276 -1.542268,2.01857 -2.692502,7.22777 -2.692502,7.22777 l 1.160287,6.98326 -2.193328,1.43428 0.152669,2.36208 2.678803,0.96283 -0.458348,2.6736 1.465387,4.26186 2.956505,0.35543 -0.227641,2.67042 2.45709,2.64285 -10.1015,6.33015 13.071563,20.90828 26.996209,7.41357 31.200332,-0.52105 -8.081362,-26.91296 15.643132,-11.19819 -6.71599,-16.68973 13.24479,-15.57726 -27.855184,-25.48792 -25.060286,-4.45784 c 0,0 -13.486437,7.54782 -20.654843,10.27714 z"
       id="path1274"
       sodipodi:nodetypes="scscsccccccccccccccccccccs"
       inkscape:export-filename="/home/tom/Downloads/Android/Dwnld/Download/logo_rig/rig-logo.png"
       inkscape:export-xdpi="1481.2312"
       inkscape:export-ydpi="1481.2312" />
    <path
       style="fill:none;stroke:#8b3129;stroke-width:1.08378;stroke-linecap:round;stroke-linejoin:round;stroke-miterlimit:4;stroke-dasharray:none;stroke-opacity:1"
       d="m 53.617219,147.40269 c 0,0 -5.823627,-0.0368 -6.293459,1.76048 -0.604197,2.31103 2.091809,5.18009 4.074095,5.89283 0.667794,0.24025 0.731546,-1.6263 0.731546,-1.6263"
       id="path1276"
       sodipodi:nodetypes="cssc"
       inkscape:export-filename="/home/tom/Downloads/Android/Dwnld/Download/logo_rig/rig-logo.png"
       inkscape:export-xdpi="1481.2312"
       inkscape:export-ydpi="1481.2312" />
    <path
       style="fill:none;stroke:#8b3129;stroke-width:1.08378;stroke-linecap:round;stroke-linejoin:round;stroke-miterlimit:4;stroke-dasharray:none;stroke-opacity:1"
       d="m 45.796015,152.59833 -1.727446,1.2552 c 0,0 -0.355546,1.82456 0,2.62355 0.253541,0.56962 4.603934,5.02361 4.603934,5.02361 l -0.157443,2.50808 -3.220876,1.13585 c 1.112102,0.17108 2.701425,0.45017 4.07201,0.27433 0.916598,-0.59132 1.203798,-0.68299 1.604214,-2.08864 -0.01364,-0.81821 0.07697,-1.33367 -0.0641,-2.52733 -2.102235,-1.3243 -3.592576,-3.1425 -4.794057,-5.10689 -0.240245,-0.56879 -0.179929,-2.04451 -0.31625,-3.09783 z"
       id="path1278"
       sodipodi:nodetypes="ccscccccccc"
       inkscape:export-filename="/home/tom/Downloads/Android/Dwnld/Download/logo_rig/rig-logo.png"
       inkscape:export-xdpi="1481.2312"
       inkscape:export-ydpi="1481.2312" />
    <path
       style="fill:none;stroke:#8b3129;stroke-width:1.08378;stroke-linecap:round;stroke-linejoin:round;stroke-miterlimit:4;stroke-dasharray:none;stroke-opacity:1"
       d="m 42.201908,155.1351 c 0,0 -1.463035,1.51204 -1.317829,2.41857 0.277394,1.73202 4.495739,6.18462 4.495739,6.18462 0,0 -0.498149,1.74507 -1.056356,2.51213 -0.429648,0.59044 -1.580463,1.46873 -1.580463,1.46873 l -1.956214,-0.45004 c 0,0 1.480451,-1.2799 2.128001,-2.24039 0.309768,-0.87164 0.03816,-2.10284 1.239417,-2.53005"
       id="path1280"
       sodipodi:nodetypes="cscscccc"
       inkscape:export-filename="/home/tom/Downloads/Android/Dwnld/Download/logo_rig/rig-logo.png"
       inkscape:export-xdpi="1481.2312"
       inkscape:export-ydpi="1481.2312" />
    <path
       style="fill:none;stroke:#8b3129;stroke-width:1.08378;stroke-linecap:round;stroke-linejoin:round;stroke-miterlimit:4;stroke-dasharray:none;stroke-opacity:1"
       d="m 43.139939,171.64037 c 5.799427,0.0933 5.977142,-2.30293 7.127408,-4.19617"
       id="path1282"
       sodipodi:nodetypes="cc"
       inkscape:export-filename="/home/tom/Downloads/Android/Dwnld/Download/logo_rig/rig-logo.png"
       inkscape:export-xdpi="1481.2312"
       inkscape:export-ydpi="1481.2312" />
    <path
       style="fill:none;stroke:#8b3129;stroke-width:1.08378;stroke-linecap:round;stroke-linejoin:round;stroke-miterlimit:4;stroke-dasharray:none;stroke-opacity:1"
       d="m 53.030219,173.93705 c 0,0 -0.850375,0.8682 -1.501642,1.00894 -1.142672,0.24707 -2.342724,0.26854 -3.624368,0.0716 -0.544216,-0.0838 -1.264693,-0.79707 -1.264693,-0.79707 0.863671,1.8553 1.791777,5.32094 3.454002,5.41717 0,0 2.226007,0.30602 3.264639,0.11108 0.350668,-0.0658 1.292983,-0.78941 1.292983,-0.78941"
       id="path1284"
       sodipodi:nodetypes="csscssc"
       inkscape:export-filename="/home/tom/Downloads/Android/Dwnld/Download/logo_rig/rig-logo.png"
       inkscape:export-xdpi="1481.2312"
       inkscape:export-ydpi="1481.2312" />
    <path
       style="fill:none;stroke:#8b3129;stroke-width:1.08378;stroke-linecap:round;stroke-linejoin:round;stroke-miterlimit:4;stroke-dasharray:none;stroke-opacity:1"
       d="m 61.186788,150.46393 c 0,0 -1.429228,-1.09523 -2.337344,-1.39026 -1.509995,-0.49058 -4.76274,-0.32203 -4.76274,-0.32203 l -0.922043,12.73546 2.297712,10.39974 2.180751,14.27552 c 0,0 1.7939,3.4537 3.560461,4.25242 2.57607,1.16472 9.435112,1.73634 10.260349,1.46587 1.19695,-0.39224 3.811145,-4.41781 3.811145,-4.41781"
       id="path1286"
       sodipodi:nodetypes="csccccssc"
       inkscape:export-filename="/home/tom/Downloads/Android/Dwnld/Download/logo_rig/rig-logo.png"
       inkscape:export-xdpi="1481.2312"
       inkscape:export-ydpi="1481.2312" />
    <path
       style="fill:none;stroke:#8b3129;stroke-width:1.08378;stroke-linecap:round;stroke-linejoin:round;stroke-miterlimit:4;stroke-dasharray:none;stroke-opacity:1"
       d="m 57.643124,186.16226 -0.967917,2.16323 0.230707,13.8326 1.939823,7.54739"
       id="path1288"
       sodipodi:nodetypes="cccc"
       inkscape:export-filename="/home/tom/Downloads/Android/Dwnld/Download/logo_rig/rig-logo.png"
       inkscape:export-xdpi="1481.2312"
       inkscape:export-ydpi="1481.2312" />
    <path
       style="fill:none;stroke:#8b3129;stroke-width:1.08378;stroke-linecap:round;stroke-linejoin:round;stroke-miterlimit:4;stroke-dasharray:none;stroke-opacity:1"
       d="m 56.906017,202.15809 c 0,0 2.391223,1.11831 5.079763,2.25062 2.266152,0.95445 11.916834,0.60498 11.916834,0.60498 l -4.994941,6.39041"
       id="path1290"
       sodipodi:nodetypes="cscc"
       inkscape:export-filename="/home/tom/Downloads/Android/Dwnld/Download/logo_rig/rig-logo.png"
       inkscape:export-xdpi="1481.2312"
       inkscape:export-ydpi="1481.2312" />
    <path
       style="fill:none;stroke:#8b3129;stroke-width:1.08378;stroke-linecap:round;stroke-linejoin:round;stroke-miterlimit:4;stroke-dasharray:none;stroke-opacity:1"
       d="m 73.987951,205.01274 c 0,0 4.595001,-4.66065 6.56735,-7.26056 2.099854,-2.76799 5.560201,-8.81611 5.560201,-8.81611 l 2.837025,-1.96535 c 0,0 -8.596926,6.04241 -11.699667,7.03959 -3.102729,0.99723 -8.154767,0.72116 -12.681923,-0.51502"
       id="path1292"
       sodipodi:nodetypes="cscczc"
       inkscape:export-filename="/home/tom/Downloads/Android/Dwnld/Download/logo_rig/rig-logo.png"
       inkscape:export-xdpi="1481.2312"
       inkscape:export-ydpi="1481.2312" />
    <path
       style="fill:none;stroke:#8b3129;stroke-width:1.08378;stroke-linecap:round;stroke-linejoin:round;stroke-miterlimit:4;stroke-dasharray:none;stroke-opacity:1"
       d="m 72.757973,173.5457 c 1.062148,3.33204 3.095778,5.23271 3.661811,8.4327"
       id="path1296"
       sodipodi:nodetypes="cc"
       inkscape:export-filename="/home/tom/Downloads/Android/Dwnld/Download/logo_rig/rig-logo.png"
       inkscape:export-xdpi="1481.2312"
       inkscape:export-ydpi="1481.2312" />
    <path
       style="fill:none;stroke:#8b3129;stroke-width:1.08378;stroke-linecap:round;stroke-linejoin:round;stroke-miterlimit:4;stroke-dasharray:none;stroke-opacity:1"
       d="m 70.516495,178.89799 1.721988,0.91035 c 0,0 -3.284022,1.17492 -4.998043,1.42924 -1.623508,0.24093 -4.507397,0.26273 -4.923182,0.0794 -1.324545,-0.58426 -2.907058,-1.42776 -2.781137,-2.40666 0,0 2.86565,-2.76982 3.187525,-2.84489 0.444231,-0.10361 2.276128,0.94505 2.276128,0.94505 0,0 0.739629,-0.98904 1.268592,-0.95787 0.785967,0.0463 4.248129,2.84555 4.248129,2.84555 l -10.980374,0.0136"
       id="path1300"
       sodipodi:nodetypes="ccsscscscc"
       inkscape:export-filename="/home/tom/Downloads/Android/Dwnld/Download/logo_rig/rig-logo.png"
       inkscape:export-xdpi="1481.2312"
       inkscape:export-ydpi="1481.2312" />
    <path
       style="fill:none;stroke:#8b3129;stroke-width:1.08378;stroke-linecap:round;stroke-linejoin:round;stroke-miterlimit:4;stroke-dasharray:none;stroke-opacity:1"
       d="m 59.788503,172.18183 c -2.678397,3.50246 -2.273476,4.24976 -3.223231,6.61927"
       id="path1302"
       sodipodi:nodetypes="cc"
       inkscape:export-filename="/home/tom/Downloads/Android/Dwnld/Download/logo_rig/rig-logo.png"
       inkscape:export-xdpi="1481.2312"
       inkscape:export-ydpi="1481.2312" />
    <path
       style="fill:none;stroke:#8b3129;stroke-width:1.03393;stroke-linecap:round;stroke-linejoin:round;stroke-miterlimit:4;stroke-dasharray:none;stroke-opacity:1"
       d="m 61.551834,154.21333 c 0.01364,0 -2.225736,-1.63466 -3.888811,-1.50282 -0.571696,0.0453 -1.089204,0.0103 -1.491654,0.45358 -0.314886,0.3463 -0.746889,0.77851 -1.127303,1.08093 -0.786868,0.62553 -0.61654,1.88584 0.25013,2.88943 0,0 3.735963,0.5657 4.258246,0.36054 0.522283,-0.20514 2.672605,-1.7027 2.672605,-1.7027 l -2.864762,-1.12873 c 0,0 -2.200688,-1.13354 -2.869345,-0.51782 -0.568852,0.52385 -0.17379,2.31482 0.269218,2.468 0.639748,0.22117 1.398877,0.45471 2.014156,0.16289 1.08085,-0.51257 0.325441,-2.3006 -0.395924,-2.53035"
       id="path1304"
       sodipodi:nodetypes="cssscsccsssc"
       inkscape:export-filename="/home/tom/Downloads/Android/Dwnld/Download/logo_rig/rig-logo.png"
       inkscape:export-xdpi="1481.2312"
       inkscape:export-ydpi="1481.2312" />
    <path
       style="fill:none;stroke:#8b3129;stroke-width:1.08378;stroke-linecap:round;stroke-linejoin:round;stroke-miterlimit:4;stroke-dasharray:none;stroke-opacity:1"
       d="m 55.433812,159.36036 c 0,0 3.157702,0.48009 4.603624,-0.0613 1.191673,-0.44615 2.847592,-2.72655 2.847592,-2.72655 l 0.06783,-2.23995 -0.129499,10.79686 c 0,0 -1.643781,2.99577 -1.75423,3.55584 -0.101942,0.51724 0.200034,2.36191 0.714517,2.86248 0.610606,0.59421 3.052569,0.46179 4.708076,0.23787 1.104263,-0.14927 2.204884,-0.40979 2.204884,-0.40979 0.640391,-0.16187 1.195007,0.54909 1.619518,0.48077 0.298527,-0.048 0.718199,-1.05747 0.816717,-1.69221 0.112496,-0.72439 -0.337373,-2.08356 -0.337373,-2.08356"
       id="path1306"
       sodipodi:nodetypes="cscccssssssc"
       inkscape:export-filename="/home/tom/Downloads/Android/Dwnld/Download/logo_rig/rig-logo.png"
       inkscape:export-xdpi="1481.2312"
       inkscape:export-ydpi="1481.2312" />
    <path
       style="fill:none;stroke:#8b3129;stroke-width:1.08378;stroke-linecap:round;stroke-linejoin:round;stroke-miterlimit:4;stroke-dasharray:none;stroke-opacity:1"
       d="m 66.120976,167.80734 c 0,0 -1.007715,-2.7258 -1.006325,-4.0786 0.0039,-3.06459 1.191943,-8.61341 1.191943,-8.61341"
       id="path1308"
       sodipodi:nodetypes="csc"
       inkscape:export-filename="/home/tom/Downloads/Android/Dwnld/Download/logo_rig/rig-logo.png"
       inkscape:export-xdpi="1481.2312"
       inkscape:export-ydpi="1481.2312" />
    <path
       style="fill:none;stroke:#8b3129;stroke-width:1.08378;stroke-linecap:round;stroke-linejoin:round;stroke-miterlimit:4;stroke-dasharray:none;stroke-opacity:1"
       d="m 69.424151,150.42804 c 0,0 1.131255,-1.53341 1.952502,-1.50505 3.576898,0.12369 7.700548,2.16416 10.0503,3.21533"
       id="path1310"
       sodipodi:nodetypes="csc"
       inkscape:export-filename="/home/tom/Downloads/Android/Dwnld/Download/logo_rig/rig-logo.png"
       inkscape:export-xdpi="1481.2312"
       inkscape:export-ydpi="1481.2312" />
    <path
       style="fill:none;stroke:#8b3129;stroke-width:1.03393;stroke-linecap:round;stroke-linejoin:round;stroke-miterlimit:4;stroke-dasharray:none;stroke-opacity:1"
       d="m 72.708663,153.08172 c 0.680022,0 2.970809,-0.36668 4.419537,0.0931 1.1484,0.36436 3.127931,2.0348 3.127931,2.0348"
       id="path1312"
       sodipodi:nodetypes="csc"
       inkscape:export-filename="/home/tom/Downloads/Android/Dwnld/Download/logo_rig/rig-logo.png"
       inkscape:export-xdpi="1481.2312"
       inkscape:export-ydpi="1481.2312" />
    <path
       style="fill:none;stroke:#8b3129;stroke-width:1.03393;stroke-linecap:round;stroke-linejoin:round;stroke-miterlimit:4;stroke-dasharray:none;stroke-opacity:1"
       d="m 80.098521,160.19749 c -1.738399,-0.0341 -2.221012,0.86776 -3.553563,0.6304 l -2.072965,-1.41051 m 0.06539,-0.89654 c 2.029382,-0.25898 3.20709,-0.31896 6.934442,-0.19356 l -2.718208,-2.62458 c -1.428687,-0.13324 -2.78792,-0.64568 -4.191109,-1.30986 l -2.160413,0.92618 c -0.08315,1.29182 1.423474,2.13454 2.135288,3.2018 l 2.920959,-0.85216 c 0.633002,-0.36596 0.515229,-1.34979 0.339084,-2.02226 l -2.287313,-0.76751 c 0,0 -0.916469,1.03373 -0.920652,1.69228 -0.0026,0.38685 -0.05483,1.56092 0.50183,0.70017 0.489525,-0.75697 0.518125,0.70716 1.318778,0.6359"
       id="path1314"
       sodipodi:nodetypes="ccccccccccccssc"
       inkscape:export-filename="/home/tom/Downloads/Android/Dwnld/Download/logo_rig/rig-logo.png"
       inkscape:export-xdpi="1481.2312"
       inkscape:export-ydpi="1481.2312" />
    <path
       style="fill:none;stroke:#8b3129;stroke-width:1.08378;stroke-linecap:round;stroke-linejoin:round;stroke-miterlimit:4;stroke-dasharray:none;stroke-opacity:1"
       d="m 79.851248,148.06797 6.970624,6.45014 c 0,0 2.401778,0.22731 2.715879,0.22731 0.314204,0 2.555643,-0.93497 2.555643,-0.93497 -1.141642,-0.6928 -1.917736,-1.12014 -2.014079,-2.29999"
       id="path1316"
       sodipodi:nodetypes="ccscc"
       inkscape:export-filename="/home/tom/Downloads/Android/Dwnld/Download/logo_rig/rig-logo.png"
       inkscape:export-xdpi="1481.2312"
       inkscape:export-ydpi="1481.2312" />
    <path
       style="fill:none;stroke:#8b3129;stroke-width:1.08378;stroke-linecap:round;stroke-linejoin:round;stroke-miterlimit:4;stroke-dasharray:none;stroke-opacity:1"
       d="m 87.271663,157.95495 c 0,0 2.897791,2.57186 3.278063,3.64417 0.470991,1.32811 0.222869,3.6888 0.591905,4.4407 l 1.021242,1.74547 c 1.435098,-0.51014 2.87022,-0.67399 4.305317,0.10195 l -0.920408,-2.22427 -0.243321,-6.79345 -2.4593,-2.84153"
       id="path1318"
       sodipodi:nodetypes="cscccccc"
       inkscape:export-filename="/home/tom/Downloads/Android/Dwnld/Download/logo_rig/rig-logo.png"
       inkscape:export-xdpi="1481.2312"
       inkscape:export-ydpi="1481.2312" />
    <path
       style="fill:none;stroke:#8b3129;stroke-width:1.08378;stroke-linecap:round;stroke-linejoin:round;stroke-miterlimit:4;stroke-dasharray:none;stroke-opacity:1"
       d="m 106.15987,178.7768 -1.17375,-0.33396 -0.1295,-2.53179 1.78379,-2.45913 c -1.25848,1.28566 -1.77884,2.6791 -3.77548,3.85694 -1.01208,0.18096 -3.489618,0.0958 -4.87386,-0.64912 -1.058982,-0.56974 -1.971551,-1.38745 -2.62305,-2.42997 -1.096695,-1.75483 -3.205069,-6.44441 -3.205069,-6.44441"
       id="path1320"
       sodipodi:nodetypes="cccccssc"
       inkscape:export-filename="/home/tom/Downloads/Android/Dwnld/Download/logo_rig/rig-logo.png"
       inkscape:export-xdpi="1481.2312"
       inkscape:export-ydpi="1481.2312" />
    <path
       style="fill:none;stroke:#8b3129;stroke-width:1.08378;stroke-linecap:round;stroke-linejoin:round;stroke-miterlimit:4;stroke-dasharray:none;stroke-opacity:1"
       d="m 98.820156,160.82199 c 0.927977,2.97948 1.868324,8.05611 2.783994,8.93846 0.51257,0.49393 2.54968,1.48484 4.0573,0.88123"
       id="path1322"
       sodipodi:nodetypes="csc"
       inkscape:export-filename="/home/tom/Downloads/Android/Dwnld/Download/logo_rig/rig-logo.png"
       inkscape:export-xdpi="1481.2312"
       inkscape:export-ydpi="1481.2312" />
    <path
       style="fill:none;stroke:#8b3129;stroke-width:1.08378;stroke-linecap:round;stroke-linejoin:round;stroke-miterlimit:4;stroke-dasharray:none;stroke-opacity:1"
       d="m 93.503919,175.12099 c 0,0 0.829794,1.66273 0.574451,2.46782 -0.217759,0.6862 -0.964133,1.12385 -1.612504,1.43669 -0.694335,0.33499 -1.712926,-0.12915 -2.278959,0.39432 -0.628098,0.5808 -1.043922,3.51876 -0.910639,4.37084 0.214695,1.37195 2.237192,3.51427 2.237192,3.51427"
       id="path1324"
       sodipodi:nodetypes="cssssc"
       inkscape:export-filename="/home/tom/Downloads/Android/Dwnld/Download/logo_rig/rig-logo.png"
       inkscape:export-xdpi="1481.2312"
       inkscape:export-ydpi="1481.2312" />
    <path
       style="fill:none;stroke:#8b3129;stroke-width:1.08378;stroke-linecap:round;stroke-linejoin:round;stroke-miterlimit:4;stroke-dasharray:none;stroke-opacity:1"
       d="m 92.151186,181.27711 c 0,0 1.856919,0.50779 2.692646,0.26002 0.485342,-0.14382 1.12971,-1.01502 1.12971,-1.01502"
       id="path1326"
       sodipodi:nodetypes="csc"
       inkscape:export-filename="/home/tom/Downloads/Android/Dwnld/Download/logo_rig/rig-logo.png"
       inkscape:export-xdpi="1481.2312"
       inkscape:export-ydpi="1481.2312" />
    <path
       style="fill:none;stroke:#8b3129;stroke-width:1.08378;stroke-linecap:round;stroke-linejoin:round;stroke-miterlimit:4;stroke-dasharray:none;stroke-opacity:1"
       d="m 94.62794,185.04736 c 0,0 1.254859,-0.0238 1.704277,-0.39493 0.696561,-0.57602 0.862075,-1.27482 1.097377,-2.47969 0.172438,-0.88247 -0.398331,-2.01826 -0.0012,-2.89965 0.182658,-0.40578 0.596229,-0.92874 1.033342,-0.84531 0.535643,0.1022 0.653932,0.90289 0.795659,1.4295 0.307047,1.14124 0.06371,3.54507 0.06371,3.54507"
       id="path1328"
       sodipodi:nodetypes="cassssc"
       inkscape:export-filename="/home/tom/Downloads/Android/Dwnld/Download/logo_rig/rig-logo.png"
       inkscape:export-xdpi="1481.2312"
       inkscape:export-ydpi="1481.2312" />
    <path
       style="fill:none;stroke:#8b3129;stroke-width:1.08378;stroke-linecap:round;stroke-linejoin:round;stroke-miterlimit:4;stroke-dasharray:none;stroke-opacity:1"
       d="m 39.331076,131.38938 c 0,0 2.658288,4.20567 4.242614,6.11468 2.307726,2.7807 4.978079,4.20349 7.97857,5.19418 2.681628,0.88537 4.123534,1.57027 6.916397,1.89906 2.738957,0.32237 4.115502,0.641 6.159841,0.40658 4.867501,-0.55813 8.836758,0.62568 13.157856,-0.12704 1.962734,-0.34191 3.82094,-1.41897 5.619886,-2.27509 3.444387,-1.63911 9.7618,-5.70263 9.7618,-5.70263 0,0 3.597789,-2.72496 5.745318,-3.69668 0.70776,-0.32033 2.286192,-0.93623 2.286192,-0.93623"
       id="path1330"
       sodipodi:nodetypes="csssssscsc"
       inkscape:export-filename="/home/tom/Downloads/Android/Dwnld/Download/logo_rig/rig-logo.png"
       inkscape:export-xdpi="1481.2312"
       inkscape:export-ydpi="1481.2312" />
    <path
       style="fill:none;stroke:#8b3129;stroke-width:1.08378;stroke-linecap:round;stroke-linejoin:round;stroke-miterlimit:4;stroke-dasharray:none;stroke-opacity:1"
       d="m 51.55226,142.69824 c -6.31574,-3.52017 -5.570588,-10.44992 -2.810985,-15.84937"
       id="path1334"
       sodipodi:nodetypes="cc"
       inkscape:export-filename="/home/tom/Downloads/Android/Dwnld/Download/logo_rig/rig-logo.png"
       inkscape:export-xdpi="1481.2312"
       inkscape:export-ydpi="1481.2312" />
    <path
       style="fill:none;stroke:#8b3129;stroke-width:1.08378;stroke-linecap:round;stroke-linejoin:round;stroke-miterlimit:4;stroke-dasharray:none;stroke-opacity:1"
       d="m 77.786354,144.8768 8.151497,2.8359 c 0,0 4.852777,1.93533 7.106083,3.33624 3.098134,1.9262 8.571196,6.9012 8.571196,6.9012"
       id="path1336"
       sodipodi:nodetypes="ccsc"
       inkscape:export-filename="/home/tom/Downloads/Android/Dwnld/Download/logo_rig/rig-logo.png"
       inkscape:export-xdpi="1481.2312"
       inkscape:export-ydpi="1481.2312" />
    <path
       style="opacity:0.981987;fill:#8b3129;fill-opacity:1;stroke:none;stroke-width:0.901646px;stroke-linecap:butt;stroke-linejoin:miter;stroke-opacity:1"
       d="m 66.36821,117.08191 c 0,0 8.770149,1.15896 13.160558,2.03124 3.633468,0.72195 7.627001,1.48683 10.746939,2.83073 0.99532,0.42874 7.443352,6.71899 10.923843,10.32233 2.30169,2.38293 3.97018,4.79753 6.57166,7.45636 0.46152,0.47171 1.20984,2.38587 1.89133,3.55492 1.03499,1.77543 3.15426,4.08677 3.26416,4.85288 0.0978,0.68271 -1.10365,4.88732 -1.54516,5.3653 -0.59917,0.64864 -9.32374,4.03289 -9.76641,4.45447 -0.96055,0.91486 -2.693187,3.14148 -1.672755,4.09376 1.303015,1.21596 3.042035,3.46689 4.232075,4.93848 0.74913,0.92631 2.42741,5.87819 2.42741,5.87819 0,0 0.1905,3.1062 -0.0344,4.6392 -0.23002,1.56912 -0.90239,2.47913 -1.50781,4.42301 -0.30739,0.98659 -1.18742,1.22067 -2.1994,1.67081 -1.0953,0.48722 -2.65525,-0.51076 -3.80719,-0.24775 -0.925351,0.21129 -2.229623,2.30109 -3.550886,3.73669 -0.522244,0.56743 -1.363055,0.42686 -2.13404,0.41143 -0.641381,-0.0136 -1.700827,-0.97842 -1.889483,-0.36529 -0.25013,0.8131 -1.599928,0.78178 -1.605656,1.51334 -0.0064,1.12301 2.939738,3.00711 4.141812,4.75187 2.127591,3.08822 3.252912,6.70392 4.860705,10.07515 2.033678,4.26418 6.003038,12.85337 6.003038,12.85337 l -21.564345,0.12717 -0.02047,1.14913 31.837575,0.092 c 0,0 -1.80257,-4.63642 -3.63626,-8.32832 -1.03808,-2.08997 -2.88245,-6.16304 -2.88245,-6.16304 l 0.51809,-0.3421 c 0,0 -4.15489,-9.10503 -6.04445,-10.11694 -0.45593,-0.24434 -0.13428,-0.99222 -0.77293,-1.50331 -0.27262,-0.21811 -1.43393,-0.37394 -1.81206,-1.07446 0,0 0.57135,-0.50605 1.51303,-0.76338 0.54105,-0.1479 1.02912,-0.21742 1.52032,-0.42389 1.04697,-0.44039 2.04583,-1.05164 2.89223,-1.78593 0.88242,-0.76555 2.16525,-2.53124 2.16525,-2.53124 0.94151,0.12882 1.20394,0.0412 1.64685,-0.11481 -0.0273,0.34825 0.55057,0.83218 1.07677,0.74941 1.33858,-0.2106 3.49967,-1.7023 3.87712,-2.17618 0.32033,-0.40236 1.62299,-4.90519 1.5897,-5.54303 -0.17755,-3.4006 -0.68623,-6.77188 -2.19354,-9.91291 -1.06231,-2.21374 -5.16189,-5.67391 -5.06596,-6.12045 0.12331,-0.57438 0.53209,-1.61168 1.13804,-2.01213 2.44072,-1.61294 8.23072,-2.40583 10.34683,-5.07209 1.24138,-1.56415 1.61859,-3.06229 1.94843,-5.72439 0.12266,-0.99106 -2.56487,-4.90155 -4.19346,-7.12445 -2.32798,-3.17137 -5.06086,-5.99585 -7.75895,-8.84495 0,0 -8.58373,-9.69048 -9.64884,-10.22887 -1.68151,-0.85002 -6.116802,-1.74071 -9.304147,-2.59655 -12.133704,-3.25806 -25.996205,-3.93794 -25.996205,-3.93794 z"
       id="path1338"
       sodipodi:nodetypes="csssssssssscssssssssssccccsccsscsssccssssssssccsscc"
       inkscape:export-filename="/home/tom/Downloads/Android/Dwnld/Download/logo_rig/rig-logo.png"
       inkscape:export-xdpi="1481.2312"
       inkscape:export-ydpi="1481.2312" />
    <path
       style="fill:none;stroke:#8b3129;stroke-width:0.860179px;stroke-linecap:round;stroke-linejoin:round;stroke-opacity:1"
       d="m 57.666704,154.17103 c -1.755157,0.2365 -1.305765,2.72502 0.628227,2.10596 1.112823,-0.35622 0.89428,-1.64662 0.484454,-1.80856"
       id="path89596"
       sodipodi:nodetypes="csc"
       inkscape:export-filename="/home/tom/Downloads/Android/Dwnld/Download/logo_rig/rig-logo.png"
       inkscape:export-xdpi="1481.2312"
       inkscape:export-ydpi="1481.2312" />
    <path
       style="fill:none;stroke:#8b3129;stroke-width:0.860179px;stroke-linecap:round;stroke-linejoin:round;stroke-opacity:1"
       d="m 76.496163,155.23951 c -1.572911,0.0904 -1.687724,1.63646 -0.520031,2.09621 1.367651,0.53847 2.526296,-1.07574 1.124472,-1.89907"
       id="path92890"
       sodipodi:nodetypes="csc"
       inkscape:export-filename="/home/tom/Downloads/Android/Dwnld/Download/logo_rig/rig-logo.png"
       inkscape:export-xdpi="1481.2312"
       inkscape:export-ydpi="1481.2312" />
  </g>
</svg>
