<?xml version="1.0" encoding="UTF-8" standalone="no"?>
<!-- Created with Inkscape (http://www.inkscape.org/) -->

<svg
   width="32.712105mm"
   height="32.73304mm"
   viewBox="0 0 32.712105 32.73304"
   version="1.1"
   id="svg1457"
   inkscape:version="1.1.1 (3bf5ae0d25, 2021-09-20)"
   sodipodi:docname="sproket.svg"
   xmlns:inkscape="http://www.inkscape.org/namespaces/inkscape"
   xmlns:sodipodi="http://sodipodi.sourceforge.net/DTD/sodipodi-0.dtd"
   xmlns="http://www.w3.org/2000/svg"
   xmlns:svg="http://www.w3.org/2000/svg">
  <sodipodi:namedview
     id="namedview1459"
     pagecolor="#505050"
     bordercolor="#ffffff"
     borderopacity="1"
     inkscape:pageshadow="0"
     inkscape:pageopacity="0"
     inkscape:pagecheckerboard="1"
     inkscape:document-units="mm"
     showgrid="false"
     inkscape:zoom="1.5411756"
     inkscape:cx="99.274862"
     inkscape:cy="215.74439"
     inkscape:window-width="1920"
     inkscape:window-height="1058"
     inkscape:window-x="0"
     inkscape:window-y="22"
     inkscape:window-maximized="1"
     inkscape:current-layer="layer1" />
  <defs
     id="defs1454" />
  <g
     inkscape:label="Layer 1"
     inkscape:groupmode="layer"
     id="layer1"
     transform="translate(-89.74006,-95.567382)">
    <path
       style="fill:#1a83ab;fill-opacity:1;stroke-width:0.352778;opacity:0.35"
       d="m 109.60844,127.78949 c -0.01,-0.0475 -0.031,-0.091 -0.0464,-0.0966 -0.0155,-0.006 -0.0385,-0.0591 -0.0511,-0.11889 -0.0127,-0.0598 -0.034,-0.11281 -0.0474,-0.11763 -0.0132,-0.005 -0.0487,-0.0853 -0.0784,-0.17895 -0.0297,-0.0936 -0.0659,-0.17447 -0.0804,-0.17969 -0.0144,-0.005 -0.0305,-0.0284 -0.0355,-0.0515 -0.005,-0.0231 -0.0301,-0.0675 -0.0559,-0.0986 -0.0257,-0.0311 -0.0616,-0.0871 -0.0798,-0.1242 -0.0344,-0.0702 -0.14925,-0.18905 -0.20127,-0.20812 -0.0163,-0.006 -0.0679,-0.0333 -0.11407,-0.061 -0.0586,-0.0345 -0.0984,-0.0418 -0.13107,-0.0234 -0.0286,0.0163 -0.0432,0.0156 -0.0371,-0.001 0.0141,-0.0405 -0.0753,-0.04 -0.35251,-1.1e-4 -0.14358,0.0208 -0.25581,0.0478 -0.2715,0.0659 -0.0144,0.017 -0.0524,0.034 -0.0836,0.0382 -0.0313,0.004 -0.0548,0.0171 -0.0523,0.0289 0.002,0.012 -0.0162,0.0259 -0.0416,0.0312 -0.0755,0.0159 -0.2282,0.21571 -0.25755,0.33661 -0.015,0.0619 -0.0357,0.11437 -0.0458,0.11677 -0.0102,0.003 -0.0102,0.0463 7e-5,0.0976 0.0257,0.12953 0.0251,0.30747 -0.002,0.45627 -0.008,0.0418 -0.0115,0.0866 -0.009,0.0995 0.003,0.013 -0.002,0.0453 -0.01,0.0718 -0.008,0.0267 -0.0269,0.10797 -0.0418,0.18097 l -0.027,0.13276 -0.26776,0.0419 c -0.19701,0.0308 -0.30361,0.0344 -0.4035,0.0136 -0.0746,-0.0155 -0.14118,-0.0314 -0.14778,-0.035 -0.007,-0.004 -0.0398,-0.14884 -0.073,-0.32263 -0.0637,-0.33056 -0.22212,-0.84443 -0.25751,-0.83693 -0.0111,0.003 -0.0239,-0.0131 -0.0285,-0.0337 -0.0284,-0.13395 -0.42755,-0.36737 -0.5227,-0.3056 -0.0212,0.0137 -0.0292,0.01 -0.0218,-0.0108 0.008,-0.0231 -0.0149,-0.022 -0.0821,0.004 -0.0548,0.0212 -0.0815,0.0246 -0.0643,0.008 0.0546,-0.0526 -0.41767,-0.0108 -0.48869,0.0433 -0.0267,0.0204 -0.0846,0.0599 -0.12875,0.0878 -0.0439,0.0279 -0.11297,0.0999 -0.1533,0.15989 -0.073,0.10869 -0.13945,0.33284 -0.10829,0.36543 0.009,0.01 0.005,0.0195 -0.01,0.0228 -0.0145,0.003 -0.0227,0.0227 -0.0179,0.0438 0.01,0.0451 -0.0522,0.28761 -0.088,0.34583 -0.0145,0.022 -0.0402,0.0998 -0.0597,0.17164 -0.0495,0.1867 -0.0661,0.20175 -0.21419,0.19377 -0.0685,-0.004 -0.13715,-0.014 -0.1526,-0.0228 -0.0153,-0.009 -0.0417,-0.0136 -0.0588,-0.01 -0.0169,0.004 -0.0649,7e-5 -0.10681,-0.008 -0.0419,-0.008 -0.13581,-0.0205 -0.20874,-0.0278 -0.12644,-0.0128 -0.13397,-0.0179 -0.16116,-0.10868 -0.0157,-0.0524 -0.0219,-0.12077 -0.0144,-0.15188 0.008,-0.0312 0.0111,-0.0969 0.007,-0.14605 -0.004,-0.0491 -0.004,-0.13662 -0.001,-0.19438 0.003,-0.0577 -0.0241,-0.24611 -0.0605,-0.41859 -0.0542,-0.25858 -0.0785,-0.33117 -0.138,-0.41354 -0.0797,-0.1103 -0.17358,-0.17684 -0.19935,-0.14112 -0.009,0.0127 -0.0119,0.009 -0.006,-0.008 0.0136,-0.0417 -0.0615,-0.0809 -0.24264,-0.12641 -0.083,-0.0208 -0.17233,-0.0442 -0.19877,-0.0516 -0.0262,-0.008 -0.0698,-0.009 -0.0965,-0.003 -0.0267,0.006 -0.0578,5.9e-4 -0.0692,-0.0112 -0.0255,-0.0266 -0.39203,0.0483 -0.38549,0.0791 0.002,0.012 -0.0329,0.0377 -0.0788,0.0568 -0.0459,0.0191 -0.0816,0.0435 -0.0794,0.0543 0.003,0.0111 -0.0207,0.0404 -0.0509,0.0659 -0.0303,0.0256 -0.0518,0.0613 -0.0479,0.0794 0.004,0.0183 -0.004,0.0354 -0.0183,0.0384 -0.0141,0.003 -0.0358,0.0513 -0.0485,0.10763 -0.0129,0.0562 -0.0342,0.12 -0.0473,0.1417 -0.0132,0.0217 -0.0222,0.0487 -0.0198,0.06 0.003,0.0111 -0.0331,0.0795 -0.0802,0.15112 -0.0462,0.0719 -0.11548,0.19284 -0.15367,0.26878 -0.0544,0.10688 -0.0856,0.14146 -0.14111,0.15321 -0.0393,0.008 -0.0739,0.004 -0.0768,-0.01 -0.003,-0.0135 -0.0381,-0.0177 -0.078,-0.009 -0.0399,0.008 -0.0906,0.004 -0.11256,-0.009 -0.0218,-0.0133 -0.0891,-0.0364 -0.14917,-0.0524 -0.0602,-0.0156 -0.13753,-0.0488 -0.17166,-0.0742 -0.0345,-0.0246 -0.076,-0.0425 -0.0926,-0.0391 -0.0425,0.009 -0.0689,-0.13815 -0.0423,-0.23407 0.0122,-0.0435 0.0175,-0.10012 0.0119,-0.12586 -0.005,-0.0258 4.3e-4,-0.049 0.0127,-0.0518 0.0127,-0.003 0.0237,-0.0397 0.0234,-0.0829 2.8e-4,-0.0429 0.009,-0.0799 0.0202,-0.0822 0.0193,-0.004 0.023,-0.0858 0.0217,-0.47174 -0.001,-0.33618 -0.11299,-0.58039 -0.32245,-0.70427 -0.14125,-0.0835 -0.15236,-0.0885 -0.34072,-0.15054 -0.236299,-0.0786 -0.41717,-0.0767 -0.606897,0.006 -0.168291,0.0737 -0.264278,0.17187 -0.367772,0.37626 -0.07227,0.14338 -0.445231,0.60296 -0.497883,0.61413 -0.01439,0.003 -0.06907,-0.0228 -0.122142,-0.057 -0.08845,-0.0575 -0.09807,-0.0586 -0.118457,-0.0131 -0.01927,0.0428 -0.025,0.045 -0.04472,0.015 -0.01229,-0.019 -0.01359,-0.0337 -0.0031,-0.0326 0.01061,0.002 0.01803,-0.009 0.01625,-0.0235 -0.0013,-0.014 -0.0767,-0.0667 -0.16757,-0.117 -0.29487,-0.16342 -0.283167,-0.14937 -0.242684,-0.29085 0.01931,-0.0674 0.04348,-0.12422 0.05355,-0.12652 0.0098,-0.002 0.01651,-0.0144 0.01342,-0.0276 -0.0045,-0.0216 0.08883,-0.27561 0.114392,-0.31101 0.02684,-0.037 0.04869,-0.14378 0.03898,-0.18959 -0.0058,-0.0274 9.1e-5,-0.0523 0.01307,-0.055 0.01315,-0.003 0.02305,-0.0455 0.02162,-0.0955 -0.0012,-0.0496 0.0064,-0.0922 0.01677,-0.0945 0.01068,-0.002 0.01924,-0.0421 0.0194,-0.0885 0.0018,-0.29512 -0.06925,-0.47747 -0.23932,-0.61458 -0.156729,-0.12633 -0.252883,-0.18291 -0.295471,-0.17392 -0.01933,0.004 -0.03126,-0.003 -0.0261,-0.0175 0.0099,-0.0264 -0.18881,-0.11892 -0.234355,-0.10953 -0.0152,0.003 -0.03466,-0.006 -0.04325,-0.0206 -0.01,-0.0169 -0.09158,-0.0114 -0.225973,0.0154 -0.232946,0.0468 -0.339451,0.10952 -0.447661,0.26472 -0.03331,0.0478 -0.06807,0.0883 -0.07728,0.0904 -0.0094,0.001 -0.02855,0.0208 -0.04305,0.0417 -0.01405,0.0211 -0.10357,0.0998 -0.198241,0.17536 -0.09455,0.0756 -0.169951,0.14702 -0.167435,0.15882 0.0022,0.012 -0.0044,0.0216 -0.01516,0.0211 -0.01027,8e-4 -0.05015,0.0161 -0.08765,0.0355 -0.05548,0.0289 -0.07831,0.0274 -0.122782,-0.008 -0.02984,-0.0247 -0.06622,-0.0418 -0.08018,-0.0389 -0.0142,0.003 -0.0461,-0.0134 -0.0708,-0.0368 -0.02495,-0.0231 -0.05264,-0.0318 -0.06161,-0.0194 -0.0099,0.0121 -0.0119,0.009 -0.0074,-0.008 0.0055,-0.0168 -0.04424,-0.0703 -0.11001,-0.11946 -0.06571,-0.0491 -0.132411,-0.11893 -0.148034,-0.15524 -0.01596,-0.0362 -0.05178,-0.0695 -0.08014,-0.0739 -0.04719,-0.007 -0.04596,-0.0144 0.01413,-0.0839 0.0362,-0.0418 0.102552,-0.15091 0.147338,-0.24246 0.04515,-0.0914 0.08651,-0.16344 0.09265,-0.15978 0.01948,0.0122 0.157402,-0.26563 0.181175,-0.36461 0.01265,-0.0526 0.02845,-0.10271 0.03532,-0.11123 0.0062,-0.009 0.03084,-0.0769 0.05389,-0.15178 0.02886,-0.0942 0.03288,-0.15512 0.01321,-0.19743 -0.02144,-0.0461 -0.02048,-0.0533 0.0046,-0.0292 0.02489,0.0239 0.02759,0.006 0.01113,-0.0738 -0.0121,-0.0581 -0.03284,-0.10336 -0.04604,-0.10049 -0.01333,0.003 -0.02152,-0.0106 -0.01852,-0.0299 0.006,-0.0373 -0.07201,-0.15355 -0.164912,-0.24596 -0.03117,-0.0309 -0.08582,-0.0865 -0.121771,-0.12341 -0.03585,-0.037 -0.07401,-0.0654 -0.08476,-0.063 -0.0111,0.003 -0.0227,-0.0107 -0.02645,-0.0289 -0.0039,-0.0183 -0.03813,-0.0421 -0.07619,-0.0532 -0.03814,-0.0109 -0.0714,-0.0283 -0.07333,-0.0402 -0.0061,-0.0287 -0.212823,-0.0807 -0.271438,-0.0683 -0.02701,0.006 -0.05851,7e-4 -0.06979,-0.0112 -0.01168,-0.012 -0.06396,-0.0124 -0.117017,-0.001 -0.053,0.0113 -0.100938,0.0331 -0.106453,0.0485 -0.006,0.0155 -0.03456,0.0335 -0.0645,0.04 -0.02985,0.007 -0.07896,0.0333 -0.109066,0.0597 -0.151455,0.13202 -0.240364,0.19632 -0.31556,0.22824 -0.04547,0.0193 -0.08692,0.0431 -0.092,0.0529 -0.01431,0.0279 -0.234829,0.13781 -0.315329,0.15737 -0.05792,0.0141 -0.09057,5.4e-4 -0.162419,-0.0667 -0.0493,-0.0467 -0.103306,-0.11407 -0.119916,-0.14995 -0.01687,-0.0358 -0.03908,-0.0566 -0.04997,-0.0462 -0.01082,0.0107 -0.02485,-0.004 -0.03068,-0.0322 -0.0059,-0.0281 -0.02389,-0.0483 -0.03985,-0.045 -0.01603,0.004 -0.0237,-0.002 -0.017,-0.0122 0.0072,-0.0106 -0.0238,-0.0532 -0.06777,-0.0955 -0.09032,-0.0867 -0.123616,-0.18523 -0.06658,-0.19731 0.02047,-0.004 0.03525,-0.0174 0.03278,-0.0289 -0.0027,-0.0111 0.03046,-0.0502 0.07258,-0.0862 0.0423,-0.0359 0.07559,-0.0721 0.07387,-0.0802 -0.0014,-0.008 0.04444,-0.0625 0.102538,-0.12045 0.108048,-0.10771 0.368241,-0.47431 0.360971,-0.50855 -0.0018,-0.0107 0.01704,-0.0487 0.04278,-0.085 0.05969,-0.0847 0.08493,-0.29361 0.05296,-0.43918 -0.02631,-0.11962 -0.140853,-0.3302 -0.209012,-0.38412 -0.02217,-0.0178 -0.0327,-0.0337 -0.02317,-0.0357 0.0096,-0.002 -0.0039,-0.0175 -0.03014,-0.0344 -0.02576,-0.0173 -0.0503,-0.0451 -0.05407,-0.0627 -0.0038,-0.0176 -0.06611,-0.0737 -0.138697,-0.12468 -0.07251,-0.0509 -0.128849,-0.0973 -0.125109,-0.10305 0.01455,-0.0219 -0.234507,-0.0469 -0.35696,-0.0358 -0.09305,0.008 -0.17281,0.0364 -0.290964,0.10143 -0.08953,0.0493 -0.223054,0.10249 -0.296746,0.11811 -0.07362,0.0156 -0.142522,0.0404 -0.152983,0.0551 -0.01055,0.0146 -0.09295,0.0493 -0.183378,0.0769 l -0.164381,0.0502 -0.05778,-0.071 c -0.03189,-0.039 -0.06658,-0.0752 -0.07729,-0.0799 -0.03471,-0.0157 -0.147601,-0.20141 -0.161045,-0.26482 -0.0072,-0.0339 -0.02347,-0.0594 -0.03608,-0.0568 -0.0128,0.003 -0.0356,-0.0542 -0.05095,-0.12661 l -0.02788,-0.13149 0.130291,-0.11086 c 0.07165,-0.061 0.147088,-0.11444 0.167603,-0.11878 0.02047,-0.004 0.03541,-0.017 0.03306,-0.028 -0.0043,-0.0198 0.14894,-0.14038 0.188951,-0.14887 0.03362,-0.007 0.333021,-0.35722 0.399503,-0.46716 0.03393,-0.0561 0.06384,-0.12787 0.06705,-0.15937 0.003,-0.0316 0.0156,-0.0675 0.02806,-0.0798 0.05474,-0.0541 -0.08217,-0.49452 -0.197379,-0.63452 -0.01734,-0.021 -0.03463,-0.0526 -0.03834,-0.0701 -0.02477,-0.11682 -0.285519,-0.31686 -0.444301,-0.34082 -0.04671,-0.007 -0.111162,-0.019 -0.143313,-0.0266 -0.03367,-0.008 -0.108195,0.005 -0.175342,0.0298 -0.184299,0.068 -0.670895,0.1787 -0.691356,0.1573 -0.01065,-0.0104 -0.06741,-0.009 -0.127145,0.004 -0.129296,0.0275 -0.118448,0.0421 -0.255585,-0.34803 -0.122185,-0.34759 -0.144029,-0.46362 -0.09023,-0.47796 0.131184,-0.0352 0.479488,-0.19484 0.474615,-0.21783 -0.0024,-0.011 0.01845,-0.0256 0.04682,-0.0316 0.04583,-0.01 0.138924,-0.0722 0.383943,-0.25796 0.169296,-0.12834 0.339199,-0.47688 0.278248,-0.57086 -0.01216,-0.0184 -0.0095,-0.0362 0.0057,-0.0394 0.07967,-0.0169 -0.144976,-0.6017 -0.286098,-0.74508 -0.124723,-0.12664 -0.261563,-0.20119 -0.355713,-0.1936 -0.0095,0.001 -0.02739,-0.005 -0.03946,-0.0137 -0.01258,-0.008 -0.09826,0.001 -0.190819,0.0209 -0.09255,0.0196 -0.177516,0.0259 -0.188844,0.0142 -0.01165,-0.0119 -0.04876,-0.0157 -0.08334,-0.008 -0.06944,0.0147 -0.454929,0.006 -0.550566,-0.0131 -0.04373,-0.009 -0.06513,-0.0331 -0.07664,-0.086 -0.01056,-0.0497 -0.03475,-0.0796 -0.07306,-0.0908 -0.0451,-0.013 -0.05878,-0.0346 -0.06363,-0.10151 -0.0034,-0.0467 -5.9e-5,-0.10199 0.0074,-0.12297 0.0073,-0.0211 0.01337,-0.0555 0.01284,-0.0768 -9.49e-4,-0.0212 -0.0015,-0.0678 -0.0021,-0.10334 -2.43e-4,-0.0356 -0.0017,-0.10177 -0.0025,-0.14711 -0.0018,-0.10269 0.0723,-0.15281 0.302246,-0.20327 0.312658,-0.069 0.723275,-0.23819 0.880845,-0.3633 0.04032,-0.0321 0.111306,-0.11645 0.157569,-0.18744 0.11833,-0.18169 0.131546,-0.36958 0.05229,-0.7433 -0.05254,-0.24776 -0.07052,-0.29781 -0.137767,-0.37729 -0.106086,-0.12591 -0.300342,-0.2207 -0.472737,-0.23047 -0.289813,-0.0165 -0.354383,-0.0234 -0.382132,-0.0405 -0.01565,-0.009 -0.04842,-0.0134 -0.07307,-0.008 -0.02459,0.005 -0.04663,3.1e-4 -0.04895,-0.0108 -0.0068,-0.0319 -0.276065,-0.0791 -0.304864,-0.0534 -0.01433,0.0128 -0.02029,0.0135 -0.0136,0.001 0.0071,-0.0121 -0.0148,-0.0394 -0.0474,-0.061 -0.03877,-0.0254 -0.05673,-0.055 -0.05074,-0.0844 0.0055,-0.0249 0.0068,-0.0828 0.0036,-0.12851 -0.0033,-0.0456 0.0032,-0.085 0.01392,-0.0873 0.01101,-0.003 0.0128,-0.0757 0.0044,-0.16312 -0.0083,-0.0874 -0.0082,-0.19776 5.43e-4,-0.24517 0.01192,-0.0648 0.0081,-0.0876 -0.0158,-0.0919 -0.06311,-0.0113 0.31904,-0.0832 0.469844,-0.0883 0.235795,-0.008 0.668141,-0.1095 0.810468,-0.19024 0.180122,-0.10221 0.354475,-0.31485 0.313388,-0.3822 -0.0099,-0.0165 -0.006,-0.0254 0.0095,-0.02 0.01523,0.005 0.02291,-0.0132 0.01662,-0.0413 -0.0059,-0.0282 3.09e-4,-0.0535 0.01396,-0.0564 0.01347,-0.003 0.02013,-0.0276 0.01423,-0.0549 -0.0058,-0.0273 -0.0014,-0.0516 0.0094,-0.0539 0.01119,-0.003 0.01833,-0.11389 0.01632,-0.24787 -0.0035,-0.23274 -0.007,-0.25011 -0.07852,-0.38762 -0.09815,-0.1874 -0.238844,-0.30057 -0.421386,-0.33895 -0.05406,-0.0113 -0.123221,-0.0285 -0.153846,-0.0381 -0.03056,-0.01 -0.09228,-0.0282 -0.137266,-0.041 -0.04497,-0.0129 -0.100061,-0.0343 -0.12255,-0.0473 -0.02229,-0.0135 -0.04998,-0.0152 -0.06125,-0.005 -0.01154,0.0106 -0.0195,0.009 -0.01847,-0.004 0.0022,-0.0284 -0.134416,-0.10369 -0.265884,-0.14652 -0.08898,-0.029 -0.09282,-0.0348 -0.09971,-0.14542 -0.004,-0.0634 0.0042,-0.16667 0.01811,-0.22951 0.01391,-0.0628 0.02275,-0.12602 0.0197,-0.14042 -0.003,-0.0144 0.0056,-0.0287 0.01897,-0.0316 0.01347,-0.003 0.021,-0.0231 0.01664,-0.0447 -0.01043,-0.0493 0.05255,-0.18158 0.07851,-0.1647 0.01065,0.007 0.01355,-0.0133 0.0069,-0.0447 -0.01115,-0.0525 -0.0047,-0.0571 0.0847,-0.0593 0.05324,-0.001 0.11102,-0.004 0.128374,-0.007 0.01748,-0.002 0.03332,0.005 0.03593,0.0165 0.0024,0.011 0.02771,0.016 0.05649,0.01 0.02872,-0.006 0.09067,-0.003 0.137819,0.007 0.1699,0.0365 0.432557,0.0241 0.713662,-0.0337 0.340672,-0.0705 0.484589,-0.18315 0.580157,-0.45611 0.01953,-0.0556 0.04069,-0.10807 0.04743,-0.11654 0.0063,-0.009 0.02574,-0.10119 0.0427,-0.20595 0.04608,-0.28538 -0.0064,-0.50544 -0.161381,-0.67643 -0.08991,-0.0994 -0.108846,-0.11134 -0.25916,-0.16489 -0.162183,-0.0578 -0.683294,-0.41017 -0.696152,-0.47068 -0.0054,-0.0256 0.01037,-0.0891 0.03496,-0.14097 0.02463,-0.0521 0.04315,-0.10263 0.04091,-0.11263 -0.0022,-0.01 0.0068,-0.0366 0.01972,-0.0594 0.05364,-0.0934 0.06987,-0.12952 0.06635,-0.14823 -0.0018,-0.0107 0.02138,-0.0645 0.05221,-0.11905 0.03093,-0.0546 0.04945,-0.10629 0.04103,-0.11499 -0.008,-0.009 0.02944,-0.0251 0.0838,-0.0366 0.0543,-0.0115 0.09443,-0.0145 0.08929,-0.006 -0.01268,0.0193 0.557772,0.17252 0.605056,0.1625 0.02013,-0.004 0.03851,0.001 0.04086,0.0121 0.0043,0.0196 0.126038,0.0269 0.432616,0.0261 0.325526,-9.9e-4 0.551234,-0.20768 0.726439,-0.66539 0.08281,-0.21642 0.08379,-0.44336 0.0025,-0.59435 -0.07392,-0.13746 -0.134121,-0.19751 -0.342211,-0.34182 -0.09918,-0.0687 -0.181792,-0.13155 -0.183627,-0.13954 -0.0098,-0.0422 -0.245305,-0.25603 -0.248883,-0.22589 -0.0022,0.0194 -0.02319,-0.0161 -0.04671,-0.078 -0.02857,-0.0761 -0.03581,-0.13418 -0.02305,-0.17678 0.01071,-0.0349 0.018,-0.0726 0.01619,-0.0837 -0.0018,-0.0107 0.03266,-0.0696 0.07718,-0.12987 0.04428,-0.0603 0.06557,-0.0975 0.04734,-0.0825 -0.01825,0.0148 -0.01552,-5.1e-4 0.0058,-0.0336 0.02127,-0.0335 0.0434,-0.0584 0.04878,-0.0554 0.0054,0.003 0.02704,-0.0212 0.04803,-0.0535 0.02077,-0.0324 0.04903,-0.0549 0.06232,-0.0501 0.01302,0.005 0.02697,-0.009 0.03048,-0.0315 0.01011,-0.064 0.130758,-0.0739 0.211,-0.0172 0.03967,0.0281 0.06893,0.0371 0.06555,0.019 -0.0036,-0.0174 0.01482,-0.0115 0.04106,0.0133 0.04296,0.0401 0.347426,0.18497 0.49125,0.23379 0.07252,0.0244 0.363061,0.0969 0.460194,0.11441 0.09294,0.0168 0.348304,-0.0345 0.341064,-0.0687 -0.003,-0.0136 0.01805,-0.0296 0.04605,-0.0357 0.07075,-0.015 0.128939,-0.0674 0.260017,-0.23435 0.142088,-0.18087 0.218594,-0.31093 0.209517,-0.35617 -0.004,-0.0194 0.002,-0.0293 0.0138,-0.0217 0.03345,0.0219 0.05497,-0.14959 0.03857,-0.30632 -0.01446,-0.13708 -0.119324,-0.37401 -0.177116,-0.40006 -0.03617,-0.0163 -0.232912,-0.22734 -0.239099,-0.2565 -0.0035,-0.016 -0.01731,-0.0265 -0.03078,-0.024 -0.01347,0.003 -0.02905,-0.0141 -0.03406,-0.0384 -0.0051,-0.0241 -0.04577,-0.0884 -0.0904,-0.14303 -0.11515,-0.14106 -0.146914,-0.26777 -0.08639,-0.34461 0.02621,-0.0332 0.0567,-0.0628 0.06784,-0.0656 0.0111,-0.003 0.03185,-0.0223 0.04606,-0.0431 0.0141,-0.0209 0.04387,-0.0561 0.06592,-0.0784 0.02206,-0.0222 0.07647,-0.0776 0.120959,-0.123 0.04453,-0.0454 0.08763,-0.084 0.09574,-0.0857 0.0083,-0.002 0.02445,-0.0247 0.03633,-0.0511 0.03355,-0.0749 0.09669,-0.0831 0.158113,-0.0204 0.03084,0.0315 0.120077,0.10218 0.198283,0.15692 0.07818,0.0548 0.17944,0.12915 0.225086,0.16512 0.04562,0.036 0.170316,0.10858 0.277095,0.16122 0.106517,0.0532 0.201299,0.10209 0.210137,0.10966 0.0238,0.0208 0.348747,0.0526 0.408537,0.0399 0.05188,-0.011 0.418688,-0.21383 0.375782,-0.20781 -0.01266,0.002 0.02115,-0.0332 0.07434,-0.0779 0.05344,-0.0446 0.09405,-0.097 0.09024,-0.11647 -0.004,-0.0194 0.01201,-0.0361 0.0348,-0.0372 0.0602,-0.003 0.179657,-0.1936 0.180328,-0.28836 2.95e-4,-0.0445 0.0096,-0.0894 0.02046,-0.0999 0.0268,-0.0256 -0.04449,-0.354577 -0.0871,-0.402378 -0.07714,-0.08647 -0.188633,-0.28261 -0.22925,-0.403238 -0.02427,-0.07084 -0.057,-0.149491 -0.07361,-0.174499 -0.05177,-0.07793 -0.120127,-0.235991 -0.116364,-0.268991 0.002,-0.01725 0.01534,-0.03411 0.02969,-0.03711 0.01443,-0.0033 0.04606,-0.03907 0.07053,-0.0798 0.0246,-0.04076 0.06161,-0.07792 0.08286,-0.08239 0.02114,-0.0044 0.03638,-0.0181 0.03378,-0.03039 -0.0026,-0.01217 0.02445,-0.0361 0.0601,-0.0531 0.08241,-0.03947 0.189667,-0.115174 0.186259,-0.131539 -0.0012,-0.0072 0.04996,-0.02375 0.114331,-0.03739 0.10487,-0.02225 0.122578,-0.01777 0.170971,0.04168 0.02971,0.0366 0.06211,0.07057 0.07204,0.07556 0.01019,0.0054 0.06832,0.06275 0.129688,0.128248 0.06143,0.06553 0.123045,0.123776 0.136907,0.129575 0.01377,0.0055 0.02435,0.01555 0.02361,0.02071 -0.0051,0.03154 0.05342,0.08672 0.07264,0.06836 0.01365,-0.013 0.01773,-0.0084 0.01017,0.01236 -0.01165,0.03217 0.05565,0.08576 0.35637,0.28365 0.112277,0.07397 0.263885,0.113156 0.420354,0.109364 0.09339,-0.0023 0.494226,-0.17544 0.516554,-0.223101 0.005,-0.01059 0.05582,-0.05506 0.113124,-0.09904 0.144933,-0.111221 0.260954,-0.314502 0.254336,-0.445537 -0.0029,-0.0571 0.0045,-0.105822 0.01647,-0.108396 0.03289,-0.0069 -0.0059,-0.152772 -0.07337,-0.275147 -0.03306,-0.06012 -0.101901,-0.267592 -0.152878,-0.461124 -0.07529,-0.285598 -0.08729,-0.35832 -0.06403,-0.386062 0.02985,-0.03561 0.320307,-0.171997 0.359683,-0.168844 0.01241,0.0013 0.03313,-0.01167 0.04608,-0.02751 0.01324,-0.01594 0.09486,-0.05247 0.182079,-0.08082 0.150269,-0.04889 0.160673,-0.0488 0.198659,6.82e-4 0.09538,0.124414 0.158527,0.218778 0.164082,0.24497 0.0034,0.01541 0.02683,0.04958 0.05246,0.07583 0.02564,0.02626 0.06427,0.09345 0.08589,0.149568 0.0217,0.05612 0.0471,0.100328 0.0566,0.0983 0.009,-0.0013 0.0715,0.06146 0.1379,0.140921 0.1401,0.16788 0.33695,0.308133 0.48177,0.343269 0.0805,0.01949 0.15789,0.01182 0.37314,-0.03711 0.17083,-0.03888 0.27282,-0.07248 0.27489,-0.09075 0.002,-0.01609 0.0342,-0.03558 0.072,-0.04356 0.0774,-0.01637 0.26935,-0.168002 0.30674,-0.24219 0.10996,-0.218011 0.12014,-0.309348 0.0691,-0.616101 -0.0454,-0.272756 -0.0708,-0.556896 -0.0514,-0.575423 0.0103,-0.0094 0.011,-0.05325 0.002,-0.09684 -0.0217,-0.105085 -0.007,-0.136181 0.0852,-0.177727 0.0425,-0.01912 0.0711,-0.04119 0.0636,-0.04918 -0.0189,-0.02001 0.44317,-0.11595 0.47133,-0.09819 0.0126,0.0081 0.0541,0.008 0.0923,-8.2e-5 0.0848,-0.01801 0.1334,0.03323 0.16269,0.171422 0.0118,0.05553 0.0302,0.09911 0.041,0.09683 0.0109,-0.0025 0.0249,0.01523 0.0316,0.03868 0.0492,0.175217 0.12247,0.366301 0.13554,0.353787 0.009,-0.0082 0.0324,0.02774 0.0525,0.08008 0.0352,0.09134 0.0913,0.180923 0.21174,0.338297 0.10763,0.140616 0.31983,0.249007 0.50126,0.256107 0.0216,7.69e-4 0.15703,-0.02128 0.30102,-0.04902 0.20048,-0.03884 0.29542,-0.06907 0.40511,-0.131522 0.0789,-0.04457 0.1359,-0.08879 0.12686,-0.09827 -0.009,-0.0095 0.002,-0.02107 0.025,-0.02593 0.0273,-0.0058 0.0335,-0.02091 0.018,-0.04436 -0.0124,-0.01964 -0.0112,-0.03114 0.004,-0.02581 0.0398,0.01436 0.11215,-0.111253 0.10218,-0.177446 -0.005,-0.03161 -7.4e-4,-0.0548 0.009,-0.05136 0.0216,0.0076 0.03,-0.171444 0.016,-0.342816 -0.006,-0.07019 -0.004,-0.140609 0.004,-0.156546 0.008,-0.0159 0.0143,-0.0699 0.0143,-0.119832 -6e-5,-0.04994 0.006,-0.09789 0.013,-0.10655 0.007,-0.009 0.0207,-0.08429 0.03,-0.168127 0.009,-0.08381 0.0337,-0.161409 0.0541,-0.172489 0.0204,-0.01075 0.11217,-0.024 0.20394,-0.02881 0.0917,-0.0048 0.23236,-0.01663 0.31246,-0.02624 0.0826,-0.0102 0.14148,-0.006 0.13603,0.0093 -0.006,0.01566 0.0136,0.0158 0.0455,6.64e-4 0.10303,-0.04853 0.11544,-0.02389 0.23041,0.456629 0.0597,0.251295 0.14008,0.526131 0.17775,0.61092 0.0742,0.16709 0.20251,0.320395 0.25821,0.308585 0.0192,-0.004 0.035,0.0072 0.0352,0.02502 1.8e-4,0.01786 0.0148,0.02612 0.0318,0.01843 0.0172,-0.0073 0.027,-0.0011 0.0216,0.01376 -0.0166,0.04618 0.20468,0.09143 0.41592,0.085 0.0195,-5.32e-4 0.0936,4.96e-4 0.16481,0.0024 0.15796,0.0042 0.32476,-0.0468 0.45078,-0.137632 0.0691,-0.04984 0.0861,-0.07469 0.0632,-0.09285 -0.023,-0.01823 -0.0182,-0.02416 0.019,-0.02223 0.0546,0.0026 0.14413,-0.138178 0.16463,-0.258829 0.006,-0.03751 0.0157,-0.09227 0.0209,-0.121912 0.005,-0.02976 0.0172,-0.110779 0.0268,-0.180323 0.01,-0.06955 0.0285,-0.122483 0.0419,-0.117657 0.0134,0.0046 0.0205,-0.0099 0.0156,-0.03239 -0.01,-0.04495 0.0348,-0.208845 0.0619,-0.22841 0.009,-0.0069 0.0136,-0.0272 0.01,-0.04536 -0.004,-0.01826 0.002,-0.03906 0.0145,-0.0461 0.012,-0.0069 0.0216,-0.03043 0.0216,-0.05203 3.4e-4,-0.07351 0.066,-0.119587 0.18125,-0.127186 0.15374,-0.01019 0.44455,0.02128 0.50624,0.05473 0.0283,0.01528 0.0793,0.03554 0.11333,0.04443 0.0531,0.0143 0.0646,0.03408 0.0817,0.140685 0.0109,0.06826 0.0145,0.148541 0.008,0.178517 -0.0407,0.181247 0.0489,0.858138 0.12986,0.981404 0.14007,0.213304 0.28094,0.345909 0.35157,0.330924 0.0147,-0.0031 0.0288,0.0037 0.031,0.01497 0.005,0.02361 0.28255,0.08921 0.3896,0.09212 0.0396,0.0011 0.0803,0.01054 0.0904,0.02114 0.0104,0.0107 0.0993,0.002 0.19826,-0.01896 0.28765,-0.061 0.4774,-0.248756 0.55082,-0.545041 0.0109,-0.04537 0.0252,-0.08903 0.031,-0.09746 0.005,-0.0087 0.0292,-0.05423 0.0521,-0.101761 0.0226,-0.04775 0.0795,-0.149378 0.12631,-0.226073 0.0468,-0.07672 0.0831,-0.148766 0.081,-0.159995 -0.0124,-0.05904 0.13886,-0.143258 0.18571,-0.103303 0.009,0.0072 0.0716,0.02829 0.13963,0.04668 0.13241,0.03538 0.22659,0.06618 0.25096,0.08207 0.009,0.0055 0.0739,0.02638 0.14608,0.04638 0.0721,0.02015 0.13282,0.04476 0.13484,0.05505 0.002,0.01004 0.0215,0.0068 0.0429,-0.0073 0.0299,-0.01953 0.0294,-0.0089 -0.003,0.04531 -0.0233,0.03893 -0.04,0.08263 -0.0368,0.09726 0.003,0.01462 -0.004,0.05968 -0.0152,0.100414 -0.011,0.04077 -0.0208,0.109867 -0.0211,0.153753 -3.8e-4,0.04383 -0.0108,0.08197 -0.0235,0.0846 -0.0125,0.0026 -0.0189,0.02438 -0.0134,0.04855 0.005,0.02398 -8.9e-4,0.07903 -0.0129,0.122519 -0.0122,0.04337 -0.0164,0.105633 -0.009,0.138253 0.007,0.03259 0.003,0.06122 -0.008,0.06364 -0.0239,0.0051 0.0137,0.44457 0.0394,0.458806 0.009,0.0058 0.0295,0.05776 0.0448,0.116806 0.0153,0.05915 0.0494,0.12286 0.0755,0.141757 0.0262,0.0187 0.0493,0.04274 0.0514,0.053 0.006,0.02843 0.27143,0.182365 0.35234,0.204407 0.0394,0.01056 0.0784,0.02515 0.0872,0.03233 0.0478,0.03907 0.3086,0.07028 0.43936,0.05256 0.21854,-0.02957 0.38407,-0.141135 0.49768,-0.335334 0.0476,-0.08228 0.0861,-0.156869 0.0849,-0.166116 -0.001,-0.0094 0.0539,-0.08149 0.12303,-0.160325 0.069,-0.07888 0.16709,-0.196006 0.21777,-0.260326 0.0917,-0.116073 0.15837,-0.157274 0.16958,-0.104573 0.003,0.0151 0.0216,0.01738 0.0412,0.0044 0.0202,-0.01344 0.0311,-0.01131 0.0254,0.0049 -0.005,0.0153 0.014,0.02272 0.0426,0.01644 0.029,-0.0062 0.0481,0.0014 0.0424,0.01712 -0.006,0.01549 0.004,0.02495 0.0223,0.02112 0.0458,-0.0097 0.35318,0.180645 0.42981,0.266258 0.0562,0.06278 0.0611,0.07893 0.0408,0.134106 -0.0126,0.0346 -0.0416,0.127566 -0.064,0.206775 -0.0225,0.07917 -0.0493,0.131591 -0.0589,0.116711 -0.0106,-0.01517 -0.0152,-0.0071 -0.0114,0.01777 0.004,0.02506 -0.0114,0.08677 -0.0346,0.137112 -0.0389,0.08431 -0.0505,0.129494 -0.0943,0.362159 -0.0592,0.315471 -0.027,0.515341 0.11167,0.691413 0.11366,0.14438 0.37955,0.333363 0.44848,0.318739 0.027,-0.0057 0.0436,-0.0019 0.0369,0.0083 -0.0171,0.0254 0.045,0.06238 0.15852,0.09464 0.12285,0.03481 0.46704,-0.03069 0.56221,-0.107102 0.0549,-0.04398 0.21382,-0.216395 0.2974,-0.322514 0.0132,-0.01688 0.0927,-0.08344 0.17629,-0.147898 0.0837,-0.06443 0.15629,-0.124862 0.16146,-0.134224 0.005,-0.0094 0.0419,-0.04258 0.0818,-0.07382 0.0864,-0.06777 0.10149,-0.05998 0.39961,0.20587 0.0446,0.03978 0.0791,0.06335 0.0768,0.05252 -0.003,-0.01101 0.0473,0.03002 0.11015,0.09102 0.0628,0.06091 0.11648,0.120895 0.11913,0.133302 0.006,0.02629 -0.0745,0.174673 -0.15407,0.285259 -0.041,0.05711 -0.0458,0.08079 -0.0198,0.09044 0.0256,0.0094 0.0227,0.01632 -0.01,0.02326 -0.0411,0.0093 -0.16393,0.16606 -0.15664,0.20033 0.002,0.008 -0.0105,0.0375 -0.026,0.0663 -0.0338,0.0593 -0.10151,0.23364 -0.14602,0.37334 -0.0417,0.13309 -0.0275,0.33047 0.035,0.48289 0.0688,0.16803 0.28452,0.38653 0.53336,0.54046 0.10044,0.0621 0.36135,0.10461 0.48351,0.0787 0.0833,-0.0177 0.308,-0.15982 0.33556,-0.21227 0.0112,-0.0219 0.0917,-0.0754 0.17829,-0.11884 0.0866,-0.0435 0.16604,-0.0907 0.17657,-0.10495 0.0108,-0.0141 0.0455,-0.0314 0.0777,-0.0383 0.0322,-0.007 0.0505,-0.0209 0.0406,-0.0313 -0.01,-0.0104 0.006,-0.0261 0.0364,-0.0349 0.21098,-0.0623 0.22612,-0.0631 0.26164,-0.0136 0.0195,0.0271 0.0536,0.0506 0.0759,0.0521 0.0223,0.002 0.0879,0.0613 0.14598,0.13284 0.0581,0.0716 0.11389,0.13414 0.12419,0.13908 0.0103,0.005 0.039,0.069 0.0637,0.14221 l 0.0449,0.13323 -0.0969,0.0985 c -0.0533,0.0541 -0.0951,0.10685 -0.0931,0.11703 0.002,0.0101 -0.0134,0.022 -0.0334,0.0266 -0.0205,0.004 -0.0338,0.0241 -0.0299,0.0436 0.004,0.0197 -0.004,0.0465 -0.0174,0.0596 -0.016,0.0158 -0.0212,0.0109 -0.0142,-0.0149 0.005,-0.0215 -0.002,-0.0157 -0.0156,0.0125 -0.0141,0.0283 -0.0409,0.0541 -0.0586,0.0579 -0.0374,0.008 -0.37866,0.53725 -0.37067,0.57496 0.003,0.0137 -0.008,0.0456 -0.0236,0.0707 -0.0158,0.025 -0.025,0.0666 -0.0192,0.093 0.006,0.0263 -0.001,0.0503 -0.0145,0.0532 -0.0138,0.003 -0.0108,0.0715 0.007,0.15427 0.0176,0.0828 0.0426,0.14669 0.0564,0.14376 0.0137,-0.003 0.0296,0.0174 0.0355,0.0449 0.0182,0.086 0.28936,0.41564 0.41516,0.50475 0.0737,0.0522 0.17295,0.0932 0.25712,0.10631 0.14684,0.0229 0.4136,-0.0186 0.40424,-0.0628 -0.003,-0.0145 0.005,-0.0226 0.0181,-0.0178 0.0129,0.004 0.0737,-0.0193 0.13561,-0.0531 0.0618,-0.0338 0.15857,-0.0713 0.21514,-0.0833 0.0566,-0.012 0.11125,-0.0345 0.12154,-0.05 0.0152,-0.0236 0.23568,-0.0875 0.37766,-0.1099 0.0239,-0.003 0.0668,0.0475 0.11695,0.13945 0.0436,0.08 0.0935,0.16574 0.11086,0.19061 0.0582,0.0832 0.19547,0.31977 0.20115,0.34654 0.005,0.0256 -0.0427,0.067 -0.46634,0.40154 -0.107,0.0845 -0.19272,0.16206 -0.19054,0.1724 0.002,0.0101 -0.007,0.021 -0.0208,0.0239 -0.0136,0.003 -0.0453,0.0322 -0.0706,0.0652 -0.025,0.0331 -0.0673,0.0881 -0.0934,0.12229 -0.0266,0.034 -0.0542,0.0671 -0.0622,0.0732 -0.0492,0.0366 -0.10827,0.23606 -0.10774,0.36372 0.001,0.31921 0.27188,0.8001 0.51222,0.91055 0.19062,0.0876 0.58356,0.0999 0.56612,0.0177 -0.006,-0.0285 0.34869,-0.0925 0.67485,-0.12198 0.14996,-0.0134 0.16759,-0.009 0.18714,0.0443 0.0115,0.0327 0.043,0.069 0.0689,0.0807 0.0312,0.0142 0.0576,0.062 0.077,0.14043 0.0165,0.0654 0.0477,0.18169 0.0697,0.25839 0.024,0.0824 0.0296,0.13556 0.014,0.13006 -0.0146,-0.006 -0.0148,0.0106 3.1e-4,0.0366 0.0148,0.0261 0.0144,0.0594 -3.3e-4,0.0768 -0.0351,0.0409 -0.36138,0.21458 -0.43058,0.22917 -0.0299,0.006 -0.059,0.0241 -0.0645,0.0395 -0.006,0.0155 -0.0309,0.0325 -0.0563,0.0378 -0.0255,0.005 -0.0744,0.0324 -0.10906,0.0599 -0.0345,0.0275 -0.13792,0.10925 -0.22963,0.18155 -0.20194,0.15921 -0.2085,0.16696 -0.27332,0.32302 -0.0412,0.0995 -0.0472,0.16294 -0.0298,0.31923 0.0325,0.29049 0.1888,0.71765 0.25736,0.7031 0.01,-0.002 0.0222,0.0146 0.0272,0.0359 0.005,0.0246 0.021,0.0316 0.0417,0.0183 0.0197,-0.0125 0.0312,-0.008 0.0284,0.0108 -0.007,0.0514 0.0342,0.0777 0.1994,0.1263 0.15228,0.0448 0.17472,0.0443 0.61056,-0.0139 0.0451,-0.006 0.0836,-0.004 0.0854,0.005 0.002,0.008 0.0415,0.0146 0.0874,0.0146 0.12904,-0.002 0.15883,-9.5e-4 0.20252,0.007 0.0221,0.004 0.0815,0.008 0.13181,0.01 l 0.0914,0.003 0.0585,0.24093 c 0.0434,0.17876 0.0531,0.26271 0.0366,0.32553 -0.0124,0.0463 -0.0142,0.12136 -0.005,0.16628 0.009,0.0449 0.007,0.0919 -0.006,0.1043 -0.0134,0.0124 -0.19539,0.0751 -0.40522,0.1391 -0.38351,0.11701 -0.62443,0.22356 -0.75663,0.33446 -0.0991,0.0831 -0.21483,0.24309 -0.20597,0.28475 0.004,0.0192 -0.003,0.0368 -0.0149,0.0398 -0.0127,0.003 -0.0229,0.0428 -0.023,0.0892 -1.1e-4,0.0464 -0.008,0.10033 -0.0181,0.11987 -0.0241,0.0478 0.10368,0.68232 0.14077,0.69849 0.0296,0.0128 0.0939,0.0746 0.13614,0.13044 0.0344,0.0455 0.12961,0.10423 0.15886,0.0981 0.0134,-0.003 0.0269,0.005 0.0292,0.0178 0.006,0.0301 0.20639,0.0628 0.28323,0.0466 0.0341,-0.007 0.0834,-0.007 0.10976,-2.2e-4 0.0923,0.025 0.48539,0.11748 0.49814,0.11722 0.008,1.8e-4 0.0413,0.008 0.0754,0.0189 0.0345,0.0103 0.0611,0.0125 0.0593,0.004 -0.002,-0.008 0.0184,-0.001 0.0446,0.016 0.0368,0.0234 0.0521,0.0651 0.0659,0.17605 0.0289,0.2327 0.0217,0.43335 -0.0179,0.49926 -0.0208,0.0335 -0.0319,0.0841 -0.026,0.11197 0.01,0.0452 -0.005,0.054 -0.13208,0.0809 -0.0785,0.0166 -0.18421,0.0278 -0.23481,0.0248 -0.22232,-0.013 -0.99721,0.1929 -0.98274,0.26112 0.003,0.0111 -0.0193,0.0326 -0.0465,0.0487 -0.0703,0.04 -0.15255,0.16716 -0.19179,0.29678 -0.0385,0.12697 -0.0686,0.40628 -0.0524,0.48505 0.006,0.0299 0.002,0.0637 -0.0103,0.0751 -0.026,0.0249 0.007,0.19868 0.0432,0.2257 0.0141,0.0108 0.0566,0.0681 0.0942,0.12794 0.0376,0.0598 0.0806,0.10618 0.0953,0.10305 0.0148,-0.003 0.0214,0.003 0.0151,0.0124 -0.0247,0.0371 0.20528,0.15077 0.32685,0.16157 0.0364,0.003 0.0731,0.0115 0.0817,0.0185 0.0409,0.033 0.14272,0.0482 0.17988,0.0268 0.0347,-0.02 0.0362,-0.0182 0.01,0.011 -0.027,0.0296 -0.0241,0.0334 0.0162,0.025 0.0262,-0.005 0.0423,-0.002 0.0357,0.009 -0.007,0.0106 0.0608,0.0483 0.14995,0.0849 0.27212,0.11175 0.30087,0.13229 0.30187,0.21546 8.3e-4,0.0688 -0.0552,0.3466 -0.12512,0.6201 -0.0164,0.0642 -0.0434,0.11949 -0.0606,0.1227 -0.0166,0.004 -0.10484,-0.001 -0.19613,-0.0103 -0.0914,-0.009 -0.18466,-0.0127 -0.20746,-0.008 -0.0228,0.005 -0.0542,0.002 -0.0695,-0.007 -0.109,-0.0616 -0.97736,0.0674 -0.98629,0.14661 -0.002,0.0182 -0.0212,0.0368 -0.0418,0.0413 -0.0359,0.008 -0.19377,0.22448 -0.1869,0.25679 0.002,0.008 -0.0188,0.0765 -0.0457,0.15186 -0.0268,0.0754 -0.045,0.15521 -0.0402,0.17763 0.005,0.0224 -0.002,0.0429 -0.0143,0.0457 -0.0368,0.008 -0.0256,0.28621 0.0164,0.40876 0.05,0.14609 0.0893,0.21763 0.11641,0.21188 0.012,-0.002 0.0252,0.009 0.0293,0.0263 0.011,0.0463 0.13753,0.13294 0.26085,0.17874 0.12864,0.0478 0.36165,0.19049 0.36923,0.22608 0.005,0.0234 0.0436,0.0277 0.0883,0.01 0.0106,-0.004 0.0161,0.002 0.0113,0.0151 -0.005,0.0125 0.0458,0.0611 0.1118,0.10785 0.12024,0.0852 0.15343,0.13648 0.11307,0.17501 -0.0119,0.0117 -0.0173,0.0426 -0.0111,0.0697 0.0102,0.0482 -0.0241,0.16487 -0.0709,0.24065 -0.013,0.0211 -0.0358,0.0759 -0.0512,0.1214 -0.0154,0.0455 -0.0365,0.0844 -0.0463,0.0866 -0.01,0.002 -0.0404,0.0377 -0.0673,0.079 -0.0485,0.0747 -0.14571,0.11954 -0.15579,0.0719 -0.003,-0.0134 -0.0233,-0.0206 -0.045,-0.0162 -0.0373,0.008 -0.1964,-0.0314 -0.2302,-0.0569 -0.009,-0.006 -0.0892,-0.0289 -0.17928,-0.0499 -0.09,-0.021 -0.18389,-0.0432 -0.20838,-0.0495 -0.0246,-0.006 -0.0895,-0.01 -0.14447,-0.008 -0.055,0.002 -0.11252,-0.001 -0.12799,-0.007 -0.0154,-0.006 -0.0864,-0.01 -0.15778,-0.009 -0.14231,6e-4 -0.31239,0.0654 -0.4359,0.16675 -0.0875,0.0717 -0.20855,0.28366 -0.30619,0.53599 -0.0746,0.19301 -0.0754,0.20152 -0.0338,0.40393 0.0255,0.12407 0.0547,0.21155 0.0733,0.21871 0.017,0.007 0.044,0.0393 0.0602,0.0725 0.0163,0.0333 0.10796,0.11412 0.20424,0.17933 0.20674,0.14022 0.28447,0.20639 0.29379,0.25036 0.004,0.0177 0.0173,0.03 0.0299,0.0273 0.0128,-0.003 0.035,0.016 0.0496,0.0415 0.0146,0.0255 0.0585,0.0717 0.0978,0.10255 0.13457,0.10562 0.13447,0.13198 -0.001,0.34385 -0.0687,0.10717 -0.11748,0.20248 -0.10855,0.21179 0.009,0.01 0.001,0.017 -0.0178,0.0172 -0.0188,2e-4 -0.0282,0.0143 -0.02,0.0317 0.007,0.0172 0.001,0.027 -0.0142,0.0213 -0.0153,-0.005 -0.0508,0.0303 -0.0788,0.0797 -0.0661,0.11567 -0.1276,0.12586 -0.27264,0.045 -0.0647,-0.0362 -0.13121,-0.0568 -0.14739,-0.0465 -0.0163,0.0108 -0.0258,0.008 -0.0209,-0.005 0.005,-0.0131 -0.0178,-0.0393 -0.05,-0.0581 -0.0321,-0.0191 -0.0572,-0.0273 -0.0553,-0.0198 0.002,0.008 -0.0451,-0.0152 -0.1042,-0.051 -0.059,-0.0358 -0.13017,-0.0673 -0.15781,-0.0701 -0.0274,-0.003 -0.0525,-0.0153 -0.055,-0.0285 -0.003,-0.0129 -0.0219,-0.0199 -0.0429,-0.0153 -0.021,0.004 -0.10121,-0.009 -0.17847,-0.0293 -0.11239,-0.0299 -0.14321,-0.0298 -0.15439,2.4e-4 -0.0112,0.0293 -0.0164,0.0286 -0.0233,-0.003 -0.0278,-0.12539 -0.44398,0.01 -0.57452,0.18687 -0.0601,0.0815 -0.0876,0.11303 -0.10113,0.11585 -0.0152,0.003 -0.0867,0.11412 -0.17073,0.26496 -0.11265,0.20226 -0.14208,0.56547 -0.0486,0.59907 0.0155,0.006 0.0329,0.0328 0.0388,0.0607 0.006,0.0278 0.0377,0.0815 0.0707,0.11927 0.0568,0.065 0.0729,0.0801 0.15831,0.14763 0.0346,0.0274 0.13983,0.1495 0.15931,0.185 0.006,0.009 0.0149,0.0145 0.0213,0.0109 0.007,-0.002 0.0194,0.0249 0.0291,0.0635 0.01,0.0387 0.0604,0.12653 0.11276,0.19518 0.117,0.15345 0.11939,0.16412 0.0494,0.21575 -0.0309,0.0228 -0.0529,0.0566 -0.0489,0.0753 0.004,0.0185 -0.039,0.078 -0.0952,0.13228 -0.0563,0.0542 -0.12057,0.12012 -0.14289,0.14652 -0.022,0.0265 -0.0647,0.0532 -0.0945,0.0596 -0.0296,0.006 -0.0644,0.0311 -0.077,0.0553 -0.0122,0.0243 -0.0381,0.047 -0.0569,0.0509 -0.0305,0.007 -0.24177,-0.12436 -0.24989,-0.15481 -0.007,-0.0264 -0.37626,-0.2701 -0.39461,-0.26057 -0.0105,0.006 -0.03,-0.008 -0.0432,-0.0297 -0.0243,-0.0407 -0.269,-0.15521 -0.44588,-0.20861 -0.0748,-0.0227 -0.14585,-0.0196 -0.29562,0.0128 -0.12525,0.0271 -0.19835,0.0536 -0.20055,0.0729 -0.002,0.0166 -0.0403,0.0457 -0.0851,0.0644 -0.045,0.0187 -0.0799,0.0428 -0.0776,0.0534 0.003,0.0111 -0.0197,0.031 -0.0488,0.0453 -0.029,0.0144 -0.10678,0.10204 -0.17274,0.19514 -0.0658,0.0931 -0.12618,0.17057 -0.13387,0.17222 -0.008,0.002 -0.0244,0.0818 -0.037,0.17819 -0.0254,0.19365 0.0128,0.35757 0.1116,0.47811 0.0299,0.0365 0.0592,0.0893 0.0652,0.11729 0.006,0.028 0.0207,0.0487 0.0328,0.0461 0.012,-0.002 0.0401,0.0438 0.0623,0.10298 0.0222,0.0592 0.0522,0.11188 0.0667,0.11711 0.0143,0.005 0.0369,0.0585 0.0495,0.11827 0.0127,0.0598 0.0357,0.11338 0.0511,0.1189 0.047,0.0171 0.0756,0.20457 0.0324,0.21374 -0.0205,0.004 -0.0348,0.019 -0.032,0.0328 0.003,0.0135 -0.007,0.0274 -0.0218,0.0307 -0.0257,0.005 -0.0538,0.0241 -0.25141,0.16704 -0.0452,0.0326 -0.0944,0.0621 -0.10941,0.0653 -0.0149,0.003 -0.0254,0.0147 -0.0231,0.0255 0.005,0.0251 -0.18078,0.12047 -0.22243,0.11385 -0.0174,-0.002 -0.0576,-0.0374 -0.09,-0.0758 -0.0322,-0.0389 -0.1044,-0.11953 -0.16038,-0.17893 -0.056,-0.0595 -0.11225,-0.12642 -0.12504,-0.14867 -0.013,-0.0222 -0.0331,-0.0385 -0.0452,-0.0359 -0.012,0.002 -0.0251,-0.009 -0.0289,-0.0263 -0.007,-0.031 -0.13863,-0.13564 -0.3814,-0.30257 -0.0779,-0.0536 -0.18336,-0.0981 -0.26182,-0.11001 -0.11853,-0.0186 -0.32809,0.008 -0.419,0.0535 -0.23014,0.11493 -0.28081,0.14444 -0.27714,0.16167 0.003,0.0111 -0.018,0.025 -0.0454,0.0307 -0.0273,0.006 -0.0473,0.0217 -0.0444,0.0353 0.003,0.0135 -0.004,0.0255 -0.0141,0.0261 -0.0397,0.003 -0.12213,0.0613 -0.10751,0.0767 0.008,0.009 -0.008,0.0333 -0.0363,0.0541 -0.0283,0.0209 -0.0619,0.0794 -0.0748,0.12999 -0.0132,0.0504 -0.0271,0.0808 -0.0311,0.0676 -0.005,-0.0134 -0.0166,0.036 -0.0273,0.10957 -0.0238,0.1639 0.001,0.30376 0.0764,0.42498 0.0386,0.0624 0.0803,0.2006 0.12994,0.431 0.0777,0.36067 0.0807,0.41971 0.0233,0.43188 -0.0199,0.004 -0.0578,0.0263 -0.0841,0.049 -0.0263,0.0227 -0.0585,0.0466 -0.0715,0.0531 -0.17348,0.0864 -0.23596,0.10955 -0.37938,0.14051 l -0.16787,0.0365 -0.06,-0.0846 c -0.0765,-0.10761 -0.0991,-0.14283 -0.20947,-0.32539 -0.11629,-0.19233 -0.18406,-0.2773 -0.35548,-0.44569 -0.14693,-0.14428 -0.2212,-0.2026 -0.21461,-0.16846 0.003,0.0111 -0.007,0.0106 -0.0196,-0.001 -0.0134,-0.0116 -0.0687,-0.0414 -0.12374,-0.0644 -0.0914,-0.0386 -0.12263,-0.0375 -0.36515,0.0151 -0.14591,0.0318 -0.28846,0.0754 -0.31677,0.0973 -0.0282,0.0218 -0.10136,0.0645 -0.16254,0.0948 -0.0611,0.0303 -0.12054,0.0732 -0.13221,0.0953 -0.0113,0.0222 -0.0365,0.0434 -0.0554,0.0474 -0.0188,0.004 -0.0307,0.024 -0.026,0.0447 0.004,0.0205 -0.002,0.0394 -0.0148,0.042 -0.0127,0.003 -0.0418,0.0643 -0.0649,0.1369 -0.0386,0.12141 -0.0371,0.15866 0.0178,0.45689 0.0629,0.34175 0.0694,0.40071 0.0472,0.43475 -0.007,0.0115 -0.004,0.0642 0.007,0.11716 0.0112,0.0529 0.007,0.1441 -0.008,0.20266 l -0.0286,0.10647 -0.38487,0.0853 -0.38487,0.0853 -0.0183,-0.0864 z m -0.14927,-4.31402 c 0.24257,-0.0677 0.47797,-0.14175 0.52308,-0.16455 0.0451,-0.0228 0.17458,-0.0733 0.28766,-0.11214 0.11304,-0.0389 0.29701,-0.10777 0.40872,-0.15317 0.1117,-0.0453 0.23938,-0.0904 0.28372,-0.10008 0.0443,-0.01 0.0784,-0.0276 0.0758,-0.0397 -0.002,-0.012 0.0357,-0.0379 0.0853,-0.057 0.15828,-0.0613 0.18488,-0.0729 0.21984,-0.0954 0.0188,-0.0122 0.0611,-0.0336 0.0937,-0.0478 0.12201,-0.0529 0.27204,-0.13082 0.30532,-0.15849 0.0189,-0.0158 0.0952,-0.0553 0.16951,-0.0879 0.0743,-0.0325 0.13322,-0.0683 0.13086,-0.0792 -0.003,-0.0111 0.0501,-0.0391 0.11648,-0.0627 0.0663,-0.0235 0.11836,-0.0536 0.11562,-0.0668 -0.003,-0.0132 0.0187,-0.0288 0.047,-0.0351 0.0287,-0.006 0.084,-0.0339 0.12309,-0.062 0.039,-0.0281 0.10708,-0.0734 0.15123,-0.10086 0.0441,-0.0274 0.11068,-0.0714 0.14801,-0.0977 0.22335,-0.15758 0.35432,-0.24157 0.38768,-0.24864 0.0208,-0.004 0.0361,-0.0169 0.0339,-0.0275 -0.003,-0.0111 0.0472,-0.0528 0.10979,-0.0939 0.0627,-0.041 0.11237,-0.0821 0.1104,-0.0912 -0.001,-0.009 0.025,-0.0305 0.0595,-0.0474 0.0789,-0.0387 0.28983,-0.26048 0.28247,-0.29711 -0.003,-0.015 0.0109,-0.05 0.0311,-0.0776 0.0429,-0.0593 0.0995,-0.2642 0.095,-0.34341 -0.002,-0.0305 0.003,-0.0648 0.0102,-0.0762 0.0217,-0.033 -0.0587,-0.37517 -0.10453,-0.44613 -0.0229,-0.0353 -0.0607,-0.10688 -0.084,-0.15906 -0.0854,-0.19053 -0.1444,-0.30793 -0.17669,-0.35182 -0.044,-0.0596 -0.26943,-0.52738 -0.28095,-0.58275 -0.005,-0.0239 -0.019,-0.0414 -0.0312,-0.0388 -0.012,0.002 -0.0349,-0.0306 -0.0507,-0.0736 -0.0339,-0.0927 -0.13242,-0.29435 -0.17531,-0.35861 -0.12598,-0.18862 -0.33323,-0.46536 -0.36055,-0.48152 -0.0506,-0.0298 -0.1574,-0.13357 -0.16208,-0.15727 -0.003,-0.0152 0.0562,-0.0934 0.13143,-0.17364 0.0753,-0.0802 0.13532,-0.15425 0.13343,-0.16453 -0.002,-0.01 0.009,-0.0214 0.0246,-0.0247 0.0154,-0.003 0.0486,-0.0401 0.0735,-0.0818 0.0246,-0.0418 0.0465,-0.0697 0.0481,-0.0621 0.002,0.008 0.0206,-0.0108 0.0424,-0.0401 0.0213,-0.0297 0.0811,-0.10347 0.13198,-0.16424 0.0686,-0.0818 0.0866,-0.12267 0.0699,-0.15747 -0.0167,-0.0346 -0.0148,-0.0395 0.008,-0.0184 0.0241,0.0227 0.0487,0.004 0.11645,-0.0895 0.19375,-0.2672 0.48694,-0.7373 0.61913,-0.99307 0.0357,-0.0684 0.0753,-0.14279 0.0883,-0.16516 0.0135,-0.0222 0.0224,-0.0466 0.0204,-0.0542 -0.001,-0.007 0.0206,-0.0523 0.05,-0.0996 0.0653,-0.10612 0.10373,-0.19718 0.0922,-0.21807 -0.005,-0.009 0.009,-0.0389 0.0298,-0.0674 0.0208,-0.0285 0.0464,-0.0796 0.0565,-0.11372 0.0216,-0.0758 0.0824,-0.0911 0.23219,-0.0587 0.0628,0.0137 0.17163,0.0373 0.24184,0.0526 0.0703,0.0153 0.13951,0.0253 0.1539,0.0222 0.0145,-0.003 0.0282,0.003 0.0304,0.0139 0.003,0.0111 0.0646,0.0293 0.13852,0.0412 0.0739,0.012 0.13622,0.0307 0.13849,0.0413 0.003,0.0111 0.0158,0.0171 0.0304,0.0139 0.0284,-0.006 0.16933,0.0223 0.47754,0.0958 0.10781,0.0257 0.21372,0.043 0.23526,0.0385 0.0215,-0.005 0.0415,0.003 0.0446,0.016 0.003,0.0135 0.0324,0.0192 0.0659,0.0119 0.0334,-0.007 0.0699,-0.003 0.0812,0.009 0.0121,0.0122 0.14628,-0.005 0.31717,-0.0413 0.18115,-0.0384 0.29452,-0.0726 0.29131,-0.0877 -0.003,-0.0135 0.0178,-0.0293 0.045,-0.0355 0.0563,-0.0119 0.34322,-0.22614 0.36337,-0.27128 0.007,-0.0161 0.006,-0.0408 -0.003,-0.0552 -0.01,-0.0155 0.003,-0.0252 0.0314,-0.0238 0.0261,9.5e-4 0.0524,-0.0113 0.0584,-0.028 0.007,-0.0195 -0.004,-0.0211 -0.0303,-0.005 -0.0227,0.0141 -0.0348,0.0148 -0.0271,0.001 0.007,-0.0138 0.0375,-0.0311 0.0658,-0.0394 0.0286,-0.008 0.0629,-0.0506 0.0772,-0.095 0.0146,-0.0438 0.044,-0.10817 0.0673,-0.14215 0.0232,-0.0339 0.0443,-0.0919 0.0477,-0.1283 0.003,-0.0364 0.0128,-0.0734 0.021,-0.0823 0.0249,-0.027 0.18901,-0.45738 0.18382,-0.48207 -0.003,-0.0129 0.004,-0.025 0.0146,-0.0272 0.0111,-0.003 0.0398,-0.0725 0.0639,-0.15638 0.0247,-0.0836 0.0531,-0.15394 0.0637,-0.15597 0.01,-0.002 0.0154,-0.0191 0.0117,-0.0375 -0.004,-0.0184 0.0139,-0.0717 0.0397,-0.1187 0.0259,-0.0469 0.0443,-0.0968 0.0409,-0.11103 -0.003,-0.0142 0.013,-0.05 0.0362,-0.0798 0.0225,-0.0299 0.0325,-0.0637 0.0216,-0.0751 -0.0108,-0.0115 -0.009,-0.0235 0.007,-0.0264 0.0145,-0.003 0.0216,-0.0137 0.0161,-0.0231 -0.006,-0.009 0.012,-0.064 0.0391,-0.12109 0.027,-0.0572 0.0477,-0.11377 0.045,-0.12635 -0.002,-0.0124 0.0118,-0.0552 0.0312,-0.095 0.0194,-0.0399 0.0301,-0.0983 0.0237,-0.12988 -0.007,-0.0318 8.7e-4,-0.053 0.0162,-0.0474 0.0155,0.006 0.0245,-0.007 0.0197,-0.0287 -0.005,-0.0213 0.002,-0.0407 0.0143,-0.0432 0.012,-0.002 0.0216,-0.0424 0.0202,-0.0886 -7.3e-4,-0.0462 0.007,-0.1173 0.0189,-0.15794 0.011,-0.0407 0.0207,-0.11275 0.0208,-0.16009 4e-5,-0.0474 0.006,-0.0991 0.0141,-0.11502 0.008,-0.0159 0.009,-0.0921 0.003,-0.16933 -0.006,-0.0773 -0.006,-0.15309 -4.3e-4,-0.16861 0.0104,-0.0276 0.003,-0.31389 -0.0128,-0.51634 -0.005,-0.0561 -0.003,-0.12646 0.002,-0.15627 0.006,-0.0298 -0.0135,-0.2359 -0.043,-0.45804 -0.0294,-0.22214 -0.0586,-0.45538 -0.0648,-0.51831 -0.0179,-0.18258 -0.2743,-1.389 -0.33793,-1.58931 -0.0318,-0.10036 -0.0956,-0.30284 -0.14188,-0.45003 -0.10328,-0.32875 -0.12092,-0.37849 -0.19217,-0.54319 -0.0312,-0.0719 -0.0688,-0.16317 -0.0838,-0.20284 -0.0148,-0.0397 -0.0485,-0.1201 -0.0744,-0.17887 -0.0259,-0.0587 -0.0737,-0.17122 -0.10625,-0.24997 -0.0326,-0.0787 -0.0735,-0.16348 -0.0911,-0.1883 -0.0176,-0.0248 -0.0487,-0.0883 -0.0689,-0.14111 -0.0204,-0.0528 -0.0736,-0.16243 -0.11843,-0.24364 -0.0448,-0.0812 -0.0882,-0.17906 -0.0963,-0.21747 -0.008,-0.0384 -0.0244,-0.0716 -0.0353,-0.0741 -0.025,-0.006 -0.15821,-0.22594 -0.17021,-0.28251 -0.005,-0.0228 -0.0173,-0.0335 -0.0277,-0.0237 -0.01,0.01 -0.0358,-0.0252 -0.0561,-0.0785 -0.0205,-0.0532 -0.0507,-0.11363 -0.0672,-0.13451 -0.0325,-0.0412 -0.0903,-0.13418 -0.1948,-0.31442 -0.0369,-0.0636 -0.0743,-0.11984 -0.0833,-0.12504 -0.009,-0.005 -0.0474,-0.0556 -0.0854,-0.11169 -0.0381,-0.0562 -0.091,-0.12846 -0.1177,-0.1607 -0.0266,-0.0322 -0.0523,-0.0764 -0.057,-0.0982 -0.005,-0.0218 -0.0196,-0.0372 -0.0332,-0.0344 -0.0134,0.003 -0.0281,-0.008 -0.0318,-0.0258 -0.004,-0.0171 -0.0527,-0.0877 -0.10844,-0.15701 -0.0559,-0.0694 -0.0961,-0.13563 -0.0893,-0.14747 0.007,-0.0119 -8e-4,-0.0103 -0.0149,0.003 -0.0167,0.0149 -0.0303,0.0101 -0.0353,-0.0118 -0.009,-0.0432 -0.30087,-0.21225 -0.34889,-0.20202 -0.0181,0.004 -0.0285,-0.005 -0.0227,-0.0214 0.006,-0.0155 -0.0105,-0.0236 -0.0354,-0.0184 -0.0251,0.005 -0.0708,-3.1e-4 -0.10156,-0.0126 -0.0682,-0.0268 -0.13546,-0.0234 -0.34558,0.0191 -0.15185,0.0304 -0.57708,0.20387 -0.59726,0.24317 -0.005,0.0102 -0.0356,0.0308 -0.0681,0.0464 -0.28631,0.13825 -0.37511,0.18272 -0.786,0.3934 -0.10295,0.0528 -0.24408,0.12148 -0.31353,0.15248 -0.0695,0.0311 -0.11783,0.062 -0.10747,0.0687 0.0106,0.007 -0.008,0.0256 -0.0417,0.0418 -0.11342,0.0555 -0.29481,0.2032 -0.38783,0.31586 -0.11085,0.13421 -0.1887,0.15966 -0.24702,0.0807 -0.0228,-0.0308 -0.0482,-0.0547 -0.0567,-0.0528 -0.008,0.002 -0.0446,-0.0314 -0.0805,-0.0737 -0.0359,-0.0423 -0.0747,-0.075 -0.0862,-0.0726 -0.0111,0.003 -0.0235,-0.007 -0.0266,-0.0221 -0.003,-0.0147 -0.0229,-0.0391 -0.044,-0.0542 -0.0211,-0.0152 -0.0703,-0.0536 -0.10931,-0.0853 -0.0391,-0.0316 -0.10583,-0.0852 -0.14847,-0.11903 -0.0426,-0.0339 -0.0793,-0.0699 -0.0814,-0.0801 -0.002,-0.01 -0.0208,-0.015 -0.0411,-0.0111 -0.0205,0.004 -0.0375,-0.006 -0.0375,-0.0249 -5.2e-4,-0.0181 -0.0188,-0.027 -0.0414,-0.0201 -0.0225,0.007 -0.0388,-0.002 -0.0364,-0.0178 0.002,-0.017 -0.16221,-0.14083 -0.36605,-0.27599 -0.37795,-0.25063 -0.50789,-0.32796 -0.45347,-0.2696 0.0193,0.0206 0.018,0.0267 -0.004,0.0189 -0.0177,-0.007 -0.0348,-0.0215 -0.0373,-0.0345 -0.006,-0.0271 -0.25567,-0.17946 -0.33208,-0.20246 -0.0292,-0.009 -0.0469,-0.0259 -0.0396,-0.037 0.0126,-0.0179 -0.002,-0.0197 -0.0572,-0.005 -0.006,0.002 -0.045,-0.0195 -0.0841,-0.0473 -0.0392,-0.0278 -0.079,-0.0487 -0.0886,-0.0461 -0.009,0.001 -0.0526,-0.0186 -0.097,-0.0444 -0.0443,-0.0258 -0.0949,-0.0446 -0.11296,-0.0407 -0.0181,0.004 -0.0285,-0.005 -0.0226,-0.0213 0.006,-0.0155 -0.008,-0.0242 -0.0297,-0.0191 -0.0217,0.005 -0.0495,-0.007 -0.0617,-0.026 -0.0122,-0.0188 -0.033,-0.0319 -0.0463,-0.0289 -0.0132,0.003 -0.0443,-0.008 -0.0692,-0.024 -0.025,-0.0158 -0.0347,-0.0315 -0.0219,-0.0342 0.0224,-0.005 0.0715,-0.17783 0.14202,-0.5032 0.0189,-0.0871 0.0228,-0.17281 0.009,-0.19431 -0.016,-0.0247 -0.0137,-0.0346 0.006,-0.0273 0.0282,0.01 0.0602,-0.0927 0.11357,-0.36397 0.01,-0.0484 0.0245,-0.0895 0.0331,-0.0915 0.008,-0.002 0.0172,-0.0327 0.0185,-0.0685 0.002,-0.0359 0.0199,-0.14195 0.0413,-0.23587 0.0513,-0.2252 0.0541,-0.5422 0.006,-0.67488 -0.0559,-0.15434 -0.13246,-0.32147 -0.168,-0.36679 -0.0173,-0.022 -0.0686,-0.0878 -0.11378,-0.14638 -0.0454,-0.0584 -0.10478,-0.12355 -0.13212,-0.14475 -0.0272,-0.0213 -0.0712,-0.0583 -0.0973,-0.0827 -0.0261,-0.0244 -0.0578,-0.0421 -0.0701,-0.0398 -0.0127,0.003 -0.0555,-0.0177 -0.0952,-0.0458 -0.0424,-0.0304 -0.0832,-0.0414 -0.0995,-0.0266 -0.0149,0.0133 -0.0209,0.0136 -0.013,-4.5e-4 0.0167,-0.0269 -0.15155,-0.11077 -0.20132,-0.0999 -0.0178,0.004 -0.0346,-0.003 -0.037,-0.0158 -0.002,-0.012 -0.0571,-0.036 -0.12168,-0.0513 -0.0642,-0.0164 -0.10545,-0.0324 -0.0918,-0.0354 0.0134,-0.003 -0.01,-0.0154 -0.0518,-0.0271 -0.0423,-0.0117 -0.0946,-0.0111 -0.11648,0.001 -0.0338,0.0193 -0.035,0.0174 -0.008,-0.0124 0.0272,-0.03 0.0253,-0.0337 -0.0119,-0.0259 -0.024,0.005 -0.0455,8e-5 -0.0477,-0.0106 -0.003,-0.0111 -0.0449,-0.0329 -0.095,-0.049 -0.0499,-0.0162 -0.0978,-0.0349 -0.10636,-0.041 -0.0418,-0.0317 -0.14575,-0.0487 -0.16911,-0.0277 -0.0147,0.013 -0.0203,0.0136 -0.0129,7.1e-4 0.0201,-0.0343 -0.0705,-0.0804 -0.26043,-0.13247 -0.0492,-0.0137 -0.0912,-0.0329 -0.0934,-0.0428 -0.002,-0.01 -0.0391,-0.0187 -0.0821,-0.0189 -0.0431,-3.7e-4 -0.0747,-0.0103 -0.0703,-0.0223 0.004,-0.0117 -0.041,-0.0335 -0.10039,-0.0482 -0.0595,-0.0144 -0.11043,-0.0358 -0.11311,-0.0474 -0.002,-0.012 -0.0226,-0.01 -0.044,0.004 -0.0216,0.014 -0.0329,0.0153 -0.0252,0.004 0.0128,-0.0184 -0.34349,-0.118484 -0.38938,-0.109254 -0.009,0.0012 -0.0495,-0.0056 -0.0894,-0.01686 -0.0402,-0.01071 -0.16218,-0.02313 -0.27163,-0.02651 -0.10942,-0.0035 -0.20076,-0.01462 -0.20291,-0.02496 -0.002,-0.0098 -0.0425,-0.01067 -0.09,-4.13e-4 -0.0474,0.01008 -0.20574,0.02025 -0.35201,0.023 -0.14628,0.0025 -0.35687,0.01643 -0.46802,0.03075 -0.11116,0.01431 -0.21497,0.02039 -0.23074,0.01335 -0.0491,-0.02217 -0.96533,0.113952 -1.42153,0.211242 -0.67116,0.14322 -1.63351,0.44138 -2.10647,0.65286 -0.0913,0.0408 -0.20781,0.0833 -0.25898,0.0944 -0.0512,0.0111 -0.0907,0.0314 -0.0878,0.045 0.003,0.0137 -0.0214,0.0304 -0.0537,0.0372 -0.0323,0.007 -0.10295,0.0393 -0.15667,0.0721 -0.0537,0.0328 -0.12914,0.0663 -0.16761,0.0744 -0.0384,0.008 -0.074,0.0264 -0.0792,0.0404 -0.005,0.0143 -0.0545,0.0436 -0.10993,0.0654 -0.0554,0.0218 -0.11601,0.0525 -0.13467,0.068 -0.0281,0.0232 -0.11716,0.0702 -0.26936,0.14192 -0.0129,0.006 -0.0342,0.0213 -0.0472,0.0339 -0.0132,0.0124 -0.0685,0.04 -0.123285,0.0612 -0.05486,0.0211 -0.09761,0.0481 -0.09506,0.0601 0.0025,0.0121 -0.0234,0.0276 -0.05749,0.0348 -0.03416,0.007 -0.05998,0.0234 -0.05731,0.0359 0.0027,0.0124 -0.03833,0.0396 -0.091,0.0605 -0.05272,0.0208 -0.09388,0.0468 -0.09156,0.0578 0.0024,0.011 -0.03599,0.0366 -0.08514,0.057 -0.0492,0.0205 -0.09327,0.0464 -0.0981,0.0576 -0.0049,0.0113 -0.09133,0.0713 -0.192331,0.13357 -0.101004,0.0623 -0.189388,0.13002 -0.196459,0.15051 -0.0071,0.0205 -0.03068,0.0411 -0.05247,0.0457 -0.06586,0.0139 -0.357539,0.25106 -0.421731,0.3428 -0.03307,0.0472 -0.0751,0.0842 -0.09349,0.0821 -0.01831,-0.003 -0.02366,0.007 -0.01234,0.0185 0.01197,0.0121 0.01336,0.0281 0.0036,0.035 -0.0098,0.007 -0.04059,0.0771 -0.06837,0.15602 -0.05372,0.15255 -0.07599,0.41769 -0.04601,0.54739 0.01868,0.0799 0.154459,0.36575 0.192602,0.40476 0.01165,0.0119 0.04022,0.0729 0.06374,0.13566 0.02347,0.0628 0.05118,0.11242 0.06144,0.11029 0.01745,-0.004 0.04742,0.0632 0.132469,0.29631 0.0195,0.053 0.04444,0.10021 0.05592,0.10492 0.0114,0.005 0.03617,0.0461 0.05513,0.0921 0.01897,0.0459 0.06536,0.1412 0.103108,0.21171 0.03778,0.0705 0.0894,0.17049 0.11455,0.22225 0.02526,0.0517 0.05967,0.11455 0.07676,0.13942 0.01704,0.025 0.0562,0.0962 0.08713,0.15848 0.03805,0.0765 0.06073,0.10106 0.07005,0.076 0.0093,-0.0253 0.01843,-0.0157 0.02836,0.0296 0.008,0.0367 0.02664,0.071 0.04139,0.0764 0.0145,0.006 0.02397,0.0275 0.02064,0.049 -0.004,0.0216 0.0053,0.037 0.01951,0.0339 0.01443,-0.003 0.03664,0.0135 0.0498,0.0368 0.0132,0.0232 0.04805,0.0596 0.07747,0.0809 0.02945,0.0212 0.08046,0.0658 0.11332,0.0991 l 0.05982,0.0604 -0.06951,0.10036 c -0.03821,0.0552 -0.08264,0.11096 -0.09871,0.124 -0.07421,0.0601 -0.122132,0.1117 -0.176548,0.19027 -0.04431,0.064 -0.04745,0.078 -0.01288,0.057 0.02528,-0.0154 0.03971,-0.0176 0.03244,-0.004 -0.0074,0.0129 -0.03511,0.0295 -0.06123,0.0366 -0.02605,0.007 -0.07554,0.0511 -0.109683,0.0976 -0.03421,0.0465 -0.07337,0.0869 -0.08717,0.0899 -0.01353,0.003 -0.02316,0.0145 -0.02084,0.0253 0.0024,0.011 -0.03233,0.0622 -0.0773,0.11362 -0.04484,0.0514 -0.07481,0.10057 -0.06657,0.10918 0.0083,0.008 -0.01252,0.029 -0.04592,0.0453 -0.03353,0.0164 -0.05494,0.0337 -0.04773,0.0383 0.0076,0.005 -0.05545,0.10642 -0.138962,0.22623 -0.08366,0.11973 -0.173472,0.26833 -0.199587,0.33024 -0.02607,0.062 -0.04977,0.10362 -0.05156,0.0931 -0.0024,-0.011 -0.02218,0.0181 -0.0442,0.0639 -0.02188,0.0461 -0.06435,0.12153 -0.09413,0.16817 -0.02964,0.0467 -0.04882,0.115 -0.04278,0.1518 0.0075,0.0437 0.0038,0.0525 -0.0093,0.0254 -0.01606,-0.0321 -0.0416,6.4e-4 -0.111129,0.14037 -0.04973,0.10017 -0.102359,0.20524 -0.117076,0.23353 -0.01519,0.0281 -0.02417,0.0626 -0.02154,0.0759 0.0031,0.0134 -0.0063,0.0268 -0.01957,0.0298 -0.01347,0.003 -0.0197,0.0284 -0.01396,0.0564 0.0059,0.0281 -8.12e-4,0.0469 -0.01526,0.0417 -0.01424,-0.005 -0.02853,0.0143 -0.03132,0.0441 -0.0072,0.0736 -0.09969,0.0885 -0.270441,0.0436 -0.07654,-0.0201 -0.153343,-0.0272 -0.170704,-0.016 -0.01747,0.011 -0.02741,0.009 -0.02251,-0.005 0.0056,-0.0138 -0.04924,-0.0382 -0.120399,-0.054 -0.07123,-0.0159 -0.162513,-0.0385 -0.202892,-0.0501 -0.04036,-0.0119 -0.09187,-0.0174 -0.114499,-0.0126 -0.02258,0.005 -0.03672,-0.003 -0.03119,-0.0187 0.01177,-0.0341 -0.159726,-0.031 -0.197941,0.003 -0.01572,0.0141 -0.02201,0.0144 -0.01392,0.001 0.01867,-0.0324 -0.202407,-0.11294 -0.311613,-0.11379 -0.04588,-3.3e-4 -0.07931,-0.0122 -0.07426,-0.0263 0.005,-0.0143 -0.0065,-0.0224 -0.02682,-0.0178 -0.01967,0.004 -0.07144,-0.002 -0.114871,-0.0143 -0.04343,-0.0122 -0.110423,-0.0154 -0.148818,-0.007 -0.04018,0.008 -0.06555,0.003 -0.05966,-0.0135 0.0067,-0.018 -0.09555,-0.006 -0.287932,0.0351 -0.163931,0.0348 -0.302043,0.0744 -0.306964,0.0881 -0.004,0.0139 -0.04505,0.04 -0.08925,0.0583 -0.190302,0.0792 -0.559684,0.50042 -0.536161,0.61137 0.0044,0.0211 -0.0047,0.0337 -0.01966,0.0283 -0.01549,-0.006 -0.02448,0.007 -0.01979,0.0286 0.0045,0.0213 -0.003,0.0411 -0.01635,0.0441 -0.01347,0.003 -0.0226,0.0157 -0.0197,0.0284 0.0027,0.0127 -0.02549,0.0999 -0.06258,0.19375 -0.03708,0.0939 -0.06623,0.17723 -0.06453,0.1853 0.0015,0.008 -0.0073,0.0343 -0.02002,0.0584 -0.01256,0.0241 -0.03175,0.0595 -0.04155,0.0792 -0.01039,0.0193 -0.03165,0.0821 -0.04768,0.13901 -0.01631,0.057 -0.03782,0.1054 -0.0485,0.10759 -0.01041,0.002 -0.01622,0.0191 -0.01192,0.0375 0.0039,0.0184 -0.0098,0.064 -0.03046,0.10123 -0.02088,0.0372 -0.03482,0.0811 -0.03129,0.0974 0.0035,0.0162 -0.01563,0.0682 -0.04224,0.11528 -0.02685,0.0471 -0.05431,0.11017 -0.06113,0.14021 -0.01509,0.0659 -0.04923,0.16129 -0.06537,0.18255 -0.0063,0.009 -0.03144,0.0816 -0.05485,0.16273 -0.03653,0.12434 -0.03683,0.14988 -0.002,0.16434 0.03197,0.0135 0.02951,0.0168 -0.01118,0.0146 -0.04104,-0.002 -0.05718,0.0195 -0.07464,0.0985 -0.06046,0.27542 -0.07119,0.32002 -0.08059,0.33403 -0.01422,0.0212 -0.03148,0.3521 -0.02802,0.53798 0.0016,0.0853 -2.24e-4,0.17328 -0.0041,0.19551 -0.0075,0.0437 0.0058,0.32492 0.0282,0.59402 0.0079,0.0928 0.01583,0.23632 0.01795,0.31888 0.0021,0.0825 0.01879,0.22 0.03692,0.30548 0.01812,0.0854 0.02322,0.16468 0.0115,0.176 -0.02959,0.0282 0.358318,1.85749 0.392385,1.85026 0.01408,-0.003 0.03936,0.0633 0.05787,0.15068 0.04281,0.20185 0.367636,1.09025 0.43346,1.18551 0.01729,0.0247 0.05141,0.10494 0.07598,0.17789 0.02467,0.0729 0.05838,0.14336 0.07496,0.15654 0.01668,0.0131 0.02985,0.034 0.02926,0.0464 -0.0011,0.0331 0.120489,0.301 0.15729,0.34533 0.01751,0.021 0.03515,0.0539 0.03919,0.0728 0.0039,0.019 0.06297,0.13223 0.131064,0.25155 0.06806,0.11938 0.127973,0.23655 0.133119,0.26043 0.0051,0.0239 0.0233,0.0405 0.04036,0.0369 0.01709,-0.004 0.03871,0.0254 0.0484,0.0635 0.0099,0.0384 0.04366,0.10315 0.07589,0.14354 0.03213,0.0404 0.06186,0.0897 0.06604,0.10943 0.0043,0.0198 0.03418,0.0729 0.06661,0.11817 0.03238,0.0453 0.07318,0.10259 0.09051,0.12746 0.01729,0.0249 0.06557,0.0928 0.107263,0.15098 0.04169,0.0583 0.08023,0.12594 0.08563,0.15054 0.0083,0.0379 0.01272,0.0383 0.02639,0.002 0.01309,-0.0334 0.01887,-0.0292 0.03005,0.0204 0.0076,0.0346 0.04453,0.10091 0.08201,0.14733 0.03757,0.0465 0.08229,0.11534 0.09942,0.1531 0.01726,0.0377 0.03974,0.0669 0.05022,0.0647 0.01068,-0.002 0.04868,0.0364 0.08482,0.0856 0.0774,0.10563 0.298298,0.25491 0.338507,0.22884 0.01712,-0.011 0.02564,-0.003 0.02175,0.021 -0.0044,0.0239 0.0093,0.0356 0.0338,0.0304 0.02195,-0.005 0.04207,0.002 0.04468,0.0139 0.0087,0.0412 0.365958,0.0547 0.527333,0.0201 0.117186,-0.0251 0.146567,-0.0385 0.114698,-0.0521 -0.0346,-0.0148 -0.03299,-0.0173 0.01014,-0.0149 0.02878,0.002 0.110618,-0.0261 0.181413,-0.0624 0.0709,-0.0359 0.159574,-0.0721 0.197099,-0.0802 0.03758,-0.008 0.06619,-0.0247 0.06362,-0.0369 -0.0022,-0.012 0.02484,-0.035 0.06059,-0.0511 0.03584,-0.0158 0.126471,-0.0566 0.201466,-0.0902 0.07497,-0.0335 0.134588,-0.0691 0.132534,-0.0788 -0.0021,-0.01 0.05606,-0.0383 0.129181,-0.0638 0.07319,-0.0253 0.131207,-0.0545 0.128994,-0.0648 -0.0021,-0.01 0.04861,-0.0375 0.112979,-0.0603 0.06437,-0.0229 0.122936,-0.0506 0.130127,-0.0617 0.0073,-0.0111 0.03212,-0.0264 0.05508,-0.0341 0.07681,-0.0255 0.277687,-0.12272 0.323073,-0.15681 0.02461,-0.0184 0.09167,-0.0671 0.148942,-0.10811 0.05726,-0.041 0.168949,-0.14122 0.248166,-0.22274 0.07915,-0.0816 0.162135,-0.1518 0.184287,-0.15623 0.0222,-0.004 0.0854,0.0394 0.14044,0.0975 0.0551,0.0581 0.10748,0.0986 0.11644,0.0901 0.009,-0.008 0.0197,2.2e-4 0.0238,0.0208 0.004,0.0199 0.0488,0.0649 0.0991,0.10005 0.0504,0.0351 0.0927,0.0696 0.0942,0.0767 0.006,0.0303 0.18315,0.1446 0.19519,0.12603 0.007,-0.0112 0.0137,-0.008 0.0135,0.005 5.8e-4,0.0614 0.0272,0.11102 0.0556,0.10522 0.0171,-0.003 0.0667,0.0229 0.11005,0.0592 0.0434,0.0362 0.10731,0.0845 0.14202,0.10728 0.0348,0.0225 0.0893,0.0672 0.12113,0.0989 0.032,0.0316 0.0648,0.051 0.0729,0.0433 0.008,-0.008 0.0414,0.008 0.0728,0.0366 0.0318,0.0278 0.0679,0.041 0.0802,0.029 0.012,-0.0119 0.0173,-0.008 0.0116,0.009 -0.0111,0.0315 0.30062,0.22863 0.34635,0.219 0.0152,-0.003 0.0223,0.003 0.0156,0.0126 -0.0177,0.0266 0.28621,0.18168 0.31042,0.15856 0.0105,-0.0108 0.0155,-0.006 0.009,0.01 -0.006,0.0158 0.0306,0.0479 0.0804,0.0714 0.0828,0.0387 0.27592,0.13406 0.36293,0.17963 0.0194,0.01 0.0417,0.0169 0.0498,0.0151 0.008,-0.002 0.0305,0.005 0.0498,0.0162 0.0196,0.0101 0.0739,0.0394 0.12113,0.0643 0.0748,0.0387 0.084,0.0531 0.0709,0.10769 -0.008,0.0346 -0.0393,0.16729 -0.0689,0.29492 -0.0296,0.12758 -0.0753,0.32414 -0.10171,0.43678 -0.0725,0.30956 -0.10374,0.45852 -0.0999,0.47642 0.002,0.008 -0.0111,0.0502 -0.0289,0.092 -0.0653,0.15211 -0.0848,0.4728 -0.0423,0.69241 0.045,0.23383 0.11982,0.45572 0.15804,0.46942 0.014,0.005 0.03,0.0309 0.0357,0.0574 0.006,0.0264 0.0214,0.0459 0.035,0.043 0.0135,-0.003 0.0291,0.0177 0.0353,0.0441 0.006,0.0271 0.0351,0.0693 0.0653,0.0937 0.21297,0.172 0.34868,0.25967 0.48606,0.31368 0.087,0.0344 0.17239,0.0702 0.18963,0.0803 0.0173,0.0101 0.0574,0.0208 0.0893,0.0233 0.0317,0.003 0.0598,0.0161 0.0625,0.0288 0.003,0.0129 0.0209,0.0195 0.0403,0.0152 0.0194,-0.004 0.0408,0.001 0.0481,0.011 0.007,0.0108 0.10576,0.0506 0.21946,0.0895 0.11366,0.0391 0.24567,0.0842 0.29331,0.10068 0.0476,0.0163 0.11798,0.0452 0.15643,0.0639 0.0384,0.0187 0.0849,0.0312 0.10364,0.0271 0.0187,-0.004 0.0364,0.005 0.0395,0.0189 0.003,0.0145 0.0153,0.0169 0.027,0.006 0.0119,-0.0117 0.0239,-0.01 0.0269,0.004 0.003,0.0133 0.1029,0.0585 0.22211,0.10062 0.1195,0.0415 0.223,0.0848 0.23027,0.0956 0.007,0.011 0.0225,0.018 0.0341,0.0158 0.012,-0.002 0.0491,-7e-5 0.0834,0.005 0.034,0.006 0.0721,0.008 0.0844,0.006 0.0121,-0.002 0.0309,0.004 0.0419,0.0137 0.0289,0.0259 0.26634,0.0819 0.30887,0.0729 0.0201,-0.004 0.046,-0.002 0.0575,0.006 0.0115,0.007 0.0353,0.0129 0.0524,0.0126 0.0173,2.2e-4 0.0841,0.006 0.1485,0.0153 0.0643,0.009 0.1436,0.0107 0.17601,0.004 0.0325,-0.007 0.0609,-0.003 0.0634,0.009 0.002,0.012 0.0816,0.0132 0.17583,0.003 0.0943,-0.0101 0.25288,-0.019 0.35266,-0.0197 0.25983,-0.002 0.52948,-0.025 1.01945,-0.088 0.2362,-0.0304 0.47519,-0.0599 0.53108,-0.0656 0.16368,-0.0168 0.85841,-0.17939 1.33523,-0.31231 z m 6.74408,-17.95531 c -0.005,-0.0291 -3e-4,-0.0363 0.0126,-0.0179 0.0108,0.0165 0.0145,0.038 0.008,0.048 -0.007,0.01 -0.0156,-0.003 -0.0199,-0.0299 z m -6.10648,-1.31109 c -0.0117,-0.0119 -0.009,-0.0241 0.006,-0.0271 0.0145,-0.003 0.0287,0.005 0.0318,0.019 0.003,0.0135 1.2e-4,0.0259 -0.006,0.0271 -0.006,0.002 -0.02,-0.008 -0.0317,-0.0189 z m -3.1663,-4.19942 c 0.0165,-0.01081 0.038,-0.0145 0.048,-0.008 0.01,0.007 -0.003,0.0156 -0.0299,0.0199 -0.0292,0.005 -0.0363,3e-4 -0.0179,-0.0126 z m -6.18196,21.88037 c 0.0467,-0.0269 0.11713,-0.0716 0.15627,-0.0991 0.0391,-0.0275 0.0834,-0.0526 0.0985,-0.0559 0.0149,-0.003 0.0254,-0.015 0.023,-0.0263 -0.003,-0.0111 0.02,-0.0413 0.0499,-0.0665 0.0299,-0.0251 0.045,-0.0555 0.0341,-0.0672 -0.0117,-0.0119 -0.007,-0.0169 0.009,-0.0109 0.0448,0.0162 0.16951,-0.19334 0.20824,-0.34997 0.0189,-0.0763 0.0297,-0.19018 0.0239,-0.25321 -0.006,-0.063 -0.004,-0.14145 0.004,-0.17423 0.008,-0.0327 3.4e-4,-0.0896 -0.0172,-0.12611 -0.0174,-0.0366 -0.054,-0.12054 -0.0813,-0.18654 -0.0844,-0.20445 -0.35133,-0.50904 -0.4161,-0.47481 -0.0127,0.006 -0.0181,4.9e-4 -0.013,-0.0148 0.0177,-0.0482 -0.41833,-0.19928 -0.51581,-0.17837 -0.0261,0.006 -0.0568,2.8e-4 -0.068,-0.0115 -0.0117,-0.0119 -0.12554,6.9e-4 -0.255079,0.0282 -0.139755,0.0296 -0.232353,0.0598 -0.229226,0.0745 0.0026,0.0135 -0.01543,0.0289 -0.03995,0.0344 -0.08672,0.0184 -0.323643,0.22611 -0.404682,0.35474 -0.04482,0.0712 -0.09465,0.17785 -0.110709,0.23693 -0.01583,0.0591 -0.03518,0.11476 -0.04266,0.12365 -0.02475,0.0288 -0.0052,0.42609 0.02669,0.53917 0.027,0.0974 0.0973,0.25542 0.157006,0.35527 0.01785,0.03 0.02242,0.0289 0.03838,-0.008 0.01493,-0.0343 0.01747,-0.0333 0.01321,0.005 -0.0094,0.0905 0.29184,0.35357 0.358111,0.31274 0.02091,-0.0127 0.0319,-0.0132 0.02468,-5.8e-4 -0.0284,0.05 0.187406,0.12235 0.438472,0.14703 0.1195,0.0117 0.43396,-0.052 0.53042,-0.10786 z m 14.76451,-3.12933 c 0.0743,-0.0306 0.1626,-0.0785 0.19633,-0.10638 0.0337,-0.0278 0.0701,-0.0525 0.0809,-0.0549 0.0524,-0.0113 0.32201,-0.42503 0.34387,-0.52723 0.009,-0.0449 0.0145,-0.0855 0.0109,-0.0903 -0.003,-0.005 0.003,-0.0178 0.0135,-0.0288 0.0252,-0.0253 0.0302,-0.37611 0.007,-0.48613 -0.01,-0.0453 -0.0285,-0.0863 -0.0419,-0.0911 -0.0132,-0.005 -0.0412,-0.0594 -0.0619,-0.12139 -0.0205,-0.0619 -0.0486,-0.11759 -0.0621,-0.12369 -0.0135,-0.006 -0.0273,-0.0224 -0.031,-0.0356 -0.008,-0.0295 -0.0974,-0.14734 -0.14201,-0.18639 -0.1771,-0.15459 -0.44914,-0.26686 -0.55056,-0.22707 -0.0178,0.007 -0.0275,-5.9e-4 -0.0215,-0.0175 0.006,-0.0184 -0.0135,-0.0248 -0.0513,-0.0169 -0.0341,0.007 -0.0714,0.003 -0.0827,-0.008 -0.0117,-0.0119 -0.1199,-4.7e-4 -0.24121,0.0252 -0.12132,0.0257 -0.22512,0.0594 -0.23067,0.0748 -0.006,0.0155 -0.0268,0.0316 -0.0473,0.036 -0.0701,0.0149 -0.34841,0.24205 -0.35296,0.28816 -0.003,0.0254 -0.0154,0.0456 -0.0284,0.0452 -0.0308,-6.9e-4 -0.12964,0.17453 -0.17878,0.31809 -0.0958,0.27969 -0.0335,0.70242 0.14445,0.97956 0.0827,0.12884 0.10333,0.15214 0.19451,0.21866 0.0211,0.0152 0.041,0.04 0.0441,0.0546 0.003,0.0147 0.0224,0.023 0.0428,0.0188 0.0205,-0.004 0.0392,0.002 0.0414,0.0135 0.003,0.0111 0.048,0.0337 0.10118,0.0496 0.0533,0.0156 0.0985,0.0363 0.10064,0.0453 0.001,0.009 0.0387,0.0175 0.0817,0.0178 0.0429,2.8e-4 0.08,0.01 0.0824,0.0212 0.005,0.0217 0.26168,0.0136 0.4142,-0.013 0.0491,-0.009 0.14992,-0.041 0.22425,-0.0714 z M 97.522299,107.08336 c 0.0056,-0.0157 0.04037,-0.0345 0.07731,-0.0424 0.09345,-0.0198 0.355701,-0.26352 0.448877,-0.41714 0.04261,-0.0702 0.08903,-0.18142 0.102591,-0.2473 0.01384,-0.0658 0.03054,-0.12658 0.03718,-0.13514 0.02195,-0.028 0.0053,-0.44417 -0.01987,-0.497 -0.0134,-0.0284 -0.04925,-0.11044 -0.0794,-0.18232 -0.03014,-0.0719 -0.09968,-0.1834 -0.154434,-0.24775 -0.100699,-0.11849 -0.312469,-0.26377 -0.397636,-0.27296 -0.02556,-0.003 -0.04858,-0.0157 -0.05151,-0.028 -0.0026,-0.0128 -0.01887,-0.0203 -0.03598,-0.0167 -0.01709,0.004 -0.06554,-0.003 -0.107642,-0.0149 -0.09181,-0.0255 -0.33033,-0.0218 -0.468112,0.007 -0.122409,0.026 -0.376845,0.13538 -0.371652,0.15985 0.0022,0.01 -0.02822,0.0324 -0.06729,0.05 -0.03912,0.0177 -0.06906,0.0416 -0.0666,0.0534 0.0024,0.0121 -0.01588,0.033 -0.04125,0.0472 -0.06927,0.0393 -0.23022,0.30241 -0.261168,0.42685 -0.01503,0.0605 -0.03705,0.10648 -0.04908,0.10213 -0.01161,-0.004 -0.01883,0.004 -0.01593,0.0185 0.003,0.0143 0.0098,0.12762 0.01452,0.25148 0.0087,0.21882 0.02085,0.26586 0.137813,0.53527 0.03711,0.0855 0.142041,0.21643 0.168897,0.21073 0.01032,-0.002 0.02158,0.008 0.02451,0.0222 0.02431,0.11474 0.501188,0.3338 0.65542,0.30095 0.02861,-0.006 0.06127,-0.001 0.07259,0.0105 0.01165,0.0119 0.11427,0.002 0.228786,-0.0226 0.114509,-0.0243 0.21271,-0.0568 0.218271,-0.0722 z m 14.913911,-3.16278 c -0.003,-0.0135 0.0205,-0.0303 0.0521,-0.037 0.0315,-0.007 0.0756,-0.0331 0.0979,-0.0588 0.0227,-0.0255 0.0559,-0.0504 0.075,-0.0548 0.0556,-0.0136 0.24069,-0.25252 0.3021,-0.39089 0.0663,-0.14957 0.0958,-0.38221 0.0632,-0.49842 -0.007,-0.0236 -3.4e-4,-0.0454 0.0133,-0.0483 0.029,-0.006 -0.0253,-0.19926 -0.10419,-0.36995 -0.0722,-0.15616 -0.20103,-0.31794 -0.31102,-0.39046 -0.0521,-0.0349 -0.0902,-0.0703 -0.0842,-0.0795 0.0107,-0.0161 -0.0398,-0.016 -0.0804,1.1e-4 -0.0106,0.004 -0.0164,-0.002 -0.0123,-0.0133 0.004,-0.0117 -0.0107,-0.0329 -0.0339,-0.0463 -0.0228,-0.0137 -0.0398,-0.0171 -0.0379,-0.007 0.001,0.009 -0.0204,-5.5e-4 -0.05,-0.0218 -0.12368,-0.0894 -0.48026,-0.10302 -0.72116,-0.0276 -0.21258,0.0666 -0.30768,0.10885 -0.28905,0.12835 0.008,0.009 -0.0214,0.0324 -0.0672,0.0514 -0.0458,0.0192 -0.0816,0.0427 -0.0795,0.0525 0.002,0.01 -0.014,0.0331 -0.0357,0.0517 -0.10525,0.0908 -0.17151,0.16603 -0.18384,0.20905 -0.008,0.026 -0.0335,0.10288 -0.058,0.17055 -0.0674,0.18719 -0.0687,0.42622 -0.004,0.65829 0.0692,0.24688 0.14743,0.37041 0.353,0.55641 0.0816,0.0739 0.13508,0.10455 0.1571,0.0903 0.0184,-0.0121 0.0293,-0.01 0.0246,0.004 -0.005,0.014 0.0266,0.0421 0.0702,0.0623 0.0436,0.0203 0.0964,0.0464 0.11718,0.0581 0.021,0.0107 0.0535,0.0104 0.0723,-0.002 0.0188,-0.0123 0.0303,-0.0119 0.0257,7.8e-4 -0.0109,0.031 0.11169,0.0577 0.18946,0.0412 0.0335,-0.007 0.0633,-0.002 0.0661,0.0119 0.003,0.0148 0.10048,0.005 0.2412,-0.0252 0.14072,-0.0298 0.23382,-0.0601 0.23068,-0.0748 z m -1.30263,-1.71389 c 0.0164,-0.0109 0.038,-0.0145 0.048,-0.008 0.01,0.007 -0.003,0.0156 -0.0298,0.0199 -0.0291,0.005 -0.0363,3.1e-4 -0.0179,-0.0126 z m -10.69514,-1.96011 c -0.009,-0.007 -0.0316,-0.003 -0.048,0.008 -0.0181,0.0122 -0.0108,0.0168 0.0179,0.0126 0.0265,-0.004 0.0399,-0.0131 0.0298,-0.0199 z m 20.21819,7.33714 c 0.0165,-0.0108 0.038,-0.0146 0.048,-0.008 0.01,0.007 -0.003,0.0157 -0.0298,0.0199 -0.0292,0.005 -0.0364,2.6e-4 -0.0179,-0.0126 z m -25.014866,-6.8265 c 0.01326,-0.0206 0.03167,-0.0325 0.04088,-0.0265 0.0095,0.007 -0.0016,0.0229 -0.02387,0.0375 -0.03253,0.021 -0.03604,0.0188 -0.01684,-0.011 z"
       id="path2521"
       inkscape:connector-curvature="0" />
  </g>
</svg>
